<?xml version="1.0" encoding="utf-8" standalone="no"?>
<!DOCTYPE svg PUBLIC "-//W3C//DTD SVG 1.1//EN"
  "http://www.w3.org/Graphics/SVG/1.1/DTD/svg11.dtd">
<svg xmlns:xlink="http://www.w3.org/1999/xlink" width="219.6pt" height="255.6pt" viewBox="0 0 219.6 255.6" xmlns="http://www.w3.org/2000/svg" version="1.1">
 <metadata>
  <rdf:RDF xmlns:dc="http://purl.org/dc/elements/1.1/" xmlns:cc="http://creativecommons.org/ns#" xmlns:rdf="http://www.w3.org/1999/02/22-rdf-syntax-ns#">
   <cc:Work>
    <dc:type rdf:resource="http://purl.org/dc/dcmitype/StillImage"/>
    <dc:date>2026-06-23T14:45:33.982855</dc:date>
    <dc:format>image/svg+xml</dc:format>
    <dc:creator>
     <cc:Agent>
      <dc:title>Matplotlib v3.10.8, https://matplotlib.org/</dc:title>
     </cc:Agent>
    </dc:creator>
   </cc:Work>
  </rdf:RDF>
 </metadata>
 <defs>
  <style type="text/css">*{stroke-linejoin: round; stroke-linecap: butt}</style>
 </defs>
 <g id="figure_1">
  <g id="patch_1">
   <path d="M 0 255.6 
L 219.6 255.6 
L 219.6 0 
L 0 0 
z
" style="fill: #ffffff"/>
  </g>
  <g id="axes_1">
   <g id="patch_2">
    <path d="M 65.88 148.695371 
L 216.306 148.695371 
L 216.306 3.834 
L 65.88 3.834 
z
" style="fill: #ffffff"/>
   </g>
   <g id="matplotlib.axis_1">
    <g id="xtick_1">
     <g id="line2d_1">
      <defs>
       <path id="m32834f07c0" d="M 0 0 
L 0 -4.8 
" style="stroke: #000000; stroke-width: 1.65"/>
      </defs>
      <g>
       <use xlink:href="#m32834f07c0" x="85.342124" y="148.695371" style="stroke: #000000; stroke-width: 1.65"/>
      </g>
     </g>
     <g id="line2d_2">
      <defs>
       <path id="m051533752e" d="M 0 0 
L 0 4.8 
" style="stroke: #000000; stroke-width: 1.65"/>
      </defs>
      <g>
       <use xlink:href="#m051533752e" x="85.342124" y="3.834" style="stroke: #000000; stroke-width: 1.65"/>
      </g>
     </g>
    </g>
    <g id="xtick_2">
     <g id="line2d_3">
      <g>
       <use xlink:href="#m32834f07c0" x="110.683431" y="148.695371" style="stroke: #000000; stroke-width: 1.65"/>
      </g>
     </g>
     <g id="line2d_4">
      <g>
       <use xlink:href="#m051533752e" x="110.683431" y="3.834" style="stroke: #000000; stroke-width: 1.65"/>
      </g>
     </g>
    </g>
    <g id="xtick_3">
     <g id="line2d_5">
      <g>
       <use xlink:href="#m32834f07c0" x="136.024739" y="148.695371" style="stroke: #000000; stroke-width: 1.65"/>
      </g>
     </g>
     <g id="line2d_6">
      <g>
       <use xlink:href="#m051533752e" x="136.024739" y="3.834" style="stroke: #000000; stroke-width: 1.65"/>
      </g>
     </g>
    </g>
    <g id="xtick_4">
     <g id="line2d_7">
      <g>
       <use xlink:href="#m32834f07c0" x="161.366046" y="148.695371" style="stroke: #000000; stroke-width: 1.65"/>
      </g>
     </g>
     <g id="line2d_8">
      <g>
       <use xlink:href="#m051533752e" x="161.366046" y="3.834" style="stroke: #000000; stroke-width: 1.65"/>
      </g>
     </g>
    </g>
    <g id="xtick_5">
     <g id="line2d_9">
      <g>
       <use xlink:href="#m32834f07c0" x="186.707353" y="148.695371" style="stroke: #000000; stroke-width: 1.65"/>
      </g>
     </g>
     <g id="line2d_10">
      <g>
       <use xlink:href="#m051533752e" x="186.707353" y="3.834" style="stroke: #000000; stroke-width: 1.65"/>
      </g>
     </g>
    </g>
    <g id="xtick_6">
     <g id="line2d_11">
      <g>
       <use xlink:href="#m32834f07c0" x="212.04866" y="148.695371" style="stroke: #000000; stroke-width: 1.65"/>
      </g>
     </g>
     <g id="line2d_12">
      <g>
       <use xlink:href="#m051533752e" x="212.04866" y="3.834" style="stroke: #000000; stroke-width: 1.65"/>
      </g>
     </g>
    </g>
   </g>
   <g id="matplotlib.axis_2">
    <g id="ytick_1">
     <g id="line2d_13">
      <defs>
       <path id="m7722d8b698" d="M 0 0 
L 4.8 0 
" style="stroke: #000000; stroke-width: 1.65"/>
      </defs>
      <g>
       <use xlink:href="#m7722d8b698" x="65.88" y="139.581728" style="stroke: #000000; stroke-width: 1.65"/>
      </g>
     </g>
     <g id="line2d_14">
      <defs>
       <path id="m0cee27291a" d="M 0 0 
L -4.8 0 
" style="stroke: #000000; stroke-width: 1.65"/>
      </defs>
      <g>
       <use xlink:href="#m0cee27291a" x="216.306" y="139.581728" style="stroke: #000000; stroke-width: 1.65"/>
      </g>
     </g>
     <g id="text_1">
      <!-- −0.7 -->
      <g transform="translate(34.981562 143.570908) scale(0.105 -0.105)">
       <defs>
        <path id="DejaVuSans-Bold-2212" d="M 678 2375 
L 4684 2375 
L 4684 1638 
L 678 1638 
L 678 2375 
z
" transform="scale(0.015625)"/>
        <path id="DejaVuSans-Bold-30" d="M 2944 2338 
Q 2944 3213 2780 3570 
Q 2616 3928 2228 3928 
Q 1841 3928 1675 3570 
Q 1509 3213 1509 2338 
Q 1509 1453 1675 1090 
Q 1841 728 2228 728 
Q 2613 728 2778 1090 
Q 2944 1453 2944 2338 
z
M 4147 2328 
Q 4147 1169 3647 539 
Q 3147 -91 2228 -91 
Q 1306 -91 806 539 
Q 306 1169 306 2328 
Q 306 3491 806 4120 
Q 1306 4750 2228 4750 
Q 3147 4750 3647 4120 
Q 4147 3491 4147 2328 
z
" transform="scale(0.015625)"/>
        <path id="DejaVuSans-Bold-2e" d="M 653 1209 
L 1778 1209 
L 1778 0 
L 653 0 
L 653 1209 
z
" transform="scale(0.015625)"/>
        <path id="DejaVuSans-Bold-37" d="M 428 4666 
L 3944 4666 
L 3944 3988 
L 2125 0 
L 953 0 
L 2675 3781 
L 428 3781 
L 428 4666 
z
" transform="scale(0.015625)"/>
       </defs>
       <use xlink:href="#DejaVuSans-Bold-2212"/>
       <use xlink:href="#DejaVuSans-Bold-30" transform="translate(83.789062 0)"/>
       <use xlink:href="#DejaVuSans-Bold-2e" transform="translate(153.369141 0)"/>
       <use xlink:href="#DejaVuSans-Bold-37" transform="translate(191.357422 0)"/>
      </g>
     </g>
    </g>
    <g id="ytick_2">
     <g id="line2d_15">
      <g>
       <use xlink:href="#m7722d8b698" x="65.88" y="108.625408" style="stroke: #000000; stroke-width: 1.65"/>
      </g>
     </g>
     <g id="line2d_16">
      <g>
       <use xlink:href="#m0cee27291a" x="216.306" y="108.625408" style="stroke: #000000; stroke-width: 1.65"/>
      </g>
     </g>
     <g id="text_2">
      <!-- −0.6 -->
      <g transform="translate(34.981562 112.614587) scale(0.105 -0.105)">
       <defs>
        <path id="DejaVuSans-Bold-36" d="M 2316 2303 
Q 2000 2303 1842 2098 
Q 1684 1894 1684 1484 
Q 1684 1075 1842 870 
Q 2000 666 2316 666 
Q 2634 666 2792 870 
Q 2950 1075 2950 1484 
Q 2950 1894 2792 2098 
Q 2634 2303 2316 2303 
z
M 3803 4544 
L 3803 3681 
Q 3506 3822 3243 3889 
Q 2981 3956 2731 3956 
Q 2194 3956 1894 3657 
Q 1594 3359 1544 2772 
Q 1750 2925 1990 3001 
Q 2231 3078 2516 3078 
Q 3231 3078 3670 2659 
Q 4109 2241 4109 1563 
Q 4109 813 3618 361 
Q 3128 -91 2303 -91 
Q 1394 -91 895 523 
Q 397 1138 397 2266 
Q 397 3422 980 4083 
Q 1563 4744 2578 4744 
Q 2900 4744 3203 4694 
Q 3506 4644 3803 4544 
z
" transform="scale(0.015625)"/>
       </defs>
       <use xlink:href="#DejaVuSans-Bold-2212"/>
       <use xlink:href="#DejaVuSans-Bold-30" transform="translate(83.789062 0)"/>
       <use xlink:href="#DejaVuSans-Bold-2e" transform="translate(153.369141 0)"/>
       <use xlink:href="#DejaVuSans-Bold-36" transform="translate(191.357422 0)"/>
      </g>
     </g>
    </g>
    <g id="ytick_3">
     <g id="line2d_17">
      <g>
       <use xlink:href="#m7722d8b698" x="65.88" y="77.669087" style="stroke: #000000; stroke-width: 1.65"/>
      </g>
     </g>
     <g id="line2d_18">
      <g>
       <use xlink:href="#m0cee27291a" x="216.306" y="77.669087" style="stroke: #000000; stroke-width: 1.65"/>
      </g>
     </g>
     <g id="text_3">
      <!-- −0.5 -->
      <g transform="translate(34.981562 81.658267) scale(0.105 -0.105)">
       <defs>
        <path id="DejaVuSans-Bold-35" d="M 678 4666 
L 3669 4666 
L 3669 3781 
L 1638 3781 
L 1638 3059 
Q 1775 3097 1914 3117 
Q 2053 3138 2203 3138 
Q 3056 3138 3531 2711 
Q 4006 2284 4006 1522 
Q 4006 766 3489 337 
Q 2972 -91 2053 -91 
Q 1656 -91 1267 -14 
Q 878 63 494 219 
L 494 1166 
Q 875 947 1217 837 
Q 1559 728 1863 728 
Q 2300 728 2551 942 
Q 2803 1156 2803 1522 
Q 2803 1891 2551 2103 
Q 2300 2316 1863 2316 
Q 1603 2316 1309 2248 
Q 1016 2181 678 2041 
L 678 4666 
z
" transform="scale(0.015625)"/>
       </defs>
       <use xlink:href="#DejaVuSans-Bold-2212"/>
       <use xlink:href="#DejaVuSans-Bold-30" transform="translate(83.789062 0)"/>
       <use xlink:href="#DejaVuSans-Bold-2e" transform="translate(153.369141 0)"/>
       <use xlink:href="#DejaVuSans-Bold-35" transform="translate(191.357422 0)"/>
      </g>
     </g>
    </g>
    <g id="ytick_4">
     <g id="line2d_19">
      <g>
       <use xlink:href="#m7722d8b698" x="65.88" y="46.712766" style="stroke: #000000; stroke-width: 1.65"/>
      </g>
     </g>
     <g id="line2d_20">
      <g>
       <use xlink:href="#m0cee27291a" x="216.306" y="46.712766" style="stroke: #000000; stroke-width: 1.65"/>
      </g>
     </g>
     <g id="text_4">
      <!-- −0.4 -->
      <g transform="translate(34.981562 50.701946) scale(0.105 -0.105)">
       <defs>
        <path id="DejaVuSans-Bold-34" d="M 2356 3675 
L 1038 1722 
L 2356 1722 
L 2356 3675 
z
M 2156 4666 
L 3494 4666 
L 3494 1722 
L 4159 1722 
L 4159 850 
L 3494 850 
L 3494 0 
L 2356 0 
L 2356 850 
L 288 850 
L 288 1881 
L 2156 4666 
z
" transform="scale(0.015625)"/>
       </defs>
       <use xlink:href="#DejaVuSans-Bold-2212"/>
       <use xlink:href="#DejaVuSans-Bold-30" transform="translate(83.789062 0)"/>
       <use xlink:href="#DejaVuSans-Bold-2e" transform="translate(153.369141 0)"/>
       <use xlink:href="#DejaVuSans-Bold-34" transform="translate(191.357422 0)"/>
      </g>
     </g>
    </g>
    <g id="ytick_5">
     <g id="line2d_21">
      <g>
       <use xlink:href="#m7722d8b698" x="65.88" y="15.756446" style="stroke: #000000; stroke-width: 1.65"/>
      </g>
     </g>
     <g id="line2d_22">
      <g>
       <use xlink:href="#m0cee27291a" x="216.306" y="15.756446" style="stroke: #000000; stroke-width: 1.65"/>
      </g>
     </g>
     <g id="text_5">
      <!-- −0.3 -->
      <g transform="translate(34.981562 19.745626) scale(0.105 -0.105)">
       <defs>
        <path id="DejaVuSans-Bold-33" d="M 2981 2516 
Q 3453 2394 3698 2092 
Q 3944 1791 3944 1325 
Q 3944 631 3412 270 
Q 2881 -91 1863 -91 
Q 1503 -91 1142 -33 
Q 781 25 428 141 
L 428 1069 
Q 766 900 1098 814 
Q 1431 728 1753 728 
Q 2231 728 2486 893 
Q 2741 1059 2741 1369 
Q 2741 1688 2480 1852 
Q 2219 2016 1709 2016 
L 1228 2016 
L 1228 2791 
L 1734 2791 
Q 2188 2791 2409 2933 
Q 2631 3075 2631 3366 
Q 2631 3634 2415 3781 
Q 2200 3928 1806 3928 
Q 1516 3928 1219 3862 
Q 922 3797 628 3669 
L 628 4550 
Q 984 4650 1334 4700 
Q 1684 4750 2022 4750 
Q 2931 4750 3382 4451 
Q 3834 4153 3834 3553 
Q 3834 3144 3618 2883 
Q 3403 2622 2981 2516 
z
" transform="scale(0.015625)"/>
       </defs>
       <use xlink:href="#DejaVuSans-Bold-2212"/>
       <use xlink:href="#DejaVuSans-Bold-30" transform="translate(83.789062 0)"/>
       <use xlink:href="#DejaVuSans-Bold-2e" transform="translate(153.369141 0)"/>
       <use xlink:href="#DejaVuSans-Bold-33" transform="translate(191.357422 0)"/>
      </g>
     </g>
    </g>
    <g id="text_6">
     <!-- $E_1(R)$ (Ha) -->
     <g transform="translate(27.064609 109.764686) rotate(-90) scale(0.125 -0.125)">
      <defs>
       <path id="DejaVuSans-Oblique-45" d="M 1081 4666 
L 4031 4666 
L 3928 4134 
L 1606 4134 
L 1338 2753 
L 3566 2753 
L 3463 2222 
L 1234 2222 
L 909 531 
L 3284 531 
L 3181 0 
L 172 0 
L 1081 4666 
z
" transform="scale(0.015625)"/>
       <path id="DejaVuSans-31" d="M 794 531 
L 1825 531 
L 1825 4091 
L 703 3866 
L 703 4441 
L 1819 4666 
L 2450 4666 
L 2450 531 
L 3481 531 
L 3481 0 
L 794 0 
L 794 531 
z
" transform="scale(0.015625)"/>
       <path id="DejaVuSans-28" d="M 1984 4856 
Q 1566 4138 1362 3434 
Q 1159 2731 1159 2009 
Q 1159 1288 1364 580 
Q 1569 -128 1984 -844 
L 1484 -844 
Q 1016 -109 783 600 
Q 550 1309 550 2009 
Q 550 2706 781 3412 
Q 1013 4119 1484 4856 
L 1984 4856 
z
" transform="scale(0.015625)"/>
       <path id="DejaVuSans-Oblique-52" d="M 1613 4147 
L 1294 2491 
L 2106 2491 
Q 2584 2491 2879 2755 
Q 3175 3019 3175 3444 
Q 3175 3784 2976 3965 
Q 2778 4147 2406 4147 
L 1613 4147 
z
M 2772 2241 
Q 2972 2194 3105 2009 
Q 3238 1825 3413 1275 
L 3809 0 
L 3144 0 
L 2778 1197 
Q 2638 1659 2453 1815 
Q 2269 1972 1888 1972 
L 1191 1972 
L 806 0 
L 172 0 
L 1081 4666 
L 2503 4666 
Q 3150 4666 3495 4373 
Q 3841 4081 3841 3531 
Q 3841 3044 3547 2687 
Q 3253 2331 2772 2241 
z
" transform="scale(0.015625)"/>
       <path id="DejaVuSans-29" d="M 513 4856 
L 1013 4856 
Q 1481 4119 1714 3412 
Q 1947 2706 1947 2009 
Q 1947 1309 1714 600 
Q 1481 -109 1013 -844 
L 513 -844 
Q 928 -128 1133 580 
Q 1338 1288 1338 2009 
Q 1338 2731 1133 3434 
Q 928 4138 513 4856 
z
" transform="scale(0.015625)"/>
       <path id="DejaVuSans-Bold-20" transform="scale(0.015625)"/>
       <path id="DejaVuSans-Bold-28" d="M 2413 -844 
L 1484 -844 
Q 1006 -72 778 623 
Q 550 1319 550 2003 
Q 550 2688 779 3389 
Q 1009 4091 1484 4856 
L 2413 4856 
Q 2013 4116 1813 3408 
Q 1613 2700 1613 2009 
Q 1613 1319 1811 609 
Q 2009 -100 2413 -844 
z
" transform="scale(0.015625)"/>
       <path id="DejaVuSans-Bold-48" d="M 588 4666 
L 1791 4666 
L 1791 2888 
L 3566 2888 
L 3566 4666 
L 4769 4666 
L 4769 0 
L 3566 0 
L 3566 1978 
L 1791 1978 
L 1791 0 
L 588 0 
L 588 4666 
z
" transform="scale(0.015625)"/>
       <path id="DejaVuSans-Bold-61" d="M 2106 1575 
Q 1756 1575 1579 1456 
Q 1403 1338 1403 1106 
Q 1403 894 1545 773 
Q 1688 653 1941 653 
Q 2256 653 2472 879 
Q 2688 1106 2688 1447 
L 2688 1575 
L 2106 1575 
z
M 3816 1997 
L 3816 0 
L 2688 0 
L 2688 519 
Q 2463 200 2181 54 
Q 1900 -91 1497 -91 
Q 953 -91 614 226 
Q 275 544 275 1050 
Q 275 1666 698 1953 
Q 1122 2241 2028 2241 
L 2688 2241 
L 2688 2328 
Q 2688 2594 2478 2717 
Q 2269 2841 1825 2841 
Q 1466 2841 1156 2769 
Q 847 2697 581 2553 
L 581 3406 
Q 941 3494 1303 3539 
Q 1666 3584 2028 3584 
Q 2975 3584 3395 3211 
Q 3816 2838 3816 1997 
z
" transform="scale(0.015625)"/>
       <path id="DejaVuSans-Bold-29" d="M 513 -844 
Q 913 -100 1113 609 
Q 1313 1319 1313 2009 
Q 1313 2700 1113 3408 
Q 913 4116 513 4856 
L 1441 4856 
Q 1916 4091 2145 3389 
Q 2375 2688 2375 2003 
Q 2375 1319 2147 623 
Q 1919 -72 1441 -844 
L 513 -844 
z
" transform="scale(0.015625)"/>
      </defs>
      <use xlink:href="#DejaVuSans-Oblique-45" transform="translate(0 0.125)"/>
      <use xlink:href="#DejaVuSans-31" transform="translate(63.183594 -16.28125) scale(0.7)"/>
      <use xlink:href="#DejaVuSans-28" transform="translate(110.454102 0.125)"/>
      <use xlink:href="#DejaVuSans-Oblique-52" transform="translate(149.467773 0.125)"/>
      <use xlink:href="#DejaVuSans-29" transform="translate(218.950195 0.125)"/>
      <use xlink:href="#DejaVuSans-Bold-20" transform="translate(257.963867 0.125)"/>
      <use xlink:href="#DejaVuSans-Bold-28" transform="translate(292.77832 0.125)"/>
      <use xlink:href="#DejaVuSans-Bold-48" transform="translate(338.481445 0.125)"/>
      <use xlink:href="#DejaVuSans-Bold-61" transform="translate(422.172852 0.125)"/>
      <use xlink:href="#DejaVuSans-Bold-29" transform="translate(489.65332 0.125)"/>
     </g>
    </g>
   </g>
   <g id="patch_3">
    <path d="M 65.88 148.695371 
L 65.88 3.834 
" style="fill: none; stroke: #000000; stroke-width: 1.65; stroke-linejoin: miter; stroke-linecap: square"/>
   </g>
   <g id="patch_4">
    <path d="M 216.306 148.695371 
L 216.306 3.834 
" style="fill: none; stroke: #000000; stroke-width: 1.65; stroke-linejoin: miter; stroke-linecap: square"/>
   </g>
   <g id="patch_5">
    <path d="M 65.88 148.695371 
L 216.306 148.695371 
" style="fill: none; stroke: #000000; stroke-width: 1.65; stroke-linejoin: miter; stroke-linecap: square"/>
   </g>
   <g id="patch_6">
    <path d="M 65.88 3.834 
L 216.306 3.834 
" style="fill: none; stroke: #000000; stroke-width: 1.65; stroke-linejoin: miter; stroke-linecap: square"/>
   </g>
   <g id="text_7">
    <!-- H$_2$ $B\,{}^1\Sigma_u^+$ -->
    <g transform="translate(80.9226 50.120729) scale(0.128 -0.128)">
     <defs>
      <path id="DejaVuSans-32" d="M 1228 531 
L 3431 531 
L 3431 0 
L 469 0 
L 469 531 
Q 828 903 1448 1529 
Q 2069 2156 2228 2338 
Q 2531 2678 2651 2914 
Q 2772 3150 2772 3378 
Q 2772 3750 2511 3984 
Q 2250 4219 1831 4219 
Q 1534 4219 1204 4116 
Q 875 4013 500 3803 
L 500 4441 
Q 881 4594 1212 4672 
Q 1544 4750 1819 4750 
Q 2544 4750 2975 4387 
Q 3406 4025 3406 3419 
Q 3406 3131 3298 2873 
Q 3191 2616 2906 2266 
Q 2828 2175 2409 1742 
Q 1991 1309 1228 531 
z
" transform="scale(0.015625)"/>
      <path id="DejaVuSans-Oblique-42" d="M 1081 4666 
L 2694 4666 
Q 3350 4666 3675 4422 
Q 4000 4178 4000 3688 
Q 4000 3238 3720 2911 
Q 3441 2584 2988 2516 
Q 3375 2428 3569 2181 
Q 3763 1934 3763 1522 
Q 3763 819 3242 409 
Q 2722 0 1819 0 
L 172 0 
L 1081 4666 
z
M 1234 2228 
L 903 519 
L 1919 519 
Q 2491 519 2800 781 
Q 3109 1044 3109 1522 
Q 3109 1891 2904 2059 
Q 2700 2228 2247 2228 
L 1234 2228 
z
M 1606 4147 
L 1331 2741 
L 2272 2741 
Q 2775 2741 3058 2959 
Q 3341 3178 3341 3566 
Q 3341 3869 3150 4008 
Q 2959 4147 2541 4147 
L 1606 4147 
z
" transform="scale(0.015625)"/>
      <path id="DejaVuSans-3a3" d="M 1353 531 
L 3634 531 
L 3634 0 
L 628 0 
L 628 531 
L 2125 2481 
L 628 4134 
L 628 4666 
L 3578 4666 
L 3578 4134 
L 1353 4134 
L 2850 2494 
L 1353 531 
z
" transform="scale(0.015625)"/>
      <path id="DejaVuSans-2b" d="M 2944 4013 
L 2944 2272 
L 4684 2272 
L 4684 1741 
L 2944 1741 
L 2944 0 
L 2419 0 
L 2419 1741 
L 678 1741 
L 678 2272 
L 2419 2272 
L 2419 4013 
L 2944 4013 
z
" transform="scale(0.015625)"/>
      <path id="DejaVuSans-Oblique-75" d="M 428 1388 
L 838 3500 
L 1416 3500 
L 1006 1409 
Q 975 1256 961 1147 
Q 947 1038 947 966 
Q 947 700 1109 554 
Q 1272 409 1569 409 
Q 2031 409 2368 721 
Q 2706 1034 2809 1563 
L 3194 3500 
L 3769 3500 
L 3091 0 
L 2516 0 
L 2631 550 
Q 2388 244 2052 76 
Q 1716 -91 1338 -91 
Q 878 -91 622 161 
Q 366 413 366 863 
Q 366 956 381 1097 
Q 397 1238 428 1388 
z
" transform="scale(0.015625)"/>
     </defs>
     <use xlink:href="#DejaVuSans-Bold-48" transform="translate(0 0.684375)"/>
     <use xlink:href="#DejaVuSans-32" transform="translate(84.648438 -15.721875) scale(0.7)"/>
     <use xlink:href="#DejaVuSans-Bold-20" transform="translate(131.918945 0.684375)"/>
     <use xlink:href="#DejaVuSans-Oblique-42" transform="translate(166.733398 0.684375)"/>
     <use xlink:href="#DejaVuSans-31" transform="translate(252.529622 38.965625) scale(0.7)"/>
     <use xlink:href="#DejaVuSans-3a3" transform="translate(299.800129 0.684375)"/>
     <use xlink:href="#DejaVuSans-2b" transform="translate(377.57845 38.965625) scale(0.7)"/>
     <use xlink:href="#DejaVuSans-Oblique-75" transform="translate(363.940754 -26.659375) scale(0.7)"/>
    </g>
   </g>
   <g id="line2d_23">
    <path d="M 70.13734 14.181242 
L 71.570787 50.214339 
L 73.004235 75.669721 
L 74.437683 93.981229 
L 75.87113 107.324926 
L 77.304578 117.136339 
L 78.738026 124.392499 
L 80.171473 129.775698 
L 81.604921 133.772831 
L 83.038369 136.737153 
L 84.471816 138.927492 
L 85.905264 140.533922 
L 87.338712 141.69537 
L 88.77216 142.512421 
L 90.205607 143.057174 
L 91.639055 143.381153 
L 93.072503 143.521751 
L 94.50595 143.507316 
L 95.939398 143.36087 
L 97.372846 143.102429 
L 98.806293 142.750046 
L 100.239741 142.319905 
L 101.673189 141.825955 
L 103.106636 141.279534 
L 104.540084 140.68928 
L 105.973532 140.061392 
L 107.406979 139.40013 
L 108.840427 138.70841 
L 110.273875 137.988345 
L 111.707322 137.241663 
L 113.14077 136.469986 
L 114.574218 135.674991 
L 116.007666 134.858478 
L 117.441113 134.022397 
L 118.874561 133.168825 
L 120.308009 132.299953 
L 121.741456 131.418045 
L 123.174904 130.525414 
L 124.608352 129.624394 
L 126.041799 128.71731 
L 127.475247 127.806458 
L 128.908695 126.894081 
L 130.342142 125.98235 
L 131.77559 125.073348 
L 133.209038 124.169052 
L 134.642485 123.271322 
L 136.075933 122.381889 
L 137.509381 121.502349 
L 138.942828 120.634157 
L 140.376276 119.778623 
L 141.809724 118.936909 
L 143.243172 118.110032 
L 144.676619 117.298864 
L 146.110067 116.504136 
L 147.543515 115.726444 
L 148.976962 114.96625 
L 150.41041 114.223894 
L 151.843858 113.499598 
L 153.277305 112.793476 
L 154.710753 112.10554 
L 156.144201 111.435711 
L 157.577648 110.783828 
L 159.011096 110.149657 
L 160.444544 109.532901 
L 161.877991 108.933206 
L 163.311439 108.350177 
L 164.744887 107.783378 
L 166.178334 107.232347 
L 167.611782 106.696601 
L 169.04523 106.175642 
L 170.478678 105.668963 
L 171.912125 105.176057 
L 173.345573 104.696417 
L 174.779021 104.229544 
L 176.212468 103.774948 
L 177.645916 103.332152 
L 179.079364 102.900694 
L 180.512811 102.480126 
L 181.946259 102.070021 
L 183.379707 101.669968 
L 184.813154 101.279575 
L 186.246602 100.898467 
L 187.68005 100.52629 
L 189.113497 100.162706 
L 190.546945 99.807395 
L 191.980393 99.460053 
L 193.41384 99.120394 
L 194.847288 98.788144 
L 196.280736 98.463045 
L 197.714184 98.144853 
L 199.147631 97.833334 
L 200.581079 97.528268 
L 202.014527 97.229446 
L 203.447974 96.936669 
L 204.881422 96.649745 
L 206.31487 96.368495 
L 207.748317 96.092745 
L 209.181765 95.822332 
L 210.615213 95.557096 
L 212.04866 95.296888 
" clip-path="url(#p456aa4b5f8)" style="fill: none; stroke-dasharray: 12.22,7.52; stroke-dashoffset: 0; stroke: #111111; stroke-width: 2.35"/>
   </g>
   <g id="line2d_24">
    <path d="M 70.13734 14.181241 
L 71.570787 49.469885 
L 73.004235 74.277391 
L 74.437683 92.132309 
L 75.87113 105.172359 
L 77.304578 114.814462 
L 78.738026 122.026383 
L 80.171473 127.432581 
L 81.604921 131.512387 
L 83.038369 134.613547 
L 84.471816 136.984956 
L 85.905264 138.781112 
L 87.338712 140.114703 
L 88.77216 141.100128 
L 90.205607 141.826485 
L 91.639055 142.320383 
L 93.072503 142.592848 
L 94.50595 142.725917 
L 95.939398 142.737294 
L 97.372846 142.591781 
L 98.806293 142.376613 
L 100.239741 142.081573 
L 101.673189 141.684439 
L 103.106636 141.200857 
L 104.540084 140.670877 
L 105.973532 140.061214 
L 107.406979 139.390557 
L 108.840427 138.690335 
L 110.273875 137.934684 
L 111.707322 137.133989 
L 113.14077 136.304179 
L 114.574218 135.427641 
L 116.007666 134.633614 
L 117.441113 133.635644 
L 118.874561 132.545651 
L 120.308009 131.361379 
L 121.741456 131.153699 
L 123.174904 130.311032 
L 124.608352 129.351855 
L 126.041799 127.714149 
L 127.475247 126.49909 
L 128.908695 126.64331 
L 130.342142 125.775918 
L 131.77559 124.880843 
L 133.209038 123.931481 
L 134.642485 121.833845 
L 136.075933 121.739987 
L 137.509381 121.370914 
L 138.942828 120.576144 
L 140.376276 119.764268 
L 141.809724 118.94678 
L 143.243172 118.12921 
L 144.676619 117.310314 
L 146.110067 116.573859 
L 147.543515 115.817609 
L 148.976962 115.069834 
L 150.41041 114.336586 
L 151.843858 113.612068 
L 153.277305 112.897974 
L 154.710753 112.211249 
L 156.144201 111.533537 
L 157.577648 110.879398 
L 159.011096 110.235926 
L 160.444544 109.608738 
L 161.877991 108.999833 
L 163.311439 108.405274 
L 164.744887 107.828186 
L 166.178334 107.265081 
L 167.611782 106.720559 
L 169.04523 106.192805 
L 170.478678 105.680348 
L 171.912125 105.183759 
L 173.345573 104.701464 
L 174.779021 104.231233 
L 176.212468 103.77529 
L 177.645916 103.331405 
L 179.079364 102.900236 
L 180.512811 102.480167 
L 181.946259 102.0712 
L 183.379707 101.674371 
L 184.813154 101.288623 
L 186.246602 100.911471 
L 187.68005 100.541024 
L 189.113497 100.177113 
L 190.546945 99.822657 
L 191.980393 99.476717 
L 193.41384 99.137266 
L 194.847288 98.805998 
L 196.280736 98.482056 
L 197.714184 98.16542 
L 199.147631 97.854431 
L 200.581079 97.550017 
L 202.014527 97.250517 
L 203.447974 96.956828 
L 204.881422 96.664725 
L 206.31487 96.380617 
L 207.748317 96.102579 
L 209.181765 95.828246 
L 210.615213 95.56056 
L 212.04866 95.296885 
" clip-path="url(#p456aa4b5f8)" style="fill: none; stroke: #d95f02; stroke-width: 2.45; stroke-linecap: square"/>
   </g>
   <g id="legend_1">
    <g id="line2d_25">
     <path d="M 111.722 10.700938 
L 119.882 10.700938 
L 128.042 10.700938 
" style="fill: none; stroke-dasharray: 12.22,7.52; stroke-dashoffset: 0; stroke: #111111; stroke-width: 2.35"/>
    </g>
    <g id="text_8">
     <!-- FCI reference -->
     <g transform="translate(133.482 13.080938) scale(0.068 -0.068)">
      <defs>
       <path id="DejaVuSans-46" d="M 628 4666 
L 3309 4666 
L 3309 4134 
L 1259 4134 
L 1259 2759 
L 3109 2759 
L 3109 2228 
L 1259 2228 
L 1259 0 
L 628 0 
L 628 4666 
z
" transform="scale(0.015625)"/>
       <path id="DejaVuSans-43" d="M 4122 4306 
L 4122 3641 
Q 3803 3938 3442 4084 
Q 3081 4231 2675 4231 
Q 1875 4231 1450 3742 
Q 1025 3253 1025 2328 
Q 1025 1406 1450 917 
Q 1875 428 2675 428 
Q 3081 428 3442 575 
Q 3803 722 4122 1019 
L 4122 359 
Q 3791 134 3420 21 
Q 3050 -91 2638 -91 
Q 1578 -91 968 557 
Q 359 1206 359 2328 
Q 359 3453 968 4101 
Q 1578 4750 2638 4750 
Q 3056 4750 3426 4639 
Q 3797 4528 4122 4306 
z
" transform="scale(0.015625)"/>
       <path id="DejaVuSans-49" d="M 628 4666 
L 1259 4666 
L 1259 0 
L 628 0 
L 628 4666 
z
" transform="scale(0.015625)"/>
       <path id="DejaVuSans-20" transform="scale(0.015625)"/>
       <path id="DejaVuSans-72" d="M 2631 2963 
Q 2534 3019 2420 3045 
Q 2306 3072 2169 3072 
Q 1681 3072 1420 2755 
Q 1159 2438 1159 1844 
L 1159 0 
L 581 0 
L 581 3500 
L 1159 3500 
L 1159 2956 
Q 1341 3275 1631 3429 
Q 1922 3584 2338 3584 
Q 2397 3584 2469 3576 
Q 2541 3569 2628 3553 
L 2631 2963 
z
" transform="scale(0.015625)"/>
       <path id="DejaVuSans-65" d="M 3597 1894 
L 3597 1613 
L 953 1613 
Q 991 1019 1311 708 
Q 1631 397 2203 397 
Q 2534 397 2845 478 
Q 3156 559 3463 722 
L 3463 178 
Q 3153 47 2828 -22 
Q 2503 -91 2169 -91 
Q 1331 -91 842 396 
Q 353 884 353 1716 
Q 353 2575 817 3079 
Q 1281 3584 2069 3584 
Q 2775 3584 3186 3129 
Q 3597 2675 3597 1894 
z
M 3022 2063 
Q 3016 2534 2758 2815 
Q 2500 3097 2075 3097 
Q 1594 3097 1305 2825 
Q 1016 2553 972 2059 
L 3022 2063 
z
" transform="scale(0.015625)"/>
       <path id="DejaVuSans-66" d="M 2375 4863 
L 2375 4384 
L 1825 4384 
Q 1516 4384 1395 4259 
Q 1275 4134 1275 3809 
L 1275 3500 
L 2222 3500 
L 2222 3053 
L 1275 3053 
L 1275 0 
L 697 0 
L 697 3053 
L 147 3053 
L 147 3500 
L 697 3500 
L 697 3744 
Q 697 4328 969 4595 
Q 1241 4863 1831 4863 
L 2375 4863 
z
" transform="scale(0.015625)"/>
       <path id="DejaVuSans-6e" d="M 3513 2113 
L 3513 0 
L 2938 0 
L 2938 2094 
Q 2938 2591 2744 2837 
Q 2550 3084 2163 3084 
Q 1697 3084 1428 2787 
Q 1159 2491 1159 1978 
L 1159 0 
L 581 0 
L 581 3500 
L 1159 3500 
L 1159 2956 
Q 1366 3272 1645 3428 
Q 1925 3584 2291 3584 
Q 2894 3584 3203 3211 
Q 3513 2838 3513 2113 
z
" transform="scale(0.015625)"/>
       <path id="DejaVuSans-63" d="M 3122 3366 
L 3122 2828 
Q 2878 2963 2633 3030 
Q 2388 3097 2138 3097 
Q 1578 3097 1268 2742 
Q 959 2388 959 1747 
Q 959 1106 1268 751 
Q 1578 397 2138 397 
Q 2388 397 2633 464 
Q 2878 531 3122 666 
L 3122 134 
Q 2881 22 2623 -34 
Q 2366 -91 2075 -91 
Q 1284 -91 818 406 
Q 353 903 353 1747 
Q 353 2603 823 3093 
Q 1294 3584 2113 3584 
Q 2378 3584 2631 3529 
Q 2884 3475 3122 3366 
z
" transform="scale(0.015625)"/>
      </defs>
      <use xlink:href="#DejaVuSans-46"/>
      <use xlink:href="#DejaVuSans-43" transform="translate(57.519531 0)"/>
      <use xlink:href="#DejaVuSans-49" transform="translate(127.34375 0)"/>
      <use xlink:href="#DejaVuSans-20" transform="translate(156.835938 0)"/>
      <use xlink:href="#DejaVuSans-72" transform="translate(188.623047 0)"/>
      <use xlink:href="#DejaVuSans-65" transform="translate(227.486328 0)"/>
      <use xlink:href="#DejaVuSans-66" transform="translate(289.009766 0)"/>
      <use xlink:href="#DejaVuSans-65" transform="translate(324.214844 0)"/>
      <use xlink:href="#DejaVuSans-72" transform="translate(385.738281 0)"/>
      <use xlink:href="#DejaVuSans-65" transform="translate(424.601562 0)"/>
      <use xlink:href="#DejaVuSans-6e" transform="translate(486.125 0)"/>
      <use xlink:href="#DejaVuSans-63" transform="translate(549.503906 0)"/>
      <use xlink:href="#DejaVuSans-65" transform="translate(604.484375 0)"/>
     </g>
    </g>
    <g id="line2d_26">
     <path d="M 111.722 19.322063 
L 119.882 19.322063 
L 128.042 19.322063 
" style="fill: none; stroke: #d95f02; stroke-width: 2.45; stroke-linecap: square"/>
    </g>
    <g id="text_9">
     <!-- Neural TDA (35.9 meV) -->
     <g transform="translate(133.482 21.702063) scale(0.068 -0.068)">
      <defs>
       <path id="DejaVuSans-4e" d="M 628 4666 
L 1478 4666 
L 3547 763 
L 3547 4666 
L 4159 4666 
L 4159 0 
L 3309 0 
L 1241 3903 
L 1241 0 
L 628 0 
L 628 4666 
z
" transform="scale(0.015625)"/>
       <path id="DejaVuSans-75" d="M 544 1381 
L 544 3500 
L 1119 3500 
L 1119 1403 
Q 1119 906 1312 657 
Q 1506 409 1894 409 
Q 2359 409 2629 706 
Q 2900 1003 2900 1516 
L 2900 3500 
L 3475 3500 
L 3475 0 
L 2900 0 
L 2900 538 
Q 2691 219 2414 64 
Q 2138 -91 1772 -91 
Q 1169 -91 856 284 
Q 544 659 544 1381 
z
M 1991 3584 
L 1991 3584 
z
" transform="scale(0.015625)"/>
       <path id="DejaVuSans-61" d="M 2194 1759 
Q 1497 1759 1228 1600 
Q 959 1441 959 1056 
Q 959 750 1161 570 
Q 1363 391 1709 391 
Q 2188 391 2477 730 
Q 2766 1069 2766 1631 
L 2766 1759 
L 2194 1759 
z
M 3341 1997 
L 3341 0 
L 2766 0 
L 2766 531 
Q 2569 213 2275 61 
Q 1981 -91 1556 -91 
Q 1019 -91 701 211 
Q 384 513 384 1019 
Q 384 1609 779 1909 
Q 1175 2209 1959 2209 
L 2766 2209 
L 2766 2266 
Q 2766 2663 2505 2880 
Q 2244 3097 1772 3097 
Q 1472 3097 1187 3025 
Q 903 2953 641 2809 
L 641 3341 
Q 956 3463 1253 3523 
Q 1550 3584 1831 3584 
Q 2591 3584 2966 3190 
Q 3341 2797 3341 1997 
z
" transform="scale(0.015625)"/>
       <path id="DejaVuSans-6c" d="M 603 4863 
L 1178 4863 
L 1178 0 
L 603 0 
L 603 4863 
z
" transform="scale(0.015625)"/>
       <path id="DejaVuSans-54" d="M -19 4666 
L 3928 4666 
L 3928 4134 
L 2272 4134 
L 2272 0 
L 1638 0 
L 1638 4134 
L -19 4134 
L -19 4666 
z
" transform="scale(0.015625)"/>
       <path id="DejaVuSans-44" d="M 1259 4147 
L 1259 519 
L 2022 519 
Q 2988 519 3436 956 
Q 3884 1394 3884 2338 
Q 3884 3275 3436 3711 
Q 2988 4147 2022 4147 
L 1259 4147 
z
M 628 4666 
L 1925 4666 
Q 3281 4666 3915 4102 
Q 4550 3538 4550 2338 
Q 4550 1131 3912 565 
Q 3275 0 1925 0 
L 628 0 
L 628 4666 
z
" transform="scale(0.015625)"/>
       <path id="DejaVuSans-41" d="M 2188 4044 
L 1331 1722 
L 3047 1722 
L 2188 4044 
z
M 1831 4666 
L 2547 4666 
L 4325 0 
L 3669 0 
L 3244 1197 
L 1141 1197 
L 716 0 
L 50 0 
L 1831 4666 
z
" transform="scale(0.015625)"/>
       <path id="DejaVuSans-33" d="M 2597 2516 
Q 3050 2419 3304 2112 
Q 3559 1806 3559 1356 
Q 3559 666 3084 287 
Q 2609 -91 1734 -91 
Q 1441 -91 1130 -33 
Q 819 25 488 141 
L 488 750 
Q 750 597 1062 519 
Q 1375 441 1716 441 
Q 2309 441 2620 675 
Q 2931 909 2931 1356 
Q 2931 1769 2642 2001 
Q 2353 2234 1838 2234 
L 1294 2234 
L 1294 2753 
L 1863 2753 
Q 2328 2753 2575 2939 
Q 2822 3125 2822 3475 
Q 2822 3834 2567 4026 
Q 2313 4219 1838 4219 
Q 1578 4219 1281 4162 
Q 984 4106 628 3988 
L 628 4550 
Q 988 4650 1302 4700 
Q 1616 4750 1894 4750 
Q 2613 4750 3031 4423 
Q 3450 4097 3450 3541 
Q 3450 3153 3228 2886 
Q 3006 2619 2597 2516 
z
" transform="scale(0.015625)"/>
       <path id="DejaVuSans-35" d="M 691 4666 
L 3169 4666 
L 3169 4134 
L 1269 4134 
L 1269 2991 
Q 1406 3038 1543 3061 
Q 1681 3084 1819 3084 
Q 2600 3084 3056 2656 
Q 3513 2228 3513 1497 
Q 3513 744 3044 326 
Q 2575 -91 1722 -91 
Q 1428 -91 1123 -41 
Q 819 9 494 109 
L 494 744 
Q 775 591 1075 516 
Q 1375 441 1709 441 
Q 2250 441 2565 725 
Q 2881 1009 2881 1497 
Q 2881 1984 2565 2268 
Q 2250 2553 1709 2553 
Q 1456 2553 1204 2497 
Q 953 2441 691 2322 
L 691 4666 
z
" transform="scale(0.015625)"/>
       <path id="DejaVuSans-2e" d="M 684 794 
L 1344 794 
L 1344 0 
L 684 0 
L 684 794 
z
" transform="scale(0.015625)"/>
       <path id="DejaVuSans-39" d="M 703 97 
L 703 672 
Q 941 559 1184 500 
Q 1428 441 1663 441 
Q 2288 441 2617 861 
Q 2947 1281 2994 2138 
Q 2813 1869 2534 1725 
Q 2256 1581 1919 1581 
Q 1219 1581 811 2004 
Q 403 2428 403 3163 
Q 403 3881 828 4315 
Q 1253 4750 1959 4750 
Q 2769 4750 3195 4129 
Q 3622 3509 3622 2328 
Q 3622 1225 3098 567 
Q 2575 -91 1691 -91 
Q 1453 -91 1209 -44 
Q 966 3 703 97 
z
M 1959 2075 
Q 2384 2075 2632 2365 
Q 2881 2656 2881 3163 
Q 2881 3666 2632 3958 
Q 2384 4250 1959 4250 
Q 1534 4250 1286 3958 
Q 1038 3666 1038 3163 
Q 1038 2656 1286 2365 
Q 1534 2075 1959 2075 
z
" transform="scale(0.015625)"/>
       <path id="DejaVuSans-6d" d="M 3328 2828 
Q 3544 3216 3844 3400 
Q 4144 3584 4550 3584 
Q 5097 3584 5394 3201 
Q 5691 2819 5691 2113 
L 5691 0 
L 5113 0 
L 5113 2094 
Q 5113 2597 4934 2840 
Q 4756 3084 4391 3084 
Q 3944 3084 3684 2787 
Q 3425 2491 3425 1978 
L 3425 0 
L 2847 0 
L 2847 2094 
Q 2847 2600 2669 2842 
Q 2491 3084 2119 3084 
Q 1678 3084 1418 2786 
Q 1159 2488 1159 1978 
L 1159 0 
L 581 0 
L 581 3500 
L 1159 3500 
L 1159 2956 
Q 1356 3278 1631 3431 
Q 1906 3584 2284 3584 
Q 2666 3584 2933 3390 
Q 3200 3197 3328 2828 
z
" transform="scale(0.015625)"/>
       <path id="DejaVuSans-56" d="M 1831 0 
L 50 4666 
L 709 4666 
L 2188 738 
L 3669 4666 
L 4325 4666 
L 2547 0 
L 1831 0 
z
" transform="scale(0.015625)"/>
      </defs>
      <use xlink:href="#DejaVuSans-4e"/>
      <use xlink:href="#DejaVuSans-65" transform="translate(74.804688 0)"/>
      <use xlink:href="#DejaVuSans-75" transform="translate(136.328125 0)"/>
      <use xlink:href="#DejaVuSans-72" transform="translate(199.707031 0)"/>
      <use xlink:href="#DejaVuSans-61" transform="translate(240.820312 0)"/>
      <use xlink:href="#DejaVuSans-6c" transform="translate(302.099609 0)"/>
      <use xlink:href="#DejaVuSans-20" transform="translate(329.882812 0)"/>
      <use xlink:href="#DejaVuSans-54" transform="translate(361.669922 0)"/>
      <use xlink:href="#DejaVuSans-44" transform="translate(422.753906 0)"/>
      <use xlink:href="#DejaVuSans-41" transform="translate(498.005859 0)"/>
      <use xlink:href="#DejaVuSans-20" transform="translate(566.414062 0)"/>
      <use xlink:href="#DejaVuSans-28" transform="translate(598.201172 0)"/>
      <use xlink:href="#DejaVuSans-33" transform="translate(637.214844 0)"/>
      <use xlink:href="#DejaVuSans-35" transform="translate(700.837891 0)"/>
      <use xlink:href="#DejaVuSans-2e" transform="translate(764.460938 0)"/>
      <use xlink:href="#DejaVuSans-39" transform="translate(796.248047 0)"/>
      <use xlink:href="#DejaVuSans-20" transform="translate(859.871094 0)"/>
      <use xlink:href="#DejaVuSans-6d" transform="translate(891.658203 0)"/>
      <use xlink:href="#DejaVuSans-65" transform="translate(989.070312 0)"/>
      <use xlink:href="#DejaVuSans-56" transform="translate(1050.59375 0)"/>
      <use xlink:href="#DejaVuSans-29" transform="translate(1119.001953 0)"/>
     </g>
    </g>
    <g id="PathCollection_1">
     <defs>
      <path id="ma20aad9425" d="M -0 4.301163 
L 4.301163 0 
L 0 -4.301163 
L -4.301163 -0 
z
" style="stroke: #ffffff; stroke-width: 0.9"/>
     </defs>
     <g>
      <use xlink:href="#ma20aad9425" x="119.882" y="28.538188" style="fill: #b2182b; stroke: #ffffff; stroke-width: 0.9"/>
     </g>
    </g>
    <g id="text_10">
     <!-- Training points -->
     <g transform="translate(133.482 30.323188) scale(0.068 -0.068)">
      <defs>
       <path id="DejaVuSans-69" d="M 603 3500 
L 1178 3500 
L 1178 0 
L 603 0 
L 603 3500 
z
M 603 4863 
L 1178 4863 
L 1178 4134 
L 603 4134 
L 603 4863 
z
" transform="scale(0.015625)"/>
       <path id="DejaVuSans-67" d="M 2906 1791 
Q 2906 2416 2648 2759 
Q 2391 3103 1925 3103 
Q 1463 3103 1205 2759 
Q 947 2416 947 1791 
Q 947 1169 1205 825 
Q 1463 481 1925 481 
Q 2391 481 2648 825 
Q 2906 1169 2906 1791 
z
M 3481 434 
Q 3481 -459 3084 -895 
Q 2688 -1331 1869 -1331 
Q 1566 -1331 1297 -1286 
Q 1028 -1241 775 -1147 
L 775 -588 
Q 1028 -725 1275 -790 
Q 1522 -856 1778 -856 
Q 2344 -856 2625 -561 
Q 2906 -266 2906 331 
L 2906 616 
Q 2728 306 2450 153 
Q 2172 0 1784 0 
Q 1141 0 747 490 
Q 353 981 353 1791 
Q 353 2603 747 3093 
Q 1141 3584 1784 3584 
Q 2172 3584 2450 3431 
Q 2728 3278 2906 2969 
L 2906 3500 
L 3481 3500 
L 3481 434 
z
" transform="scale(0.015625)"/>
       <path id="DejaVuSans-70" d="M 1159 525 
L 1159 -1331 
L 581 -1331 
L 581 3500 
L 1159 3500 
L 1159 2969 
Q 1341 3281 1617 3432 
Q 1894 3584 2278 3584 
Q 2916 3584 3314 3078 
Q 3713 2572 3713 1747 
Q 3713 922 3314 415 
Q 2916 -91 2278 -91 
Q 1894 -91 1617 61 
Q 1341 213 1159 525 
z
M 3116 1747 
Q 3116 2381 2855 2742 
Q 2594 3103 2138 3103 
Q 1681 3103 1420 2742 
Q 1159 2381 1159 1747 
Q 1159 1113 1420 752 
Q 1681 391 2138 391 
Q 2594 391 2855 752 
Q 3116 1113 3116 1747 
z
" transform="scale(0.015625)"/>
       <path id="DejaVuSans-6f" d="M 1959 3097 
Q 1497 3097 1228 2736 
Q 959 2375 959 1747 
Q 959 1119 1226 758 
Q 1494 397 1959 397 
Q 2419 397 2687 759 
Q 2956 1122 2956 1747 
Q 2956 2369 2687 2733 
Q 2419 3097 1959 3097 
z
M 1959 3584 
Q 2709 3584 3137 3096 
Q 3566 2609 3566 1747 
Q 3566 888 3137 398 
Q 2709 -91 1959 -91 
Q 1206 -91 779 398 
Q 353 888 353 1747 
Q 353 2609 779 3096 
Q 1206 3584 1959 3584 
z
" transform="scale(0.015625)"/>
       <path id="DejaVuSans-74" d="M 1172 4494 
L 1172 3500 
L 2356 3500 
L 2356 3053 
L 1172 3053 
L 1172 1153 
Q 1172 725 1289 603 
Q 1406 481 1766 481 
L 2356 481 
L 2356 0 
L 1766 0 
Q 1100 0 847 248 
Q 594 497 594 1153 
L 594 3053 
L 172 3053 
L 172 3500 
L 594 3500 
L 594 4494 
L 1172 4494 
z
" transform="scale(0.015625)"/>
       <path id="DejaVuSans-73" d="M 2834 3397 
L 2834 2853 
Q 2591 2978 2328 3040 
Q 2066 3103 1784 3103 
Q 1356 3103 1142 2972 
Q 928 2841 928 2578 
Q 928 2378 1081 2264 
Q 1234 2150 1697 2047 
L 1894 2003 
Q 2506 1872 2764 1633 
Q 3022 1394 3022 966 
Q 3022 478 2636 193 
Q 2250 -91 1575 -91 
Q 1294 -91 989 -36 
Q 684 19 347 128 
L 347 722 
Q 666 556 975 473 
Q 1284 391 1588 391 
Q 1994 391 2212 530 
Q 2431 669 2431 922 
Q 2431 1156 2273 1281 
Q 2116 1406 1581 1522 
L 1381 1569 
Q 847 1681 609 1914 
Q 372 2147 372 2553 
Q 372 3047 722 3315 
Q 1072 3584 1716 3584 
Q 2034 3584 2315 3537 
Q 2597 3491 2834 3397 
z
" transform="scale(0.015625)"/>
      </defs>
      <use xlink:href="#DejaVuSans-54"/>
      <use xlink:href="#DejaVuSans-72" transform="translate(46.333984 0)"/>
      <use xlink:href="#DejaVuSans-61" transform="translate(87.447266 0)"/>
      <use xlink:href="#DejaVuSans-69" transform="translate(148.726562 0)"/>
      <use xlink:href="#DejaVuSans-6e" transform="translate(176.509766 0)"/>
      <use xlink:href="#DejaVuSans-69" transform="translate(239.888672 0)"/>
      <use xlink:href="#DejaVuSans-6e" transform="translate(267.671875 0)"/>
      <use xlink:href="#DejaVuSans-67" transform="translate(331.050781 0)"/>
      <use xlink:href="#DejaVuSans-20" transform="translate(394.527344 0)"/>
      <use xlink:href="#DejaVuSans-70" transform="translate(426.314453 0)"/>
      <use xlink:href="#DejaVuSans-6f" transform="translate(489.791016 0)"/>
      <use xlink:href="#DejaVuSans-69" transform="translate(550.972656 0)"/>
      <use xlink:href="#DejaVuSans-6e" transform="translate(578.755859 0)"/>
      <use xlink:href="#DejaVuSans-74" transform="translate(642.134766 0)"/>
      <use xlink:href="#DejaVuSans-73" transform="translate(681.34375 0)"/>
     </g>
    </g>
   </g>
   <g id="PathCollection_2">
    <g clip-path="url(#p456aa4b5f8)">
     <use xlink:href="#ma20aad9425" x="70.13734" y="14.181242" style="fill: #b2182b; stroke: #ffffff; stroke-width: 0.9"/>
     <use xlink:href="#ma20aad9425" x="105.61517" y="140.218364" style="fill: #b2182b; stroke: #ffffff; stroke-width: 0.9"/>
     <use xlink:href="#ma20aad9425" x="141.093" y="119.357766" style="fill: #b2182b; stroke: #ffffff; stroke-width: 0.9"/>
     <use xlink:href="#ma20aad9425" x="176.57083" y="103.664249" style="fill: #b2182b; stroke: #ffffff; stroke-width: 0.9"/>
     <use xlink:href="#ma20aad9425" x="212.04866" y="95.296888" style="fill: #b2182b; stroke: #ffffff; stroke-width: 0.9"/>
    </g>
   </g>
  </g>
  <g id="axes_2">
   <g id="patch_7">
    <path d="M 65.88 215.982 
L 216.306 215.982 
L 216.306 156.85491 
L 65.88 156.85491 
z
" style="fill: #ffffff"/>
   </g>
   <g id="patch_8">
    <path d="M 65.88 191.470763 
L 216.306 191.470763 
L 216.306 181.366147 
L 65.88 181.366147 
z
" clip-path="url(#pf35892e0e8)" style="fill: #dbdbdb; opacity: 0.78; stroke: #dbdbdb; stroke-linejoin: miter"/>
   </g>
   <g id="matplotlib.axis_3">
    <g id="xtick_7">
     <g id="line2d_27">
      <g>
       <use xlink:href="#m32834f07c0" x="85.342124" y="215.982" style="stroke: #000000; stroke-width: 1.65"/>
      </g>
     </g>
     <g id="line2d_28">
      <g>
       <use xlink:href="#m051533752e" x="85.342124" y="156.85491" style="stroke: #000000; stroke-width: 1.65"/>
      </g>
     </g>
     <g id="text_11">
      <!-- 1 -->
      <g transform="translate(81.689272 227.460359) scale(0.105 -0.105)">
       <defs>
        <path id="DejaVuSans-Bold-31" d="M 750 831 
L 1813 831 
L 1813 3847 
L 722 3622 
L 722 4441 
L 1806 4666 
L 2950 4666 
L 2950 831 
L 4013 831 
L 4013 0 
L 750 0 
L 750 831 
z
" transform="scale(0.015625)"/>
       </defs>
       <use xlink:href="#DejaVuSans-Bold-31"/>
      </g>
     </g>
    </g>
    <g id="xtick_8">
     <g id="line2d_29">
      <g>
       <use xlink:href="#m32834f07c0" x="110.683431" y="215.982" style="stroke: #000000; stroke-width: 1.65"/>
      </g>
     </g>
     <g id="line2d_30">
      <g>
       <use xlink:href="#m051533752e" x="110.683431" y="156.85491" style="stroke: #000000; stroke-width: 1.65"/>
      </g>
     </g>
     <g id="text_12">
      <!-- 2 -->
      <g transform="translate(107.03058 227.460359) scale(0.105 -0.105)">
       <defs>
        <path id="DejaVuSans-Bold-32" d="M 1844 884 
L 3897 884 
L 3897 0 
L 506 0 
L 506 884 
L 2209 2388 
Q 2438 2594 2547 2791 
Q 2656 2988 2656 3200 
Q 2656 3528 2436 3728 
Q 2216 3928 1850 3928 
Q 1569 3928 1234 3808 
Q 900 3688 519 3450 
L 519 4475 
Q 925 4609 1322 4679 
Q 1719 4750 2100 4750 
Q 2938 4750 3402 4381 
Q 3866 4013 3866 3353 
Q 3866 2972 3669 2642 
Q 3472 2313 2841 1759 
L 1844 884 
z
" transform="scale(0.015625)"/>
       </defs>
       <use xlink:href="#DejaVuSans-Bold-32"/>
      </g>
     </g>
    </g>
    <g id="xtick_9">
     <g id="line2d_31">
      <g>
       <use xlink:href="#m32834f07c0" x="136.024739" y="215.982" style="stroke: #000000; stroke-width: 1.65"/>
      </g>
     </g>
     <g id="line2d_32">
      <g>
       <use xlink:href="#m051533752e" x="136.024739" y="156.85491" style="stroke: #000000; stroke-width: 1.65"/>
      </g>
     </g>
     <g id="text_13">
      <!-- 3 -->
      <g transform="translate(132.371887 227.460359) scale(0.105 -0.105)">
       <use xlink:href="#DejaVuSans-Bold-33"/>
      </g>
     </g>
    </g>
    <g id="xtick_10">
     <g id="line2d_33">
      <g>
       <use xlink:href="#m32834f07c0" x="161.366046" y="215.982" style="stroke: #000000; stroke-width: 1.65"/>
      </g>
     </g>
     <g id="line2d_34">
      <g>
       <use xlink:href="#m051533752e" x="161.366046" y="156.85491" style="stroke: #000000; stroke-width: 1.65"/>
      </g>
     </g>
     <g id="text_14">
      <!-- 4 -->
      <g transform="translate(157.713194 227.460359) scale(0.105 -0.105)">
       <use xlink:href="#DejaVuSans-Bold-34"/>
      </g>
     </g>
    </g>
    <g id="xtick_11">
     <g id="line2d_35">
      <g>
       <use xlink:href="#m32834f07c0" x="186.707353" y="215.982" style="stroke: #000000; stroke-width: 1.65"/>
      </g>
     </g>
     <g id="line2d_36">
      <g>
       <use xlink:href="#m051533752e" x="186.707353" y="156.85491" style="stroke: #000000; stroke-width: 1.65"/>
      </g>
     </g>
     <g id="text_15">
      <!-- 5 -->
      <g transform="translate(183.054502 227.460359) scale(0.105 -0.105)">
       <use xlink:href="#DejaVuSans-Bold-35"/>
      </g>
     </g>
    </g>
    <g id="xtick_12">
     <g id="line2d_37">
      <g>
       <use xlink:href="#m32834f07c0" x="212.04866" y="215.982" style="stroke: #000000; stroke-width: 1.65"/>
      </g>
     </g>
     <g id="line2d_38">
      <g>
       <use xlink:href="#m051533752e" x="212.04866" y="156.85491" style="stroke: #000000; stroke-width: 1.65"/>
      </g>
     </g>
     <g id="text_16">
      <!-- 6 -->
      <g transform="translate(208.395809 227.460359) scale(0.105 -0.105)">
       <use xlink:href="#DejaVuSans-Bold-36"/>
      </g>
     </g>
    </g>
    <g id="text_17">
     <!-- $R$ ($\AA$) -->
     <g transform="translate(123.868 245.850437) scale(0.13 -0.13)">
      <defs>
       <path id="DejaVuSans-Oblique-c5" d="M 3188 5081 
Q 3188 5278 3048 5417 
Q 2909 5556 2713 5556 
Q 2513 5556 2377 5420 
Q 2241 5284 2241 5081 
Q 2241 4884 2377 4746 
Q 2513 4609 2713 4609 
Q 2909 4609 3048 4746 
Q 3188 4884 3188 5081 
z
M 2203 4397 
Q 2034 4513 1945 4689 
Q 1856 4866 1856 5081 
Q 1856 5438 2106 5689 
Q 2356 5941 2713 5941 
Q 3069 5941 3320 5689 
Q 3572 5438 3572 5081 
Q 3572 4834 3458 4643 
Q 3344 4453 3128 4341 
L 3938 0 
L 3278 0 
L 3084 1197 
L 984 1197 
L 325 0 
L -341 0 
L 2203 4397 
z
M 2584 4044 
L 1275 1722 
L 2988 1722 
L 2584 4044 
z
" transform="scale(0.015625)"/>
      </defs>
      <use xlink:href="#DejaVuSans-Oblique-52" transform="translate(0 0.171875)"/>
      <use xlink:href="#DejaVuSans-Bold-20" transform="translate(69.482422 0.171875)"/>
      <use xlink:href="#DejaVuSans-Bold-28" transform="translate(104.296875 0.171875)"/>
      <use xlink:href="#DejaVuSans-Oblique-c5" transform="translate(150 0.171875)"/>
      <use xlink:href="#DejaVuSans-Bold-29" transform="translate(218.408203 0.171875)"/>
     </g>
    </g>
   </g>
   <g id="matplotlib.axis_4">
    <g id="ytick_6">
     <g id="line2d_39">
      <g>
       <use xlink:href="#m7722d8b698" x="65.88" y="215.545695" style="stroke: #000000; stroke-width: 1.65"/>
      </g>
     </g>
     <g id="line2d_40">
      <g>
       <use xlink:href="#m0cee27291a" x="216.306" y="215.545695" style="stroke: #000000; stroke-width: 1.65"/>
      </g>
     </g>
     <g id="text_18">
      <!-- −250 -->
      <g transform="translate(31.664219 219.534875) scale(0.105 -0.105)">
       <use xlink:href="#DejaVuSans-Bold-2212"/>
       <use xlink:href="#DejaVuSans-Bold-32" transform="translate(83.789062 0)"/>
       <use xlink:href="#DejaVuSans-Bold-35" transform="translate(153.369141 0)"/>
       <use xlink:href="#DejaVuSans-Bold-30" transform="translate(222.949219 0)"/>
      </g>
     </g>
    </g>
    <g id="ytick_7">
     <g id="line2d_41">
      <g>
       <use xlink:href="#m7722d8b698" x="65.88" y="186.418455" style="stroke: #000000; stroke-width: 1.65"/>
      </g>
     </g>
     <g id="line2d_42">
      <g>
       <use xlink:href="#m0cee27291a" x="216.306" y="186.418455" style="stroke: #000000; stroke-width: 1.65"/>
      </g>
     </g>
     <g id="text_19">
      <!-- 0 -->
      <g transform="translate(55.074297 190.407635) scale(0.105 -0.105)">
       <use xlink:href="#DejaVuSans-Bold-30"/>
      </g>
     </g>
    </g>
    <g id="ytick_8">
     <g id="line2d_43">
      <g>
       <use xlink:href="#m7722d8b698" x="65.88" y="157.291215" style="stroke: #000000; stroke-width: 1.65"/>
      </g>
     </g>
     <g id="line2d_44">
      <g>
       <use xlink:href="#m0cee27291a" x="216.306" y="157.291215" style="stroke: #000000; stroke-width: 1.65"/>
      </g>
     </g>
     <g id="text_20">
      <!-- 250 -->
      <g transform="translate(40.462891 161.280394) scale(0.105 -0.105)">
       <use xlink:href="#DejaVuSans-Bold-32"/>
       <use xlink:href="#DejaVuSans-Bold-35" transform="translate(69.580078 0)"/>
       <use xlink:href="#DejaVuSans-Bold-30" transform="translate(139.160156 0)"/>
      </g>
     </g>
    </g>
    <g id="text_21">
     <!-- $\Delta E_1$ (meV) -->
     <g transform="translate(27.168594 219.718455) rotate(-90) scale(0.12 -0.12)">
      <defs>
       <path id="DejaVuSans-394" d="M 2188 4044 
L 906 525 
L 3472 525 
L 2188 4044 
z
M 50 0 
L 1831 4666 
L 2547 4666 
L 4325 0 
L 50 0 
z
" transform="scale(0.015625)"/>
       <path id="DejaVuSans-Bold-6d" d="M 3781 2919 
Q 3994 3244 4286 3414 
Q 4578 3584 4928 3584 
Q 5531 3584 5847 3212 
Q 6163 2841 6163 2131 
L 6163 0 
L 5038 0 
L 5038 1825 
Q 5041 1866 5042 1909 
Q 5044 1953 5044 2034 
Q 5044 2406 4934 2573 
Q 4825 2741 4581 2741 
Q 4263 2741 4089 2478 
Q 3916 2216 3909 1719 
L 3909 0 
L 2784 0 
L 2784 1825 
Q 2784 2406 2684 2573 
Q 2584 2741 2328 2741 
Q 2006 2741 1831 2477 
Q 1656 2213 1656 1722 
L 1656 0 
L 531 0 
L 531 3500 
L 1656 3500 
L 1656 2988 
Q 1863 3284 2130 3434 
Q 2397 3584 2719 3584 
Q 3081 3584 3359 3409 
Q 3638 3234 3781 2919 
z
" transform="scale(0.015625)"/>
       <path id="DejaVuSans-Bold-65" d="M 4031 1759 
L 4031 1441 
L 1416 1441 
Q 1456 1047 1700 850 
Q 1944 653 2381 653 
Q 2734 653 3104 758 
Q 3475 863 3866 1075 
L 3866 213 
Q 3469 63 3072 -14 
Q 2675 -91 2278 -91 
Q 1328 -91 801 392 
Q 275 875 275 1747 
Q 275 2603 792 3093 
Q 1309 3584 2216 3584 
Q 3041 3584 3536 3087 
Q 4031 2591 4031 1759 
z
M 2881 2131 
Q 2881 2450 2695 2645 
Q 2509 2841 2209 2841 
Q 1884 2841 1681 2658 
Q 1478 2475 1428 2131 
L 2881 2131 
z
" transform="scale(0.015625)"/>
       <path id="DejaVuSans-Bold-56" d="M 31 4666 
L 1241 4666 
L 2478 1222 
L 3713 4666 
L 4922 4666 
L 3194 0 
L 1759 0 
L 31 4666 
z
" transform="scale(0.015625)"/>
      </defs>
      <use xlink:href="#DejaVuSans-394" transform="translate(0 0.125)"/>
      <use xlink:href="#DejaVuSans-Oblique-45" transform="translate(68.408203 0.125)"/>
      <use xlink:href="#DejaVuSans-31" transform="translate(131.591797 -16.28125) scale(0.7)"/>
      <use xlink:href="#DejaVuSans-Bold-20" transform="translate(178.862305 0.125)"/>
      <use xlink:href="#DejaVuSans-Bold-28" transform="translate(213.676758 0.125)"/>
      <use xlink:href="#DejaVuSans-Bold-6d" transform="translate(259.379883 0.125)"/>
      <use xlink:href="#DejaVuSans-Bold-65" transform="translate(363.579102 0.125)"/>
      <use xlink:href="#DejaVuSans-Bold-56" transform="translate(431.401367 0.125)"/>
      <use xlink:href="#DejaVuSans-Bold-29" transform="translate(508.793945 0.125)"/>
     </g>
    </g>
   </g>
   <g id="line2d_45">
    <path d="M 65.88 186.418455 
L 216.306 186.418455 
" clip-path="url(#pf35892e0e8)" style="fill: none; stroke: #404040; stroke-width: 1.15; stroke-linecap: square"/>
   </g>
   <g id="patch_9">
    <path d="M 65.88 215.982 
L 65.88 156.85491 
" style="fill: none; stroke: #000000; stroke-width: 1.65; stroke-linejoin: miter; stroke-linecap: square"/>
   </g>
   <g id="patch_10">
    <path d="M 216.306 215.982 
L 216.306 156.85491 
" style="fill: none; stroke: #000000; stroke-width: 1.65; stroke-linejoin: miter; stroke-linecap: square"/>
   </g>
   <g id="patch_11">
    <path d="M 65.88 215.982 
L 216.306 215.982 
" style="fill: none; stroke: #000000; stroke-width: 1.65; stroke-linejoin: miter; stroke-linecap: square"/>
   </g>
   <g id="patch_12">
    <path d="M 65.88 156.85491 
L 216.306 156.85491 
" style="fill: none; stroke: #000000; stroke-width: 1.65; stroke-linejoin: miter; stroke-linecap: square"/>
   </g>
   <g id="line2d_46">
    <path d="M 70.13734 186.418446 
L 71.570787 178.794185 
L 73.004235 172.159003 
L 74.437683 167.482867 
L 75.87113 164.373082 
L 77.304578 162.639112 
L 78.738026 162.186041 
L 80.171473 162.421582 
L 81.604921 163.268281 
L 83.038369 164.669686 
L 84.471816 166.524101 
L 85.905264 168.467171 
L 87.338712 170.230164 
L 88.77216 171.954553 
L 90.205607 173.814439 
L 91.639055 175.554654 
L 93.072503 176.905155 
L 94.50595 178.415816 
L 95.939398 180.03215 
L 97.372846 181.188686 
L 98.806293 182.593962 
L 100.239741 183.977597 
L 101.673189 184.969128 
L 103.106636 185.612698 
L 104.540084 186.229974 
L 105.973532 186.416627 
L 107.406979 186.320415 
L 108.840427 186.233339 
L 110.273875 185.868895 
L 111.707322 185.315722 
L 113.14077 184.720355 
L 114.574218 183.885238 
L 116.007666 184.11552 
L 117.441113 182.457555 
L 118.874561 180.036259 
L 120.308009 176.806109 
L 121.741456 183.711178 
L 123.174904 184.222873 
L 124.608352 183.627262 
L 126.041799 176.144654 
L 127.475247 173.029136 
L 128.908695 183.850206 
L 130.342142 184.304292 
L 131.77559 184.44692 
L 133.209038 183.985386 
L 134.642485 171.696633 
L 136.075933 179.844468 
L 137.509381 185.072374 
L 138.942828 185.824318 
L 140.376276 186.271434 
L 141.809724 186.519546 
L 143.243172 186.614868 
L 144.676619 186.535718 
L 146.110067 187.132513 
L 147.543515 187.352123 
L 148.976962 187.479303 
L 150.41041 187.572586 
L 151.843858 187.570302 
L 153.277305 187.488662 
L 154.710753 187.501068 
L 156.144201 187.420332 
L 157.577648 187.397221 
L 159.011096 187.301971 
L 160.444544 187.195134 
L 161.877991 187.100813 
L 163.311439 186.982736 
L 164.744887 186.877355 
L 166.178334 186.753693 
L 167.611782 186.663814 
L 169.04523 186.594232 
L 170.478678 186.535052 
L 171.912125 186.497337 
L 173.345573 186.470142 
L 174.779021 186.435751 
L 176.212468 186.421959 
L 177.645916 186.410798 
L 179.079364 186.413763 
L 180.512811 186.418874 
L 181.946259 186.430528 
L 183.379707 186.463546 
L 184.813154 186.511123 
L 186.246602 186.551639 
L 187.68005 186.56936 
L 189.113497 186.566009 
L 190.546945 186.574759 
L 191.980393 186.589118 
L 193.41384 186.591248 
L 194.847288 186.601302 
L 196.280736 186.613153 
L 197.714184 186.629097 
L 199.147631 186.634521 
L 200.581079 186.641188 
L 202.014527 186.634247 
L 203.447974 186.624921 
L 204.881422 186.571866 
L 206.31487 186.542603 
L 207.748317 186.519169 
L 209.181765 186.479028 
L 210.615213 186.45393 
L 212.04866 186.41842 
" clip-path="url(#pf35892e0e8)" style="fill: none; stroke: #d95f02; stroke-width: 2.05; stroke-linecap: square"/>
   </g>
   <g id="text_22">
    <!-- $\pm 1$ kcal mol$^{-1}$ -->
    <g style="fill: #595959" transform="translate(143.5107 185.153856) scale(0.086 -0.086)">
     <defs>
      <path id="DejaVuSans-b1" d="M 2944 4013 
L 2944 2803 
L 4684 2803 
L 4684 2272 
L 2944 2272 
L 2944 1063 
L 2419 1063 
L 2419 2272 
L 678 2272 
L 678 2803 
L 2419 2803 
L 2419 4013 
L 2944 4013 
z
M 678 531 
L 4684 531 
L 4684 0 
L 678 0 
L 678 531 
z
" transform="scale(0.015625)"/>
      <path id="DejaVuSans-Bold-6b" d="M 538 4863 
L 1656 4863 
L 1656 2216 
L 2944 3500 
L 4244 3500 
L 2534 1894 
L 4378 0 
L 3022 0 
L 1656 1459 
L 1656 0 
L 538 0 
L 538 4863 
z
" transform="scale(0.015625)"/>
      <path id="DejaVuSans-Bold-63" d="M 3366 3391 
L 3366 2478 
Q 3138 2634 2908 2709 
Q 2678 2784 2431 2784 
Q 1963 2784 1702 2511 
Q 1441 2238 1441 1747 
Q 1441 1256 1702 982 
Q 1963 709 2431 709 
Q 2694 709 2930 787 
Q 3166 866 3366 1019 
L 3366 103 
Q 3103 6 2833 -42 
Q 2563 -91 2291 -91 
Q 1344 -91 809 395 
Q 275 881 275 1747 
Q 275 2613 809 3098 
Q 1344 3584 2291 3584 
Q 2566 3584 2833 3536 
Q 3100 3488 3366 3391 
z
" transform="scale(0.015625)"/>
      <path id="DejaVuSans-Bold-6c" d="M 538 4863 
L 1656 4863 
L 1656 0 
L 538 0 
L 538 4863 
z
" transform="scale(0.015625)"/>
      <path id="DejaVuSans-Bold-6f" d="M 2203 2784 
Q 1831 2784 1636 2517 
Q 1441 2250 1441 1747 
Q 1441 1244 1636 976 
Q 1831 709 2203 709 
Q 2569 709 2762 976 
Q 2956 1244 2956 1747 
Q 2956 2250 2762 2517 
Q 2569 2784 2203 2784 
z
M 2203 3584 
Q 3106 3584 3614 3096 
Q 4122 2609 4122 1747 
Q 4122 884 3614 396 
Q 3106 -91 2203 -91 
Q 1297 -91 786 396 
Q 275 884 275 1747 
Q 275 2609 786 3096 
Q 1297 3584 2203 3584 
z
" transform="scale(0.015625)"/>
      <path id="DejaVuSans-2212" d="M 678 2272 
L 4684 2272 
L 4684 1741 
L 678 1741 
L 678 2272 
z
" transform="scale(0.015625)"/>
     </defs>
     <use xlink:href="#DejaVuSans-b1" transform="translate(0 0.684375)"/>
     <use xlink:href="#DejaVuSans-31" transform="translate(83.789062 0.684375)"/>
     <use xlink:href="#DejaVuSans-Bold-20" transform="translate(147.412109 0.684375)"/>
     <use xlink:href="#DejaVuSans-Bold-6b" transform="translate(182.226562 0.684375)"/>
     <use xlink:href="#DejaVuSans-Bold-63" transform="translate(248.730469 0.684375)"/>
     <use xlink:href="#DejaVuSans-Bold-61" transform="translate(308.007812 0.684375)"/>
     <use xlink:href="#DejaVuSans-Bold-6c" transform="translate(375.488281 0.684375)"/>
     <use xlink:href="#DejaVuSans-Bold-20" transform="translate(409.765625 0.684375)"/>
     <use xlink:href="#DejaVuSans-Bold-6d" transform="translate(444.580078 0.684375)"/>
     <use xlink:href="#DejaVuSans-Bold-6f" transform="translate(548.779297 0.684375)"/>
     <use xlink:href="#DejaVuSans-Bold-6c" transform="translate(617.480469 0.684375)"/>
     <use xlink:href="#DejaVuSans-2212" transform="translate(652.714844 38.965625) scale(0.7)"/>
     <use xlink:href="#DejaVuSans-31" transform="translate(711.367188 38.965625) scale(0.7)"/>
    </g>
   </g>
   <g id="PathCollection_3">
    <defs>
     <path id="m6a0d8ae0b6" d="M -0 4.123106 
L 4.123106 0 
L 0 -4.123106 
L -4.123106 -0 
z
" style="stroke: #ffffff; stroke-width: 0.9"/>
    </defs>
    <g clip-path="url(#pf35892e0e8)">
     <use xlink:href="#m6a0d8ae0b6" x="70.13734" y="186.418455" style="fill: #b2182b; stroke: #ffffff; stroke-width: 0.9"/>
     <use xlink:href="#m6a0d8ae0b6" x="105.61517" y="186.418455" style="fill: #b2182b; stroke: #ffffff; stroke-width: 0.9"/>
     <use xlink:href="#m6a0d8ae0b6" x="141.093" y="186.418455" style="fill: #b2182b; stroke: #ffffff; stroke-width: 0.9"/>
     <use xlink:href="#m6a0d8ae0b6" x="176.57083" y="186.418455" style="fill: #b2182b; stroke: #ffffff; stroke-width: 0.9"/>
     <use xlink:href="#m6a0d8ae0b6" x="212.04866" y="186.418455" style="fill: #b2182b; stroke: #ffffff; stroke-width: 0.9"/>
    </g>
   </g>
  </g>
 </g>
 <defs>
  <clipPath id="p456aa4b5f8">
   <rect x="65.88" y="3.834" width="150.426" height="144.861371"/>
  </clipPath>
  <clipPath id="pf35892e0e8">
   <rect x="65.88" y="156.85491" width="150.426" height="59.12709"/>
  </clipPath>
 </defs>
</svg>
