<?xml version="1.0" encoding="utf-8" standalone="no"?>
<!DOCTYPE svg PUBLIC "-//W3C//DTD SVG 1.1//EN"
  "http://www.w3.org/Graphics/SVG/1.1/DTD/svg11.dtd">
<svg xmlns:xlink="http://www.w3.org/1999/xlink" width="235.44pt" height="273.6pt" viewBox="0 0 235.44 273.6" xmlns="http://www.w3.org/2000/svg" version="1.1">
 <metadata>
  <rdf:RDF xmlns:dc="http://purl.org/dc/elements/1.1/" xmlns:cc="http://creativecommons.org/ns#" xmlns:rdf="http://www.w3.org/1999/02/22-rdf-syntax-ns#">
   <cc:Work>
    <dc:type rdf:resource="http://purl.org/dc/dcmitype/StillImage"/>
    <dc:date>2026-06-25T07:35:14.972653</dc:date>
    <dc:format>image/svg+xml</dc:format>
    <dc:creator>
     <cc:Agent>
      <dc:title>Matplotlib v3.10.8, https://matplotlib.org/</dc:title>
     </cc:Agent>
    </dc:creator>
   </cc:Work>
  </rdf:RDF>
 </metadata>
 <defs>
  <style type="text/css">*{stroke-linejoin: round; stroke-linecap: butt}</style>
 </defs>
 <g id="figure_1">
  <g id="patch_1">
   <path d="M 0 273.6 
L 235.44 273.6 
L 235.44 0 
L 0 0 
z
" style="fill: #ffffff"/>
  </g>
  <g id="axes_1">
   <g id="patch_2">
    <path d="M 71.8092 159.166876 
L 231.9084 159.166876 
L 231.9084 4.104 
L 71.8092 4.104 
z
" style="fill: #ffffff"/>
   </g>
   <g id="matplotlib.axis_1">
    <g id="xtick_1">
     <g id="line2d_1">
      <defs>
       <path id="mfcb9578a44" d="M 0 0 
L 0 -4.8 
" style="stroke: #000000; stroke-width: 1.65"/>
      </defs>
      <g>
       <use xlink:href="#mfcb9578a44" x="93.621657" y="159.166876" style="stroke: #000000; stroke-width: 1.65"/>
      </g>
     </g>
     <g id="line2d_2">
      <defs>
       <path id="m9f091790c0" d="M 0 0 
L 0 4.8 
" style="stroke: #000000; stroke-width: 1.65"/>
      </defs>
      <g>
       <use xlink:href="#m9f091790c0" x="93.621657" y="4.104" style="stroke: #000000; stroke-width: 1.65"/>
      </g>
     </g>
    </g>
    <g id="xtick_2">
     <g id="line2d_3">
      <g>
       <use xlink:href="#mfcb9578a44" x="120.093086" y="159.166876" style="stroke: #000000; stroke-width: 1.65"/>
      </g>
     </g>
     <g id="line2d_4">
      <g>
       <use xlink:href="#m9f091790c0" x="120.093086" y="4.104" style="stroke: #000000; stroke-width: 1.65"/>
      </g>
     </g>
    </g>
    <g id="xtick_3">
     <g id="line2d_5">
      <g>
       <use xlink:href="#mfcb9578a44" x="146.564514" y="159.166876" style="stroke: #000000; stroke-width: 1.65"/>
      </g>
     </g>
     <g id="line2d_6">
      <g>
       <use xlink:href="#m9f091790c0" x="146.564514" y="4.104" style="stroke: #000000; stroke-width: 1.65"/>
      </g>
     </g>
    </g>
    <g id="xtick_4">
     <g id="line2d_7">
      <g>
       <use xlink:href="#mfcb9578a44" x="173.035943" y="159.166876" style="stroke: #000000; stroke-width: 1.65"/>
      </g>
     </g>
     <g id="line2d_8">
      <g>
       <use xlink:href="#m9f091790c0" x="173.035943" y="4.104" style="stroke: #000000; stroke-width: 1.65"/>
      </g>
     </g>
    </g>
    <g id="xtick_5">
     <g id="line2d_9">
      <g>
       <use xlink:href="#mfcb9578a44" x="199.507371" y="159.166876" style="stroke: #000000; stroke-width: 1.65"/>
      </g>
     </g>
     <g id="line2d_10">
      <g>
       <use xlink:href="#m9f091790c0" x="199.507371" y="4.104" style="stroke: #000000; stroke-width: 1.65"/>
      </g>
     </g>
    </g>
    <g id="xtick_6">
     <g id="line2d_11">
      <g>
       <use xlink:href="#mfcb9578a44" x="225.9788" y="159.166876" style="stroke: #000000; stroke-width: 1.65"/>
      </g>
     </g>
     <g id="line2d_12">
      <g>
       <use xlink:href="#m9f091790c0" x="225.9788" y="4.104" style="stroke: #000000; stroke-width: 1.65"/>
      </g>
     </g>
    </g>
   </g>
   <g id="matplotlib.axis_2">
    <g id="ytick_1">
     <g id="line2d_13">
      <defs>
       <path id="mb2649f77ec" d="M 0 0 
L 4.8 0 
" style="stroke: #000000; stroke-width: 1.65"/>
      </defs>
      <g>
       <use xlink:href="#mb2649f77ec" x="71.8092" y="140.673348" style="stroke: #000000; stroke-width: 1.65"/>
      </g>
     </g>
     <g id="line2d_14">
      <defs>
       <path id="m2e69991b19" d="M 0 0 
L -4.8 0 
" style="stroke: #000000; stroke-width: 1.65"/>
      </defs>
      <g>
       <use xlink:href="#m2e69991b19" x="231.9084" y="140.673348" style="stroke: #000000; stroke-width: 1.65"/>
      </g>
     </g>
     <g id="text_1">
      <!-- −1.15 -->
      <g transform="translate(33.605059 144.662528) scale(0.105 -0.105)">
       <defs>
        <path id="DejaVuSans-Bold-2212" d="M 678 2375 
L 4684 2375 
L 4684 1638 
L 678 1638 
L 678 2375 
z
" transform="scale(0.015625)"/>
        <path id="DejaVuSans-Bold-31" d="M 750 831 
L 1813 831 
L 1813 3847 
L 722 3622 
L 722 4441 
L 1806 4666 
L 2950 4666 
L 2950 831 
L 4013 831 
L 4013 0 
L 750 0 
L 750 831 
z
" transform="scale(0.015625)"/>
        <path id="DejaVuSans-Bold-2e" d="M 653 1209 
L 1778 1209 
L 1778 0 
L 653 0 
L 653 1209 
z
" transform="scale(0.015625)"/>
        <path id="DejaVuSans-Bold-35" d="M 678 4666 
L 3669 4666 
L 3669 3781 
L 1638 3781 
L 1638 3059 
Q 1775 3097 1914 3117 
Q 2053 3138 2203 3138 
Q 3056 3138 3531 2711 
Q 4006 2284 4006 1522 
Q 4006 766 3489 337 
Q 2972 -91 2053 -91 
Q 1656 -91 1267 -14 
Q 878 63 494 219 
L 494 1166 
Q 875 947 1217 837 
Q 1559 728 1863 728 
Q 2300 728 2551 942 
Q 2803 1156 2803 1522 
Q 2803 1891 2551 2103 
Q 2300 2316 1863 2316 
Q 1603 2316 1309 2248 
Q 1016 2181 678 2041 
L 678 4666 
z
" transform="scale(0.015625)"/>
       </defs>
       <use xlink:href="#DejaVuSans-Bold-2212"/>
       <use xlink:href="#DejaVuSans-Bold-31" transform="translate(83.789062 0)"/>
       <use xlink:href="#DejaVuSans-Bold-2e" transform="translate(153.369141 0)"/>
       <use xlink:href="#DejaVuSans-Bold-31" transform="translate(191.357422 0)"/>
       <use xlink:href="#DejaVuSans-Bold-35" transform="translate(260.9375 0)"/>
      </g>
     </g>
    </g>
    <g id="ytick_2">
     <g id="line2d_15">
      <g>
       <use xlink:href="#mb2649f77ec" x="71.8092" y="105.2596" style="stroke: #000000; stroke-width: 1.65"/>
      </g>
     </g>
     <g id="line2d_16">
      <g>
       <use xlink:href="#m2e69991b19" x="231.9084" y="105.2596" style="stroke: #000000; stroke-width: 1.65"/>
      </g>
     </g>
     <g id="text_2">
      <!-- −1.10 -->
      <g transform="translate(33.605059 109.24878) scale(0.105 -0.105)">
       <defs>
        <path id="DejaVuSans-Bold-30" d="M 2944 2338 
Q 2944 3213 2780 3570 
Q 2616 3928 2228 3928 
Q 1841 3928 1675 3570 
Q 1509 3213 1509 2338 
Q 1509 1453 1675 1090 
Q 1841 728 2228 728 
Q 2613 728 2778 1090 
Q 2944 1453 2944 2338 
z
M 4147 2328 
Q 4147 1169 3647 539 
Q 3147 -91 2228 -91 
Q 1306 -91 806 539 
Q 306 1169 306 2328 
Q 306 3491 806 4120 
Q 1306 4750 2228 4750 
Q 3147 4750 3647 4120 
Q 4147 3491 4147 2328 
z
" transform="scale(0.015625)"/>
       </defs>
       <use xlink:href="#DejaVuSans-Bold-2212"/>
       <use xlink:href="#DejaVuSans-Bold-31" transform="translate(83.789062 0)"/>
       <use xlink:href="#DejaVuSans-Bold-2e" transform="translate(153.369141 0)"/>
       <use xlink:href="#DejaVuSans-Bold-31" transform="translate(191.357422 0)"/>
       <use xlink:href="#DejaVuSans-Bold-30" transform="translate(260.9375 0)"/>
      </g>
     </g>
    </g>
    <g id="ytick_3">
     <g id="line2d_17">
      <g>
       <use xlink:href="#mb2649f77ec" x="71.8092" y="69.845852" style="stroke: #000000; stroke-width: 1.65"/>
      </g>
     </g>
     <g id="line2d_18">
      <g>
       <use xlink:href="#m2e69991b19" x="231.9084" y="69.845852" style="stroke: #000000; stroke-width: 1.65"/>
      </g>
     </g>
     <g id="text_3">
      <!-- −1.05 -->
      <g transform="translate(33.605059 73.835032) scale(0.105 -0.105)">
       <use xlink:href="#DejaVuSans-Bold-2212"/>
       <use xlink:href="#DejaVuSans-Bold-31" transform="translate(83.789062 0)"/>
       <use xlink:href="#DejaVuSans-Bold-2e" transform="translate(153.369141 0)"/>
       <use xlink:href="#DejaVuSans-Bold-30" transform="translate(191.357422 0)"/>
       <use xlink:href="#DejaVuSans-Bold-35" transform="translate(260.9375 0)"/>
      </g>
     </g>
    </g>
    <g id="ytick_4">
     <g id="line2d_19">
      <g>
       <use xlink:href="#mb2649f77ec" x="71.8092" y="34.432104" style="stroke: #000000; stroke-width: 1.65"/>
      </g>
     </g>
     <g id="line2d_20">
      <g>
       <use xlink:href="#m2e69991b19" x="231.9084" y="34.432104" style="stroke: #000000; stroke-width: 1.65"/>
      </g>
     </g>
     <g id="text_4">
      <!-- −1.00 -->
      <g transform="translate(33.605059 38.421284) scale(0.105 -0.105)">
       <use xlink:href="#DejaVuSans-Bold-2212"/>
       <use xlink:href="#DejaVuSans-Bold-31" transform="translate(83.789062 0)"/>
       <use xlink:href="#DejaVuSans-Bold-2e" transform="translate(153.369141 0)"/>
       <use xlink:href="#DejaVuSans-Bold-30" transform="translate(191.357422 0)"/>
       <use xlink:href="#DejaVuSans-Bold-30" transform="translate(260.9375 0)"/>
      </g>
     </g>
    </g>
    <g id="text_5">
     <!-- $E_0(R)$ (Ha) -->
     <g transform="translate(29.00545 115.135438) rotate(-90) scale(0.125 -0.125)">
      <defs>
       <path id="DejaVuSans-Oblique-45" d="M 1081 4666 
L 4031 4666 
L 3928 4134 
L 1606 4134 
L 1338 2753 
L 3566 2753 
L 3463 2222 
L 1234 2222 
L 909 531 
L 3284 531 
L 3181 0 
L 172 0 
L 1081 4666 
z
" transform="scale(0.015625)"/>
       <path id="DejaVuSans-30" d="M 2034 4250 
Q 1547 4250 1301 3770 
Q 1056 3291 1056 2328 
Q 1056 1369 1301 889 
Q 1547 409 2034 409 
Q 2525 409 2770 889 
Q 3016 1369 3016 2328 
Q 3016 3291 2770 3770 
Q 2525 4250 2034 4250 
z
M 2034 4750 
Q 2819 4750 3233 4129 
Q 3647 3509 3647 2328 
Q 3647 1150 3233 529 
Q 2819 -91 2034 -91 
Q 1250 -91 836 529 
Q 422 1150 422 2328 
Q 422 3509 836 4129 
Q 1250 4750 2034 4750 
z
" transform="scale(0.015625)"/>
       <path id="DejaVuSans-28" d="M 1984 4856 
Q 1566 4138 1362 3434 
Q 1159 2731 1159 2009 
Q 1159 1288 1364 580 
Q 1569 -128 1984 -844 
L 1484 -844 
Q 1016 -109 783 600 
Q 550 1309 550 2009 
Q 550 2706 781 3412 
Q 1013 4119 1484 4856 
L 1984 4856 
z
" transform="scale(0.015625)"/>
       <path id="DejaVuSans-Oblique-52" d="M 1613 4147 
L 1294 2491 
L 2106 2491 
Q 2584 2491 2879 2755 
Q 3175 3019 3175 3444 
Q 3175 3784 2976 3965 
Q 2778 4147 2406 4147 
L 1613 4147 
z
M 2772 2241 
Q 2972 2194 3105 2009 
Q 3238 1825 3413 1275 
L 3809 0 
L 3144 0 
L 2778 1197 
Q 2638 1659 2453 1815 
Q 2269 1972 1888 1972 
L 1191 1972 
L 806 0 
L 172 0 
L 1081 4666 
L 2503 4666 
Q 3150 4666 3495 4373 
Q 3841 4081 3841 3531 
Q 3841 3044 3547 2687 
Q 3253 2331 2772 2241 
z
" transform="scale(0.015625)"/>
       <path id="DejaVuSans-29" d="M 513 4856 
L 1013 4856 
Q 1481 4119 1714 3412 
Q 1947 2706 1947 2009 
Q 1947 1309 1714 600 
Q 1481 -109 1013 -844 
L 513 -844 
Q 928 -128 1133 580 
Q 1338 1288 1338 2009 
Q 1338 2731 1133 3434 
Q 928 4138 513 4856 
z
" transform="scale(0.015625)"/>
       <path id="DejaVuSans-Bold-20" transform="scale(0.015625)"/>
       <path id="DejaVuSans-Bold-28" d="M 2413 -844 
L 1484 -844 
Q 1006 -72 778 623 
Q 550 1319 550 2003 
Q 550 2688 779 3389 
Q 1009 4091 1484 4856 
L 2413 4856 
Q 2013 4116 1813 3408 
Q 1613 2700 1613 2009 
Q 1613 1319 1811 609 
Q 2009 -100 2413 -844 
z
" transform="scale(0.015625)"/>
       <path id="DejaVuSans-Bold-48" d="M 588 4666 
L 1791 4666 
L 1791 2888 
L 3566 2888 
L 3566 4666 
L 4769 4666 
L 4769 0 
L 3566 0 
L 3566 1978 
L 1791 1978 
L 1791 0 
L 588 0 
L 588 4666 
z
" transform="scale(0.015625)"/>
       <path id="DejaVuSans-Bold-61" d="M 2106 1575 
Q 1756 1575 1579 1456 
Q 1403 1338 1403 1106 
Q 1403 894 1545 773 
Q 1688 653 1941 653 
Q 2256 653 2472 879 
Q 2688 1106 2688 1447 
L 2688 1575 
L 2106 1575 
z
M 3816 1997 
L 3816 0 
L 2688 0 
L 2688 519 
Q 2463 200 2181 54 
Q 1900 -91 1497 -91 
Q 953 -91 614 226 
Q 275 544 275 1050 
Q 275 1666 698 1953 
Q 1122 2241 2028 2241 
L 2688 2241 
L 2688 2328 
Q 2688 2594 2478 2717 
Q 2269 2841 1825 2841 
Q 1466 2841 1156 2769 
Q 847 2697 581 2553 
L 581 3406 
Q 941 3494 1303 3539 
Q 1666 3584 2028 3584 
Q 2975 3584 3395 3211 
Q 3816 2838 3816 1997 
z
" transform="scale(0.015625)"/>
       <path id="DejaVuSans-Bold-29" d="M 513 -844 
Q 913 -100 1113 609 
Q 1313 1319 1313 2009 
Q 1313 2700 1113 3408 
Q 913 4116 513 4856 
L 1441 4856 
Q 1916 4091 2145 3389 
Q 2375 2688 2375 2003 
Q 2375 1319 2147 623 
Q 1919 -72 1441 -844 
L 513 -844 
z
" transform="scale(0.015625)"/>
      </defs>
      <use xlink:href="#DejaVuSans-Oblique-45" transform="translate(0 0.125)"/>
      <use xlink:href="#DejaVuSans-30" transform="translate(63.183594 -16.28125) scale(0.7)"/>
      <use xlink:href="#DejaVuSans-28" transform="translate(110.454102 0.125)"/>
      <use xlink:href="#DejaVuSans-Oblique-52" transform="translate(149.467773 0.125)"/>
      <use xlink:href="#DejaVuSans-29" transform="translate(218.950195 0.125)"/>
      <use xlink:href="#DejaVuSans-Bold-20" transform="translate(257.963867 0.125)"/>
      <use xlink:href="#DejaVuSans-Bold-28" transform="translate(292.77832 0.125)"/>
      <use xlink:href="#DejaVuSans-Bold-48" transform="translate(338.481445 0.125)"/>
      <use xlink:href="#DejaVuSans-Bold-61" transform="translate(422.172852 0.125)"/>
      <use xlink:href="#DejaVuSans-Bold-29" transform="translate(489.65332 0.125)"/>
     </g>
    </g>
   </g>
   <g id="patch_3">
    <path d="M 71.8092 159.166876 
L 71.8092 4.104 
" style="fill: none; stroke: #000000; stroke-width: 1.65; stroke-linejoin: miter; stroke-linecap: square"/>
   </g>
   <g id="patch_4">
    <path d="M 231.9084 159.166876 
L 231.9084 4.104 
" style="fill: none; stroke: #000000; stroke-width: 1.65; stroke-linejoin: miter; stroke-linecap: square"/>
   </g>
   <g id="patch_5">
    <path d="M 71.8092 159.166876 
L 231.9084 159.166876 
" style="fill: none; stroke: #000000; stroke-width: 1.65; stroke-linejoin: miter; stroke-linecap: square"/>
   </g>
   <g id="patch_6">
    <path d="M 71.8092 4.104 
L 231.9084 4.104 
" style="fill: none; stroke: #000000; stroke-width: 1.65; stroke-linejoin: miter; stroke-linecap: square"/>
   </g>
   <g id="text_6">
    <!-- H$_2$ $X\,{}^1\Sigma_g^+$ -->
    <g transform="translate(87.81912 58.030977) scale(0.134 -0.134)">
     <defs>
      <path id="DejaVuSans-32" d="M 1228 531 
L 3431 531 
L 3431 0 
L 469 0 
L 469 531 
Q 828 903 1448 1529 
Q 2069 2156 2228 2338 
Q 2531 2678 2651 2914 
Q 2772 3150 2772 3378 
Q 2772 3750 2511 3984 
Q 2250 4219 1831 4219 
Q 1534 4219 1204 4116 
Q 875 4013 500 3803 
L 500 4441 
Q 881 4594 1212 4672 
Q 1544 4750 1819 4750 
Q 2544 4750 2975 4387 
Q 3406 4025 3406 3419 
Q 3406 3131 3298 2873 
Q 3191 2616 2906 2266 
Q 2828 2175 2409 1742 
Q 1991 1309 1228 531 
z
" transform="scale(0.015625)"/>
      <path id="DejaVuSans-Oblique-58" d="M 878 4666 
L 1516 4666 
L 2316 2981 
L 3763 4666 
L 4500 4666 
L 2578 2438 
L 3738 0 
L 3103 0 
L 2163 1966 
L 459 0 
L -275 0 
L 1906 2509 
L 878 4666 
z
" transform="scale(0.015625)"/>
      <path id="DejaVuSans-31" d="M 794 531 
L 1825 531 
L 1825 4091 
L 703 3866 
L 703 4441 
L 1819 4666 
L 2450 4666 
L 2450 531 
L 3481 531 
L 3481 0 
L 794 0 
L 794 531 
z
" transform="scale(0.015625)"/>
      <path id="DejaVuSans-3a3" d="M 1353 531 
L 3634 531 
L 3634 0 
L 628 0 
L 628 531 
L 2125 2481 
L 628 4134 
L 628 4666 
L 3578 4666 
L 3578 4134 
L 1353 4134 
L 2850 2494 
L 1353 531 
z
" transform="scale(0.015625)"/>
      <path id="DejaVuSans-2b" d="M 2944 4013 
L 2944 2272 
L 4684 2272 
L 4684 1741 
L 2944 1741 
L 2944 0 
L 2419 0 
L 2419 1741 
L 678 1741 
L 678 2272 
L 2419 2272 
L 2419 4013 
L 2944 4013 
z
" transform="scale(0.015625)"/>
      <path id="DejaVuSans-Oblique-67" d="M 3816 3500 
L 3219 434 
Q 3047 -456 2561 -893 
Q 2075 -1331 1253 -1331 
Q 950 -1331 690 -1286 
Q 431 -1241 206 -1147 
L 313 -588 
Q 525 -725 762 -790 
Q 1000 -856 1269 -856 
Q 1816 -856 2167 -557 
Q 2519 -259 2631 300 
L 2681 563 
Q 2441 288 2122 144 
Q 1803 0 1434 0 
Q 903 0 598 351 
Q 294 703 294 1319 
Q 294 1803 478 2267 
Q 663 2731 997 3091 
Q 1219 3328 1514 3456 
Q 1809 3584 2131 3584 
Q 2484 3584 2746 3420 
Q 3009 3256 3138 2956 
L 3238 3500 
L 3816 3500 
z
M 2950 2216 
Q 2950 2641 2750 2872 
Q 2550 3103 2181 3103 
Q 1953 3103 1747 3012 
Q 1541 2922 1394 2759 
Q 1156 2491 1023 2127 
Q 891 1763 891 1375 
Q 891 944 1092 712 
Q 1294 481 1672 481 
Q 2219 481 2584 976 
Q 2950 1472 2950 2216 
z
" transform="scale(0.015625)"/>
     </defs>
     <use xlink:href="#DejaVuSans-Bold-48" transform="translate(0 0.684375)"/>
     <use xlink:href="#DejaVuSans-32" transform="translate(84.648438 -15.721875) scale(0.7)"/>
     <use xlink:href="#DejaVuSans-Bold-20" transform="translate(131.918945 0.684375)"/>
     <use xlink:href="#DejaVuSans-Oblique-58" transform="translate(166.733398 0.684375)"/>
     <use xlink:href="#DejaVuSans-31" transform="translate(252.431965 38.965625) scale(0.7)"/>
     <use xlink:href="#DejaVuSans-3a3" transform="translate(299.702473 0.684375)"/>
     <use xlink:href="#DejaVuSans-2b" transform="translate(377.480793 38.965625) scale(0.7)"/>
     <use xlink:href="#DejaVuSans-Oblique-67" transform="translate(363.843098 -26.659375) scale(0.7)"/>
    </g>
   </g>
   <g id="line2d_21">
    <path d="M 77.7388 14.534238 
L 79.236174 72.988353 
L 80.733547 109.73625 
L 82.230921 132.265819 
L 83.728295 145.238186 
L 85.225669 151.676952 
L 86.723042 153.604082 
L 88.220416 152.404545 
L 89.71779 149.047404 
L 91.215164 144.223804 
L 92.712537 138.434414 
L 94.209911 132.04605 
L 95.707285 125.329542 
L 97.204659 118.485923 
L 98.702032 111.664958 
L 100.199406 104.978424 
L 101.69678 98.509635 
L 103.194154 92.320269 
L 104.691527 86.45522 
L 106.188901 80.946036 
L 107.686275 75.813333 
L 109.183648 71.068492 
L 110.681022 66.714925 
L 112.178396 62.749095 
L 113.67577 59.161471 
L 115.173143 55.937481 
L 116.670517 53.05852 
L 118.167891 50.502958 
L 119.665265 48.247134 
L 121.162638 46.266263 
L 122.660012 44.535234 
L 124.157386 43.029273 
L 125.65476 41.724469 
L 127.152133 40.598162 
L 128.649507 39.629215 
L 130.146881 38.798179 
L 131.644255 38.087369 
L 133.141628 37.480872 
L 134.639002 36.964503 
L 136.136376 36.525719 
L 137.633749 36.153508 
L 139.131123 35.838261 
L 140.628497 35.571639 
L 142.125871 35.346435 
L 143.623244 35.156447 
L 145.120618 34.996351 
L 146.617992 34.861593 
L 148.115366 34.74828 
L 149.612739 34.653095 
L 151.110113 34.573213 
L 152.607487 34.506236 
L 154.104861 34.450124 
L 155.602234 34.40315 
L 157.099608 34.363854 
L 158.596982 34.330999 
L 160.094356 34.303543 
L 161.591729 34.280608 
L 163.089103 34.261454 
L 164.586477 34.24546 
L 166.083851 34.232107 
L 167.581224 34.220958 
L 169.078598 34.211647 
L 170.575972 34.203871 
L 172.073345 34.197374 
L 173.570719 34.191943 
L 175.068093 34.187402 
L 176.565467 34.183601 
L 178.06284 34.180419 
L 179.560214 34.177751 
L 181.057588 34.175512 
L 182.554962 34.173631 
L 184.052335 34.172048 
L 185.549709 34.170714 
L 187.047083 34.169587 
L 188.544457 34.168633 
L 190.04183 34.167823 
L 191.539204 34.167134 
L 193.036578 34.166547 
L 194.533952 34.166044 
L 196.031325 34.165612 
L 197.528699 34.165241 
L 199.026073 34.16492 
L 200.523446 34.164643 
L 202.02082 34.164402 
L 203.518194 34.164193 
L 205.015568 34.16401 
L 206.512941 34.163851 
L 208.010315 34.163712 
L 209.507689 34.16359 
L 211.005063 34.163484 
L 212.502436 34.163391 
L 213.99981 34.163309 
L 215.497184 34.163238 
L 216.994558 34.163175 
L 218.491931 34.163121 
L 219.989305 34.163073 
L 221.486679 34.163031 
L 222.984053 34.162995 
L 224.481426 34.162964 
L 225.9788 34.162936 
" clip-path="url(#p5ad34f1e9b)" style="fill: none; stroke-dasharray: 12.22,7.52; stroke-dashoffset: 0; stroke: #111111; stroke-width: 2.35"/>
   </g>
   <g id="line2d_22">
    <path d="M 77.7388 14.552274 
L 79.236174 71.65437 
L 80.733547 107.404363 
L 82.230921 129.236898 
L 83.728295 141.744281 
L 85.225669 147.929202 
L 86.723042 149.825977 
L 88.220416 148.810105 
L 89.71779 145.839089 
L 91.215164 141.555955 
L 92.712537 136.45371 
L 94.209911 130.848726 
L 95.707285 124.988693 
L 97.204659 119.062439 
L 98.702032 113.204421 
L 100.199406 107.497564 
L 101.69678 101.990472 
L 103.194154 96.726369 
L 104.691527 91.723511 
L 106.188901 86.97029 
L 107.686275 82.477938 
L 109.183648 78.231776 
L 110.681022 74.197634 
L 112.178396 70.352723 
L 113.67577 66.586767 
L 115.173143 62.616269 
L 116.670517 59.304662 
L 118.167891 56.82771 
L 119.665265 54.616331 
L 121.162638 52.375682 
L 122.660012 49.989544 
L 124.157386 47.511918 
L 125.65476 45.422564 
L 127.152133 43.711307 
L 128.649507 42.097912 
L 130.146881 40.485688 
L 131.644255 38.545917 
L 133.141628 36.081731 
L 134.639002 34.489515 
L 136.136376 34.981094 
L 137.633749 34.879117 
L 139.131123 35.455336 
L 140.628497 36.530109 
L 142.125871 37.205335 
L 143.623244 37.111743 
L 145.120618 37.062619 
L 146.617992 37.114579 
L 148.115366 37.183628 
L 149.612739 37.27781 
L 151.110113 37.127666 
L 152.607487 36.686395 
L 154.104861 36.375427 
L 155.602234 35.970185 
L 157.099608 35.415682 
L 158.596982 34.798501 
L 160.094356 34.175196 
L 161.591729 33.58107 
L 163.089103 33.013382 
L 164.586477 32.465047 
L 166.083851 31.959832 
L 167.581224 31.49982 
L 169.078598 31.083856 
L 170.575972 30.729935 
L 172.073345 30.428347 
L 173.570719 30.178402 
L 175.068093 29.98814 
L 176.565467 29.849491 
L 178.06284 29.757212 
L 179.560214 29.702517 
L 181.057588 29.692449 
L 182.554962 29.713873 
L 184.052335 29.766085 
L 185.549709 29.842701 
L 187.047083 29.94427 
L 188.544457 30.064928 
L 190.04183 30.202966 
L 191.539204 30.354925 
L 193.036578 30.515999 
L 194.533952 30.685288 
L 196.031325 30.862932 
L 197.528699 31.043071 
L 199.026073 31.225334 
L 200.523446 31.408594 
L 202.02082 31.591995 
L 203.518194 31.775378 
L 205.015568 31.957181 
L 206.512941 32.13778 
L 208.010315 32.315677 
L 209.507689 32.49013 
L 211.005063 32.661521 
L 212.502436 32.828519 
L 213.99981 32.990945 
L 215.497184 33.151071 
L 216.994558 33.306533 
L 218.491931 33.458762 
L 219.989305 33.607476 
L 221.486679 33.752415 
L 222.984053 33.893301 
L 224.481426 34.0305 
L 225.9788 34.164167 
" clip-path="url(#p5ad34f1e9b)" style="fill: none; stroke: #2b6cb0; stroke-width: 2.45; stroke-linecap: square"/>
   </g>
   <g id="legend_1">
    <g id="line2d_23">
     <path d="M 108.649537 108.044649 
L 115.159537 108.044649 
L 121.669537 108.044649 
" style="fill: none; stroke-dasharray: 12.22,7.52; stroke-dashoffset: 0; stroke: #111111; stroke-width: 2.35"/>
    </g>
    <g id="text_7">
     <!-- FCI reference -->
     <g transform="translate(126.629537 110.214649) scale(0.062 -0.062)">
      <defs>
       <path id="DejaVuSans-46" d="M 628 4666 
L 3309 4666 
L 3309 4134 
L 1259 4134 
L 1259 2759 
L 3109 2759 
L 3109 2228 
L 1259 2228 
L 1259 0 
L 628 0 
L 628 4666 
z
" transform="scale(0.015625)"/>
       <path id="DejaVuSans-43" d="M 4122 4306 
L 4122 3641 
Q 3803 3938 3442 4084 
Q 3081 4231 2675 4231 
Q 1875 4231 1450 3742 
Q 1025 3253 1025 2328 
Q 1025 1406 1450 917 
Q 1875 428 2675 428 
Q 3081 428 3442 575 
Q 3803 722 4122 1019 
L 4122 359 
Q 3791 134 3420 21 
Q 3050 -91 2638 -91 
Q 1578 -91 968 557 
Q 359 1206 359 2328 
Q 359 3453 968 4101 
Q 1578 4750 2638 4750 
Q 3056 4750 3426 4639 
Q 3797 4528 4122 4306 
z
" transform="scale(0.015625)"/>
       <path id="DejaVuSans-49" d="M 628 4666 
L 1259 4666 
L 1259 0 
L 628 0 
L 628 4666 
z
" transform="scale(0.015625)"/>
       <path id="DejaVuSans-20" transform="scale(0.015625)"/>
       <path id="DejaVuSans-72" d="M 2631 2963 
Q 2534 3019 2420 3045 
Q 2306 3072 2169 3072 
Q 1681 3072 1420 2755 
Q 1159 2438 1159 1844 
L 1159 0 
L 581 0 
L 581 3500 
L 1159 3500 
L 1159 2956 
Q 1341 3275 1631 3429 
Q 1922 3584 2338 3584 
Q 2397 3584 2469 3576 
Q 2541 3569 2628 3553 
L 2631 2963 
z
" transform="scale(0.015625)"/>
       <path id="DejaVuSans-65" d="M 3597 1894 
L 3597 1613 
L 953 1613 
Q 991 1019 1311 708 
Q 1631 397 2203 397 
Q 2534 397 2845 478 
Q 3156 559 3463 722 
L 3463 178 
Q 3153 47 2828 -22 
Q 2503 -91 2169 -91 
Q 1331 -91 842 396 
Q 353 884 353 1716 
Q 353 2575 817 3079 
Q 1281 3584 2069 3584 
Q 2775 3584 3186 3129 
Q 3597 2675 3597 1894 
z
M 3022 2063 
Q 3016 2534 2758 2815 
Q 2500 3097 2075 3097 
Q 1594 3097 1305 2825 
Q 1016 2553 972 2059 
L 3022 2063 
z
" transform="scale(0.015625)"/>
       <path id="DejaVuSans-66" d="M 2375 4863 
L 2375 4384 
L 1825 4384 
Q 1516 4384 1395 4259 
Q 1275 4134 1275 3809 
L 1275 3500 
L 2222 3500 
L 2222 3053 
L 1275 3053 
L 1275 0 
L 697 0 
L 697 3053 
L 147 3053 
L 147 3500 
L 697 3500 
L 697 3744 
Q 697 4328 969 4595 
Q 1241 4863 1831 4863 
L 2375 4863 
z
" transform="scale(0.015625)"/>
       <path id="DejaVuSans-6e" d="M 3513 2113 
L 3513 0 
L 2938 0 
L 2938 2094 
Q 2938 2591 2744 2837 
Q 2550 3084 2163 3084 
Q 1697 3084 1428 2787 
Q 1159 2491 1159 1978 
L 1159 0 
L 581 0 
L 581 3500 
L 1159 3500 
L 1159 2956 
Q 1366 3272 1645 3428 
Q 1925 3584 2291 3584 
Q 2894 3584 3203 3211 
Q 3513 2838 3513 2113 
z
" transform="scale(0.015625)"/>
       <path id="DejaVuSans-63" d="M 3122 3366 
L 3122 2828 
Q 2878 2963 2633 3030 
Q 2388 3097 2138 3097 
Q 1578 3097 1268 2742 
Q 959 2388 959 1747 
Q 959 1106 1268 751 
Q 1578 397 2138 397 
Q 2388 397 2633 464 
Q 2878 531 3122 666 
L 3122 134 
Q 2881 22 2623 -34 
Q 2366 -91 2075 -91 
Q 1284 -91 818 406 
Q 353 903 353 1747 
Q 353 2603 823 3093 
Q 1294 3584 2113 3584 
Q 2378 3584 2631 3529 
Q 2884 3475 3122 3366 
z
" transform="scale(0.015625)"/>
      </defs>
      <use xlink:href="#DejaVuSans-46"/>
      <use xlink:href="#DejaVuSans-43" transform="translate(57.519531 0)"/>
      <use xlink:href="#DejaVuSans-49" transform="translate(127.34375 0)"/>
      <use xlink:href="#DejaVuSans-20" transform="translate(156.835938 0)"/>
      <use xlink:href="#DejaVuSans-72" transform="translate(188.623047 0)"/>
      <use xlink:href="#DejaVuSans-65" transform="translate(227.486328 0)"/>
      <use xlink:href="#DejaVuSans-66" transform="translate(289.009766 0)"/>
      <use xlink:href="#DejaVuSans-65" transform="translate(324.214844 0)"/>
      <use xlink:href="#DejaVuSans-72" transform="translate(385.738281 0)"/>
      <use xlink:href="#DejaVuSans-65" transform="translate(424.601562 0)"/>
      <use xlink:href="#DejaVuSans-6e" transform="translate(486.125 0)"/>
      <use xlink:href="#DejaVuSans-63" transform="translate(549.503906 0)"/>
      <use xlink:href="#DejaVuSans-65" transform="translate(604.484375 0)"/>
     </g>
    </g>
    <g id="line2d_24">
     <path d="M 108.649537 115.285086 
L 115.159537 115.285086 
L 121.669537 115.285086 
" style="fill: none; stroke: #2b6cb0; stroke-width: 2.45; stroke-linecap: square"/>
    </g>
    <g id="text_8">
     <!-- Neural HFX/no-PT2 (111.2 meV) -->
     <g transform="translate(126.629537 117.455086) scale(0.062 -0.062)">
      <defs>
       <path id="DejaVuSans-4e" d="M 628 4666 
L 1478 4666 
L 3547 763 
L 3547 4666 
L 4159 4666 
L 4159 0 
L 3309 0 
L 1241 3903 
L 1241 0 
L 628 0 
L 628 4666 
z
" transform="scale(0.015625)"/>
       <path id="DejaVuSans-75" d="M 544 1381 
L 544 3500 
L 1119 3500 
L 1119 1403 
Q 1119 906 1312 657 
Q 1506 409 1894 409 
Q 2359 409 2629 706 
Q 2900 1003 2900 1516 
L 2900 3500 
L 3475 3500 
L 3475 0 
L 2900 0 
L 2900 538 
Q 2691 219 2414 64 
Q 2138 -91 1772 -91 
Q 1169 -91 856 284 
Q 544 659 544 1381 
z
M 1991 3584 
L 1991 3584 
z
" transform="scale(0.015625)"/>
       <path id="DejaVuSans-61" d="M 2194 1759 
Q 1497 1759 1228 1600 
Q 959 1441 959 1056 
Q 959 750 1161 570 
Q 1363 391 1709 391 
Q 2188 391 2477 730 
Q 2766 1069 2766 1631 
L 2766 1759 
L 2194 1759 
z
M 3341 1997 
L 3341 0 
L 2766 0 
L 2766 531 
Q 2569 213 2275 61 
Q 1981 -91 1556 -91 
Q 1019 -91 701 211 
Q 384 513 384 1019 
Q 384 1609 779 1909 
Q 1175 2209 1959 2209 
L 2766 2209 
L 2766 2266 
Q 2766 2663 2505 2880 
Q 2244 3097 1772 3097 
Q 1472 3097 1187 3025 
Q 903 2953 641 2809 
L 641 3341 
Q 956 3463 1253 3523 
Q 1550 3584 1831 3584 
Q 2591 3584 2966 3190 
Q 3341 2797 3341 1997 
z
" transform="scale(0.015625)"/>
       <path id="DejaVuSans-6c" d="M 603 4863 
L 1178 4863 
L 1178 0 
L 603 0 
L 603 4863 
z
" transform="scale(0.015625)"/>
       <path id="DejaVuSans-48" d="M 628 4666 
L 1259 4666 
L 1259 2753 
L 3553 2753 
L 3553 4666 
L 4184 4666 
L 4184 0 
L 3553 0 
L 3553 2222 
L 1259 2222 
L 1259 0 
L 628 0 
L 628 4666 
z
" transform="scale(0.015625)"/>
       <path id="DejaVuSans-58" d="M 403 4666 
L 1081 4666 
L 2241 2931 
L 3406 4666 
L 4084 4666 
L 2584 2425 
L 4184 0 
L 3506 0 
L 2194 1984 
L 872 0 
L 191 0 
L 1856 2491 
L 403 4666 
z
" transform="scale(0.015625)"/>
       <path id="DejaVuSans-2f" d="M 1625 4666 
L 2156 4666 
L 531 -594 
L 0 -594 
L 1625 4666 
z
" transform="scale(0.015625)"/>
       <path id="DejaVuSans-6f" d="M 1959 3097 
Q 1497 3097 1228 2736 
Q 959 2375 959 1747 
Q 959 1119 1226 758 
Q 1494 397 1959 397 
Q 2419 397 2687 759 
Q 2956 1122 2956 1747 
Q 2956 2369 2687 2733 
Q 2419 3097 1959 3097 
z
M 1959 3584 
Q 2709 3584 3137 3096 
Q 3566 2609 3566 1747 
Q 3566 888 3137 398 
Q 2709 -91 1959 -91 
Q 1206 -91 779 398 
Q 353 888 353 1747 
Q 353 2609 779 3096 
Q 1206 3584 1959 3584 
z
" transform="scale(0.015625)"/>
       <path id="DejaVuSans-2d" d="M 313 2009 
L 1997 2009 
L 1997 1497 
L 313 1497 
L 313 2009 
z
" transform="scale(0.015625)"/>
       <path id="DejaVuSans-50" d="M 1259 4147 
L 1259 2394 
L 2053 2394 
Q 2494 2394 2734 2622 
Q 2975 2850 2975 3272 
Q 2975 3691 2734 3919 
Q 2494 4147 2053 4147 
L 1259 4147 
z
M 628 4666 
L 2053 4666 
Q 2838 4666 3239 4311 
Q 3641 3956 3641 3272 
Q 3641 2581 3239 2228 
Q 2838 1875 2053 1875 
L 1259 1875 
L 1259 0 
L 628 0 
L 628 4666 
z
" transform="scale(0.015625)"/>
       <path id="DejaVuSans-54" d="M -19 4666 
L 3928 4666 
L 3928 4134 
L 2272 4134 
L 2272 0 
L 1638 0 
L 1638 4134 
L -19 4134 
L -19 4666 
z
" transform="scale(0.015625)"/>
       <path id="DejaVuSans-2e" d="M 684 794 
L 1344 794 
L 1344 0 
L 684 0 
L 684 794 
z
" transform="scale(0.015625)"/>
       <path id="DejaVuSans-6d" d="M 3328 2828 
Q 3544 3216 3844 3400 
Q 4144 3584 4550 3584 
Q 5097 3584 5394 3201 
Q 5691 2819 5691 2113 
L 5691 0 
L 5113 0 
L 5113 2094 
Q 5113 2597 4934 2840 
Q 4756 3084 4391 3084 
Q 3944 3084 3684 2787 
Q 3425 2491 3425 1978 
L 3425 0 
L 2847 0 
L 2847 2094 
Q 2847 2600 2669 2842 
Q 2491 3084 2119 3084 
Q 1678 3084 1418 2786 
Q 1159 2488 1159 1978 
L 1159 0 
L 581 0 
L 581 3500 
L 1159 3500 
L 1159 2956 
Q 1356 3278 1631 3431 
Q 1906 3584 2284 3584 
Q 2666 3584 2933 3390 
Q 3200 3197 3328 2828 
z
" transform="scale(0.015625)"/>
       <path id="DejaVuSans-56" d="M 1831 0 
L 50 4666 
L 709 4666 
L 2188 738 
L 3669 4666 
L 4325 4666 
L 2547 0 
L 1831 0 
z
" transform="scale(0.015625)"/>
      </defs>
      <use xlink:href="#DejaVuSans-4e"/>
      <use xlink:href="#DejaVuSans-65" transform="translate(74.804688 0)"/>
      <use xlink:href="#DejaVuSans-75" transform="translate(136.328125 0)"/>
      <use xlink:href="#DejaVuSans-72" transform="translate(199.707031 0)"/>
      <use xlink:href="#DejaVuSans-61" transform="translate(240.820312 0)"/>
      <use xlink:href="#DejaVuSans-6c" transform="translate(302.099609 0)"/>
      <use xlink:href="#DejaVuSans-20" transform="translate(329.882812 0)"/>
      <use xlink:href="#DejaVuSans-48" transform="translate(361.669922 0)"/>
      <use xlink:href="#DejaVuSans-46" transform="translate(436.865234 0)"/>
      <use xlink:href="#DejaVuSans-58" transform="translate(494.384766 0)"/>
      <use xlink:href="#DejaVuSans-2f" transform="translate(562.890625 0)"/>
      <use xlink:href="#DejaVuSans-6e" transform="translate(596.582031 0)"/>
      <use xlink:href="#DejaVuSans-6f" transform="translate(659.960938 0)"/>
      <use xlink:href="#DejaVuSans-2d" transform="translate(723.017578 0)"/>
      <use xlink:href="#DejaVuSans-50" transform="translate(759.101562 0)"/>
      <use xlink:href="#DejaVuSans-54" transform="translate(819.404297 0)"/>
      <use xlink:href="#DejaVuSans-32" transform="translate(880.488281 0)"/>
      <use xlink:href="#DejaVuSans-20" transform="translate(944.111328 0)"/>
      <use xlink:href="#DejaVuSans-28" transform="translate(975.898438 0)"/>
      <use xlink:href="#DejaVuSans-31" transform="translate(1014.912109 0)"/>
      <use xlink:href="#DejaVuSans-31" transform="translate(1078.535156 0)"/>
      <use xlink:href="#DejaVuSans-31" transform="translate(1142.158203 0)"/>
      <use xlink:href="#DejaVuSans-2e" transform="translate(1205.78125 0)"/>
      <use xlink:href="#DejaVuSans-32" transform="translate(1237.568359 0)"/>
      <use xlink:href="#DejaVuSans-20" transform="translate(1301.191406 0)"/>
      <use xlink:href="#DejaVuSans-6d" transform="translate(1332.978516 0)"/>
      <use xlink:href="#DejaVuSans-65" transform="translate(1430.390625 0)"/>
      <use xlink:href="#DejaVuSans-56" transform="translate(1491.914062 0)"/>
      <use xlink:href="#DejaVuSans-29" transform="translate(1560.322266 0)"/>
     </g>
    </g>
    <g id="PathCollection_1">
     <defs>
      <path id="m1655c6e25e" d="M -0 4.301163 
L 4.301163 0 
L 0 -4.301163 
L -4.301163 -0 
z
" style="stroke: #ffffff; stroke-width: 0.9"/>
     </defs>
     <g>
      <use xlink:href="#m1655c6e25e" x="115.159537" y="123.068024" style="fill: #b2182b; stroke: #ffffff; stroke-width: 0.9"/>
     </g>
    </g>
    <g id="text_9">
     <!-- Training points -->
     <g transform="translate(126.629537 124.695524) scale(0.062 -0.062)">
      <defs>
       <path id="DejaVuSans-69" d="M 603 3500 
L 1178 3500 
L 1178 0 
L 603 0 
L 603 3500 
z
M 603 4863 
L 1178 4863 
L 1178 4134 
L 603 4134 
L 603 4863 
z
" transform="scale(0.015625)"/>
       <path id="DejaVuSans-67" d="M 2906 1791 
Q 2906 2416 2648 2759 
Q 2391 3103 1925 3103 
Q 1463 3103 1205 2759 
Q 947 2416 947 1791 
Q 947 1169 1205 825 
Q 1463 481 1925 481 
Q 2391 481 2648 825 
Q 2906 1169 2906 1791 
z
M 3481 434 
Q 3481 -459 3084 -895 
Q 2688 -1331 1869 -1331 
Q 1566 -1331 1297 -1286 
Q 1028 -1241 775 -1147 
L 775 -588 
Q 1028 -725 1275 -790 
Q 1522 -856 1778 -856 
Q 2344 -856 2625 -561 
Q 2906 -266 2906 331 
L 2906 616 
Q 2728 306 2450 153 
Q 2172 0 1784 0 
Q 1141 0 747 490 
Q 353 981 353 1791 
Q 353 2603 747 3093 
Q 1141 3584 1784 3584 
Q 2172 3584 2450 3431 
Q 2728 3278 2906 2969 
L 2906 3500 
L 3481 3500 
L 3481 434 
z
" transform="scale(0.015625)"/>
       <path id="DejaVuSans-70" d="M 1159 525 
L 1159 -1331 
L 581 -1331 
L 581 3500 
L 1159 3500 
L 1159 2969 
Q 1341 3281 1617 3432 
Q 1894 3584 2278 3584 
Q 2916 3584 3314 3078 
Q 3713 2572 3713 1747 
Q 3713 922 3314 415 
Q 2916 -91 2278 -91 
Q 1894 -91 1617 61 
Q 1341 213 1159 525 
z
M 3116 1747 
Q 3116 2381 2855 2742 
Q 2594 3103 2138 3103 
Q 1681 3103 1420 2742 
Q 1159 2381 1159 1747 
Q 1159 1113 1420 752 
Q 1681 391 2138 391 
Q 2594 391 2855 752 
Q 3116 1113 3116 1747 
z
" transform="scale(0.015625)"/>
       <path id="DejaVuSans-74" d="M 1172 4494 
L 1172 3500 
L 2356 3500 
L 2356 3053 
L 1172 3053 
L 1172 1153 
Q 1172 725 1289 603 
Q 1406 481 1766 481 
L 2356 481 
L 2356 0 
L 1766 0 
Q 1100 0 847 248 
Q 594 497 594 1153 
L 594 3053 
L 172 3053 
L 172 3500 
L 594 3500 
L 594 4494 
L 1172 4494 
z
" transform="scale(0.015625)"/>
       <path id="DejaVuSans-73" d="M 2834 3397 
L 2834 2853 
Q 2591 2978 2328 3040 
Q 2066 3103 1784 3103 
Q 1356 3103 1142 2972 
Q 928 2841 928 2578 
Q 928 2378 1081 2264 
Q 1234 2150 1697 2047 
L 1894 2003 
Q 2506 1872 2764 1633 
Q 3022 1394 3022 966 
Q 3022 478 2636 193 
Q 2250 -91 1575 -91 
Q 1294 -91 989 -36 
Q 684 19 347 128 
L 347 722 
Q 666 556 975 473 
Q 1284 391 1588 391 
Q 1994 391 2212 530 
Q 2431 669 2431 922 
Q 2431 1156 2273 1281 
Q 2116 1406 1581 1522 
L 1381 1569 
Q 847 1681 609 1914 
Q 372 2147 372 2553 
Q 372 3047 722 3315 
Q 1072 3584 1716 3584 
Q 2034 3584 2315 3537 
Q 2597 3491 2834 3397 
z
" transform="scale(0.015625)"/>
      </defs>
      <use xlink:href="#DejaVuSans-54"/>
      <use xlink:href="#DejaVuSans-72" transform="translate(46.333984 0)"/>
      <use xlink:href="#DejaVuSans-61" transform="translate(87.447266 0)"/>
      <use xlink:href="#DejaVuSans-69" transform="translate(148.726562 0)"/>
      <use xlink:href="#DejaVuSans-6e" transform="translate(176.509766 0)"/>
      <use xlink:href="#DejaVuSans-69" transform="translate(239.888672 0)"/>
      <use xlink:href="#DejaVuSans-6e" transform="translate(267.671875 0)"/>
      <use xlink:href="#DejaVuSans-67" transform="translate(331.050781 0)"/>
      <use xlink:href="#DejaVuSans-20" transform="translate(394.527344 0)"/>
      <use xlink:href="#DejaVuSans-70" transform="translate(426.314453 0)"/>
      <use xlink:href="#DejaVuSans-6f" transform="translate(489.791016 0)"/>
      <use xlink:href="#DejaVuSans-69" transform="translate(550.972656 0)"/>
      <use xlink:href="#DejaVuSans-6e" transform="translate(578.755859 0)"/>
      <use xlink:href="#DejaVuSans-74" transform="translate(642.134766 0)"/>
      <use xlink:href="#DejaVuSans-73" transform="translate(681.34375 0)"/>
     </g>
    </g>
   </g>
   <g id="PathCollection_2">
    <g clip-path="url(#p5ad34f1e9b)">
     <use xlink:href="#m1655c6e25e" x="77.7388" y="14.534238" style="fill: #b2182b; stroke: #ffffff; stroke-width: 0.9"/>
     <use xlink:href="#m1655c6e25e" x="102.445467" y="95.414952" style="fill: #b2182b; stroke: #ffffff; stroke-width: 0.9"/>
     <use xlink:href="#m1655c6e25e" x="127.152133" y="40.598162" style="fill: #b2182b; stroke: #ffffff; stroke-width: 0.9"/>
     <use xlink:href="#m1655c6e25e" x="151.8588" y="34.539724" style="fill: #b2182b; stroke: #ffffff; stroke-width: 0.9"/>
     <use xlink:href="#m1655c6e25e" x="176.565467" y="34.183601" style="fill: #b2182b; stroke: #ffffff; stroke-width: 0.9"/>
     <use xlink:href="#m1655c6e25e" x="201.272133" y="34.164523" style="fill: #b2182b; stroke: #ffffff; stroke-width: 0.9"/>
     <use xlink:href="#m1655c6e25e" x="225.9788" y="34.162936" style="fill: #b2182b; stroke: #ffffff; stroke-width: 0.9"/>
    </g>
   </g>
  </g>
  <g id="axes_2">
   <g id="patch_7">
    <path d="M 71.8092 231.192 
L 231.9084 231.192 
L 231.9084 167.90103 
L 71.8092 167.90103 
z
" style="fill: #ffffff"/>
   </g>
   <g id="patch_8">
    <path d="M 71.8092 203.396977 
L 231.9084 203.396977 
L 231.9084 195.696053 
L 71.8092 195.696053 
z
" clip-path="url(#p2b047dc69d)" style="fill: #dbdbdb; opacity: 0.78; stroke: #dbdbdb; stroke-linejoin: miter"/>
   </g>
   <g id="matplotlib.axis_3">
    <g id="xtick_7">
     <g id="line2d_25">
      <g>
       <use xlink:href="#mfcb9578a44" x="93.621657" y="231.192" style="stroke: #000000; stroke-width: 1.65"/>
      </g>
     </g>
     <g id="line2d_26">
      <g>
       <use xlink:href="#m9f091790c0" x="93.621657" y="167.90103" style="stroke: #000000; stroke-width: 1.65"/>
      </g>
     </g>
     <g id="text_10">
      <!-- 1 -->
      <g transform="translate(89.968806 242.670359) scale(0.105 -0.105)">
       <use xlink:href="#DejaVuSans-Bold-31"/>
      </g>
     </g>
    </g>
    <g id="xtick_8">
     <g id="line2d_27">
      <g>
       <use xlink:href="#mfcb9578a44" x="120.093086" y="231.192" style="stroke: #000000; stroke-width: 1.65"/>
      </g>
     </g>
     <g id="line2d_28">
      <g>
       <use xlink:href="#m9f091790c0" x="120.093086" y="167.90103" style="stroke: #000000; stroke-width: 1.65"/>
      </g>
     </g>
     <g id="text_11">
      <!-- 2 -->
      <g transform="translate(116.440234 242.670359) scale(0.105 -0.105)">
       <defs>
        <path id="DejaVuSans-Bold-32" d="M 1844 884 
L 3897 884 
L 3897 0 
L 506 0 
L 506 884 
L 2209 2388 
Q 2438 2594 2547 2791 
Q 2656 2988 2656 3200 
Q 2656 3528 2436 3728 
Q 2216 3928 1850 3928 
Q 1569 3928 1234 3808 
Q 900 3688 519 3450 
L 519 4475 
Q 925 4609 1322 4679 
Q 1719 4750 2100 4750 
Q 2938 4750 3402 4381 
Q 3866 4013 3866 3353 
Q 3866 2972 3669 2642 
Q 3472 2313 2841 1759 
L 1844 884 
z
" transform="scale(0.015625)"/>
       </defs>
       <use xlink:href="#DejaVuSans-Bold-32"/>
      </g>
     </g>
    </g>
    <g id="xtick_9">
     <g id="line2d_29">
      <g>
       <use xlink:href="#mfcb9578a44" x="146.564514" y="231.192" style="stroke: #000000; stroke-width: 1.65"/>
      </g>
     </g>
     <g id="line2d_30">
      <g>
       <use xlink:href="#m9f091790c0" x="146.564514" y="167.90103" style="stroke: #000000; stroke-width: 1.65"/>
      </g>
     </g>
     <g id="text_12">
      <!-- 3 -->
      <g transform="translate(142.911663 242.670359) scale(0.105 -0.105)">
       <defs>
        <path id="DejaVuSans-Bold-33" d="M 2981 2516 
Q 3453 2394 3698 2092 
Q 3944 1791 3944 1325 
Q 3944 631 3412 270 
Q 2881 -91 1863 -91 
Q 1503 -91 1142 -33 
Q 781 25 428 141 
L 428 1069 
Q 766 900 1098 814 
Q 1431 728 1753 728 
Q 2231 728 2486 893 
Q 2741 1059 2741 1369 
Q 2741 1688 2480 1852 
Q 2219 2016 1709 2016 
L 1228 2016 
L 1228 2791 
L 1734 2791 
Q 2188 2791 2409 2933 
Q 2631 3075 2631 3366 
Q 2631 3634 2415 3781 
Q 2200 3928 1806 3928 
Q 1516 3928 1219 3862 
Q 922 3797 628 3669 
L 628 4550 
Q 984 4650 1334 4700 
Q 1684 4750 2022 4750 
Q 2931 4750 3382 4451 
Q 3834 4153 3834 3553 
Q 3834 3144 3618 2883 
Q 3403 2622 2981 2516 
z
" transform="scale(0.015625)"/>
       </defs>
       <use xlink:href="#DejaVuSans-Bold-33"/>
      </g>
     </g>
    </g>
    <g id="xtick_10">
     <g id="line2d_31">
      <g>
       <use xlink:href="#mfcb9578a44" x="173.035943" y="231.192" style="stroke: #000000; stroke-width: 1.65"/>
      </g>
     </g>
     <g id="line2d_32">
      <g>
       <use xlink:href="#m9f091790c0" x="173.035943" y="167.90103" style="stroke: #000000; stroke-width: 1.65"/>
      </g>
     </g>
     <g id="text_13">
      <!-- 4 -->
      <g transform="translate(169.383091 242.670359) scale(0.105 -0.105)">
       <defs>
        <path id="DejaVuSans-Bold-34" d="M 2356 3675 
L 1038 1722 
L 2356 1722 
L 2356 3675 
z
M 2156 4666 
L 3494 4666 
L 3494 1722 
L 4159 1722 
L 4159 850 
L 3494 850 
L 3494 0 
L 2356 0 
L 2356 850 
L 288 850 
L 288 1881 
L 2156 4666 
z
" transform="scale(0.015625)"/>
       </defs>
       <use xlink:href="#DejaVuSans-Bold-34"/>
      </g>
     </g>
    </g>
    <g id="xtick_11">
     <g id="line2d_33">
      <g>
       <use xlink:href="#mfcb9578a44" x="199.507371" y="231.192" style="stroke: #000000; stroke-width: 1.65"/>
      </g>
     </g>
     <g id="line2d_34">
      <g>
       <use xlink:href="#m9f091790c0" x="199.507371" y="167.90103" style="stroke: #000000; stroke-width: 1.65"/>
      </g>
     </g>
     <g id="text_14">
      <!-- 5 -->
      <g transform="translate(195.85452 242.670359) scale(0.105 -0.105)">
       <use xlink:href="#DejaVuSans-Bold-35"/>
      </g>
     </g>
    </g>
    <g id="xtick_12">
     <g id="line2d_35">
      <g>
       <use xlink:href="#mfcb9578a44" x="225.9788" y="231.192" style="stroke: #000000; stroke-width: 1.65"/>
      </g>
     </g>
     <g id="line2d_36">
      <g>
       <use xlink:href="#m9f091790c0" x="225.9788" y="167.90103" style="stroke: #000000; stroke-width: 1.65"/>
      </g>
     </g>
     <g id="text_15">
      <!-- 6 -->
      <g transform="translate(222.325948 242.670359) scale(0.105 -0.105)">
       <defs>
        <path id="DejaVuSans-Bold-36" d="M 2316 2303 
Q 2000 2303 1842 2098 
Q 1684 1894 1684 1484 
Q 1684 1075 1842 870 
Q 2000 666 2316 666 
Q 2634 666 2792 870 
Q 2950 1075 2950 1484 
Q 2950 1894 2792 2098 
Q 2634 2303 2316 2303 
z
M 3803 4544 
L 3803 3681 
Q 3506 3822 3243 3889 
Q 2981 3956 2731 3956 
Q 2194 3956 1894 3657 
Q 1594 3359 1544 2772 
Q 1750 2925 1990 3001 
Q 2231 3078 2516 3078 
Q 3231 3078 3670 2659 
Q 4109 2241 4109 1563 
Q 4109 813 3618 361 
Q 3128 -91 2303 -91 
Q 1394 -91 895 523 
Q 397 1138 397 2266 
Q 397 3422 980 4083 
Q 1563 4744 2578 4744 
Q 2900 4744 3203 4694 
Q 3506 4644 3803 4544 
z
" transform="scale(0.015625)"/>
       </defs>
       <use xlink:href="#DejaVuSans-Bold-36"/>
      </g>
     </g>
    </g>
    <g id="text_16">
     <!-- $R$ ($\AA$) -->
     <g transform="translate(134.6338 261.060437) scale(0.13 -0.13)">
      <defs>
       <path id="DejaVuSans-Oblique-c5" d="M 3188 5081 
Q 3188 5278 3048 5417 
Q 2909 5556 2713 5556 
Q 2513 5556 2377 5420 
Q 2241 5284 2241 5081 
Q 2241 4884 2377 4746 
Q 2513 4609 2713 4609 
Q 2909 4609 3048 4746 
Q 3188 4884 3188 5081 
z
M 2203 4397 
Q 2034 4513 1945 4689 
Q 1856 4866 1856 5081 
Q 1856 5438 2106 5689 
Q 2356 5941 2713 5941 
Q 3069 5941 3320 5689 
Q 3572 5438 3572 5081 
Q 3572 4834 3458 4643 
Q 3344 4453 3128 4341 
L 3938 0 
L 3278 0 
L 3084 1197 
L 984 1197 
L 325 0 
L -341 0 
L 2203 4397 
z
M 2584 4044 
L 1275 1722 
L 2988 1722 
L 2584 4044 
z
" transform="scale(0.015625)"/>
      </defs>
      <use xlink:href="#DejaVuSans-Oblique-52" transform="translate(0 0.171875)"/>
      <use xlink:href="#DejaVuSans-Bold-20" transform="translate(69.482422 0.171875)"/>
      <use xlink:href="#DejaVuSans-Bold-28" transform="translate(104.296875 0.171875)"/>
      <use xlink:href="#DejaVuSans-Oblique-c5" transform="translate(150 0.171875)"/>
      <use xlink:href="#DejaVuSans-Bold-29" transform="translate(218.408203 0.171875)"/>
     </g>
    </g>
   </g>
   <g id="matplotlib.axis_4">
    <g id="ytick_5">
     <g id="line2d_37">
      <g>
       <use xlink:href="#mb2649f77ec" x="71.8092" y="221.744948" style="stroke: #000000; stroke-width: 1.65"/>
      </g>
     </g>
     <g id="line2d_38">
      <g>
       <use xlink:href="#m2e69991b19" x="231.9084" y="221.744948" style="stroke: #000000; stroke-width: 1.65"/>
      </g>
     </g>
     <g id="text_17">
      <!-- −250 -->
      <g transform="translate(37.593419 225.734128) scale(0.105 -0.105)">
       <use xlink:href="#DejaVuSans-Bold-2212"/>
       <use xlink:href="#DejaVuSans-Bold-32" transform="translate(83.789062 0)"/>
       <use xlink:href="#DejaVuSans-Bold-35" transform="translate(153.369141 0)"/>
       <use xlink:href="#DejaVuSans-Bold-30" transform="translate(222.949219 0)"/>
      </g>
     </g>
    </g>
    <g id="ytick_6">
     <g id="line2d_39">
      <g>
       <use xlink:href="#mb2649f77ec" x="71.8092" y="199.546515" style="stroke: #000000; stroke-width: 1.65"/>
      </g>
     </g>
     <g id="line2d_40">
      <g>
       <use xlink:href="#m2e69991b19" x="231.9084" y="199.546515" style="stroke: #000000; stroke-width: 1.65"/>
      </g>
     </g>
     <g id="text_18">
      <!-- 0 -->
      <g transform="translate(61.003497 203.535695) scale(0.105 -0.105)">
       <use xlink:href="#DejaVuSans-Bold-30"/>
      </g>
     </g>
    </g>
    <g id="ytick_7">
     <g id="line2d_41">
      <g>
       <use xlink:href="#mb2649f77ec" x="71.8092" y="177.348082" style="stroke: #000000; stroke-width: 1.65"/>
      </g>
     </g>
     <g id="line2d_42">
      <g>
       <use xlink:href="#m2e69991b19" x="231.9084" y="177.348082" style="stroke: #000000; stroke-width: 1.65"/>
      </g>
     </g>
     <g id="text_19">
      <!-- 250 -->
      <g transform="translate(46.392091 181.337261) scale(0.105 -0.105)">
       <use xlink:href="#DejaVuSans-Bold-32"/>
       <use xlink:href="#DejaVuSans-Bold-35" transform="translate(69.580078 0)"/>
       <use xlink:href="#DejaVuSans-Bold-30" transform="translate(139.160156 0)"/>
      </g>
     </g>
    </g>
    <g id="text_20">
     <!-- $\Delta E_0$ (meV) -->
     <g transform="translate(29.109434 232.846515) rotate(-90) scale(0.12 -0.12)">
      <defs>
       <path id="DejaVuSans-394" d="M 2188 4044 
L 906 525 
L 3472 525 
L 2188 4044 
z
M 50 0 
L 1831 4666 
L 2547 4666 
L 4325 0 
L 50 0 
z
" transform="scale(0.015625)"/>
       <path id="DejaVuSans-Bold-6d" d="M 3781 2919 
Q 3994 3244 4286 3414 
Q 4578 3584 4928 3584 
Q 5531 3584 5847 3212 
Q 6163 2841 6163 2131 
L 6163 0 
L 5038 0 
L 5038 1825 
Q 5041 1866 5042 1909 
Q 5044 1953 5044 2034 
Q 5044 2406 4934 2573 
Q 4825 2741 4581 2741 
Q 4263 2741 4089 2478 
Q 3916 2216 3909 1719 
L 3909 0 
L 2784 0 
L 2784 1825 
Q 2784 2406 2684 2573 
Q 2584 2741 2328 2741 
Q 2006 2741 1831 2477 
Q 1656 2213 1656 1722 
L 1656 0 
L 531 0 
L 531 3500 
L 1656 3500 
L 1656 2988 
Q 1863 3284 2130 3434 
Q 2397 3584 2719 3584 
Q 3081 3584 3359 3409 
Q 3638 3234 3781 2919 
z
" transform="scale(0.015625)"/>
       <path id="DejaVuSans-Bold-65" d="M 4031 1759 
L 4031 1441 
L 1416 1441 
Q 1456 1047 1700 850 
Q 1944 653 2381 653 
Q 2734 653 3104 758 
Q 3475 863 3866 1075 
L 3866 213 
Q 3469 63 3072 -14 
Q 2675 -91 2278 -91 
Q 1328 -91 801 392 
Q 275 875 275 1747 
Q 275 2603 792 3093 
Q 1309 3584 2216 3584 
Q 3041 3584 3536 3087 
Q 4031 2591 4031 1759 
z
M 2881 2131 
Q 2881 2450 2695 2645 
Q 2509 2841 2209 2841 
Q 1884 2841 1681 2658 
Q 1478 2475 1428 2131 
L 2881 2131 
z
" transform="scale(0.015625)"/>
       <path id="DejaVuSans-Bold-56" d="M 31 4666 
L 1241 4666 
L 2478 1222 
L 3713 4666 
L 4922 4666 
L 3194 0 
L 1759 0 
L 31 4666 
z
" transform="scale(0.015625)"/>
      </defs>
      <use xlink:href="#DejaVuSans-394" transform="translate(0 0.125)"/>
      <use xlink:href="#DejaVuSans-Oblique-45" transform="translate(68.408203 0.125)"/>
      <use xlink:href="#DejaVuSans-30" transform="translate(131.591797 -16.28125) scale(0.7)"/>
      <use xlink:href="#DejaVuSans-Bold-20" transform="translate(178.862305 0.125)"/>
      <use xlink:href="#DejaVuSans-Bold-28" transform="translate(213.676758 0.125)"/>
      <use xlink:href="#DejaVuSans-Bold-6d" transform="translate(259.379883 0.125)"/>
      <use xlink:href="#DejaVuSans-Bold-65" transform="translate(363.579102 0.125)"/>
      <use xlink:href="#DejaVuSans-Bold-56" transform="translate(431.401367 0.125)"/>
      <use xlink:href="#DejaVuSans-Bold-29" transform="translate(508.793945 0.125)"/>
     </g>
    </g>
   </g>
   <g id="line2d_43">
    <path d="M 71.8092 199.546515 
L 231.9084 199.546515 
" clip-path="url(#p2b047dc69d)" style="fill: none; stroke: #404040; stroke-width: 1.15; stroke-linecap: square"/>
   </g>
   <g id="patch_9">
    <path d="M 71.8092 231.192 
L 71.8092 167.90103 
" style="fill: none; stroke: #000000; stroke-width: 1.65; stroke-linejoin: miter; stroke-linecap: square"/>
   </g>
   <g id="patch_10">
    <path d="M 231.9084 231.192 
L 231.9084 167.90103 
" style="fill: none; stroke: #000000; stroke-width: 1.65; stroke-linejoin: miter; stroke-linecap: square"/>
   </g>
   <g id="patch_11">
    <path d="M 71.8092 231.192 
L 231.9084 231.192 
" style="fill: none; stroke: #000000; stroke-width: 1.65; stroke-linejoin: miter; stroke-linecap: square"/>
   </g>
   <g id="patch_12">
    <path d="M 71.8092 167.90103 
L 231.9084 167.90103 
" style="fill: none; stroke: #000000; stroke-width: 1.65; stroke-linejoin: miter; stroke-linecap: square"/>
   </g>
   <g id="line2d_44">
    <path d="M 77.7388 199.60804 
L 79.236174 194.995781 
L 80.733547 191.591544 
L 82.230921 189.21369 
L 83.728295 187.627449 
L 85.225669 186.761484 
L 86.723042 186.657931 
L 88.220416 187.284485 
L 89.71779 188.601708 
L 91.215164 190.445447 
L 92.712537 192.789566 
L 94.209911 195.46198 
L 95.707285 198.383746 
L 97.204659 201.513234 
L 98.702032 204.798221 
L 100.199406 208.14028 
L 101.69678 211.420998 
L 103.194154 214.577431 
L 104.691527 217.518701 
L 106.188901 220.097581 
L 107.686275 222.282068 
L 109.183648 223.983254 
L 110.681022 225.072939 
L 112.178396 225.485437 
L 113.67577 224.877082 
L 115.173143 222.330451 
L 116.670517 220.854529 
L 118.167891 221.122696 
L 119.665265 221.274316 
L 121.162638 220.388113 
L 122.660012 218.153281 
L 124.157386 214.838554 
L 125.65476 212.162153 
L 127.152133 210.16666 
L 128.649507 207.968197 
L 130.146881 205.303261 
L 131.644255 201.110799 
L 133.141628 194.773504 
L 134.639002 191.103371 
L 136.136376 194.277199 
L 137.633749 195.199075 
L 139.131123 198.240209 
L 140.628497 202.816228 
L 142.125871 205.887946 
L 143.623244 206.21679 
L 145.120618 206.595356 
L 146.617992 207.232326 
L 148.115366 207.854432 
L 149.612739 208.500437 
L 151.110113 208.260742 
L 152.607487 206.983886 
L 154.104861 206.114472 
L 155.602234 204.892278 
L 157.099608 203.13471 
L 158.596982 201.141346 
L 160.094356 199.108674 
L 161.591729 197.160122 
L 163.089103 195.288858 
L 164.586477 193.472835 
L 166.083851 191.794904 
L 167.581224 190.263659 
L 169.078598 188.876404 
L 170.575972 187.695573 
L 172.073345 186.688902 
L 173.570719 185.854768 
L 175.068093 185.221203 
L 176.565467 184.761185 
L 178.06284 184.457242 
L 179.560214 184.279756 
L 181.057588 184.253047 
L 182.554962 184.332551 
L 184.052335 184.516065 
L 185.549709 184.781987 
L 187.047083 185.132323 
L 188.544457 185.547187 
L 190.04183 186.020848 
L 191.539204 186.541592 
L 193.036578 187.09308 
L 194.533952 187.672307 
L 196.031325 188.27979 
L 197.528699 188.895582 
L 199.026073 189.518445 
L 200.523446 190.144563 
L 202.02082 190.771038 
L 203.518194 191.39734 
L 205.015568 192.018165 
L 206.512941 192.634801 
L 208.010315 193.242151 
L 209.507689 193.837691 
L 211.005063 194.422737 
L 212.502436 194.992749 
L 213.99981 195.547127 
L 215.497184 196.093621 
L 216.994558 196.624175 
L 218.491931 197.143676 
L 219.989305 197.651157 
L 221.486679 198.145743 
L 222.984053 198.626484 
L 224.481426 199.09463 
L 225.9788 199.550716 
" clip-path="url(#p2b047dc69d)" style="fill: none; stroke: #2b6cb0; stroke-width: 2.05; stroke-linecap: square"/>
   </g>
   <g id="text_21">
    <!-- $\pm 1$ kcal mol$^{-1}$ -->
    <g style="fill: #595959" transform="translate(158.62944 199.147245) scale(0.086 -0.086)">
     <defs>
      <path id="DejaVuSans-b1" d="M 2944 4013 
L 2944 2803 
L 4684 2803 
L 4684 2272 
L 2944 2272 
L 2944 1063 
L 2419 1063 
L 2419 2272 
L 678 2272 
L 678 2803 
L 2419 2803 
L 2419 4013 
L 2944 4013 
z
M 678 531 
L 4684 531 
L 4684 0 
L 678 0 
L 678 531 
z
" transform="scale(0.015625)"/>
      <path id="DejaVuSans-Bold-6b" d="M 538 4863 
L 1656 4863 
L 1656 2216 
L 2944 3500 
L 4244 3500 
L 2534 1894 
L 4378 0 
L 3022 0 
L 1656 1459 
L 1656 0 
L 538 0 
L 538 4863 
z
" transform="scale(0.015625)"/>
      <path id="DejaVuSans-Bold-63" d="M 3366 3391 
L 3366 2478 
Q 3138 2634 2908 2709 
Q 2678 2784 2431 2784 
Q 1963 2784 1702 2511 
Q 1441 2238 1441 1747 
Q 1441 1256 1702 982 
Q 1963 709 2431 709 
Q 2694 709 2930 787 
Q 3166 866 3366 1019 
L 3366 103 
Q 3103 6 2833 -42 
Q 2563 -91 2291 -91 
Q 1344 -91 809 395 
Q 275 881 275 1747 
Q 275 2613 809 3098 
Q 1344 3584 2291 3584 
Q 2566 3584 2833 3536 
Q 3100 3488 3366 3391 
z
" transform="scale(0.015625)"/>
      <path id="DejaVuSans-Bold-6c" d="M 538 4863 
L 1656 4863 
L 1656 0 
L 538 0 
L 538 4863 
z
" transform="scale(0.015625)"/>
      <path id="DejaVuSans-Bold-6f" d="M 2203 2784 
Q 1831 2784 1636 2517 
Q 1441 2250 1441 1747 
Q 1441 1244 1636 976 
Q 1831 709 2203 709 
Q 2569 709 2762 976 
Q 2956 1244 2956 1747 
Q 2956 2250 2762 2517 
Q 2569 2784 2203 2784 
z
M 2203 3584 
Q 3106 3584 3614 3096 
Q 4122 2609 4122 1747 
Q 4122 884 3614 396 
Q 3106 -91 2203 -91 
Q 1297 -91 786 396 
Q 275 884 275 1747 
Q 275 2609 786 3096 
Q 1297 3584 2203 3584 
z
" transform="scale(0.015625)"/>
      <path id="DejaVuSans-2212" d="M 678 2272 
L 4684 2272 
L 4684 1741 
L 678 1741 
L 678 2272 
z
" transform="scale(0.015625)"/>
     </defs>
     <use xlink:href="#DejaVuSans-b1" transform="translate(0 0.684375)"/>
     <use xlink:href="#DejaVuSans-31" transform="translate(83.789062 0.684375)"/>
     <use xlink:href="#DejaVuSans-Bold-20" transform="translate(147.412109 0.684375)"/>
     <use xlink:href="#DejaVuSans-Bold-6b" transform="translate(182.226562 0.684375)"/>
     <use xlink:href="#DejaVuSans-Bold-63" transform="translate(248.730469 0.684375)"/>
     <use xlink:href="#DejaVuSans-Bold-61" transform="translate(308.007812 0.684375)"/>
     <use xlink:href="#DejaVuSans-Bold-6c" transform="translate(375.488281 0.684375)"/>
     <use xlink:href="#DejaVuSans-Bold-20" transform="translate(409.765625 0.684375)"/>
     <use xlink:href="#DejaVuSans-Bold-6d" transform="translate(444.580078 0.684375)"/>
     <use xlink:href="#DejaVuSans-Bold-6f" transform="translate(548.779297 0.684375)"/>
     <use xlink:href="#DejaVuSans-Bold-6c" transform="translate(617.480469 0.684375)"/>
     <use xlink:href="#DejaVuSans-2212" transform="translate(652.714844 38.965625) scale(0.7)"/>
     <use xlink:href="#DejaVuSans-31" transform="translate(711.367188 38.965625) scale(0.7)"/>
    </g>
   </g>
   <g id="PathCollection_3">
    <defs>
     <path id="ma68120ab6d" d="M -0 4.123106 
L 4.123106 0 
L 0 -4.123106 
L -4.123106 -0 
z
" style="stroke: #ffffff; stroke-width: 0.9"/>
    </defs>
    <g clip-path="url(#p2b047dc69d)">
     <use xlink:href="#ma68120ab6d" x="77.7388" y="199.546515" style="fill: #b2182b; stroke: #ffffff; stroke-width: 0.9"/>
     <use xlink:href="#ma68120ab6d" x="102.445467" y="199.546515" style="fill: #b2182b; stroke: #ffffff; stroke-width: 0.9"/>
     <use xlink:href="#ma68120ab6d" x="127.152133" y="199.546515" style="fill: #b2182b; stroke: #ffffff; stroke-width: 0.9"/>
     <use xlink:href="#ma68120ab6d" x="151.8588" y="199.546515" style="fill: #b2182b; stroke: #ffffff; stroke-width: 0.9"/>
     <use xlink:href="#ma68120ab6d" x="176.565467" y="199.546515" style="fill: #b2182b; stroke: #ffffff; stroke-width: 0.9"/>
     <use xlink:href="#ma68120ab6d" x="201.272133" y="199.546515" style="fill: #b2182b; stroke: #ffffff; stroke-width: 0.9"/>
     <use xlink:href="#ma68120ab6d" x="225.9788" y="199.546515" style="fill: #b2182b; stroke: #ffffff; stroke-width: 0.9"/>
    </g>
   </g>
  </g>
 </g>
 <defs>
  <clipPath id="p5ad34f1e9b">
   <rect x="71.8092" y="4.104" width="160.0992" height="155.062876"/>
  </clipPath>
  <clipPath id="p2b047dc69d">
   <rect x="71.8092" y="167.90103" width="160.0992" height="63.29097"/>
  </clipPath>
 </defs>
</svg>
