<?xml version="1.0" encoding="utf-8" standalone="no"?>
<!DOCTYPE svg PUBLIC "-//W3C//DTD SVG 1.1//EN"
  "http://www.w3.org/Graphics/SVG/1.1/DTD/svg11.dtd">
<svg xmlns:xlink="http://www.w3.org/1999/xlink" width="482.4pt" height="273.6pt" viewBox="0 0 482.4 273.6" xmlns="http://www.w3.org/2000/svg" version="1.1">
 <metadata>
  <rdf:RDF xmlns:dc="http://purl.org/dc/elements/1.1/" xmlns:cc="http://creativecommons.org/ns#" xmlns:rdf="http://www.w3.org/1999/02/22-rdf-syntax-ns#">
   <cc:Work>
    <dc:type rdf:resource="http://purl.org/dc/dcmitype/StillImage"/>
    <dc:date>2026-06-23T14:45:34.996179</dc:date>
    <dc:format>image/svg+xml</dc:format>
    <dc:creator>
     <cc:Agent>
      <dc:title>Matplotlib v3.10.8, https://matplotlib.org/</dc:title>
     </cc:Agent>
    </dc:creator>
   </cc:Work>
  </rdf:RDF>
 </metadata>
 <defs>
  <style type="text/css">*{stroke-linejoin: round; stroke-linecap: butt}</style>
 </defs>
 <g id="figure_1">
  <g id="patch_1">
   <path d="M 0 273.6 
L 482.4 273.6 
L 482.4 0 
L 0 0 
z
" style="fill: #ffffff"/>
  </g>
  <g id="axes_1">
   <g id="patch_2">
    <path d="M 69.948 159.427208 
L 250.741274 159.427208 
L 250.741274 4.9248 
L 69.948 4.9248 
z
" style="fill: #ffffff"/>
   </g>
   <g id="matplotlib.axis_1">
    <g id="xtick_1">
     <g id="line2d_1">
      <defs>
       <path id="m5fbd95c36b" d="M 0 0 
L 0 -4.8 
" style="stroke: #000000; stroke-width: 1.65"/>
      </defs>
      <g>
       <use xlink:href="#m5fbd95c36b" x="91.862336" y="159.427208" style="stroke: #000000; stroke-width: 1.65"/>
      </g>
     </g>
     <g id="line2d_2">
      <defs>
       <path id="md9e3d3c757" d="M 0 0 
L 0 4.8 
" style="stroke: #000000; stroke-width: 1.65"/>
      </defs>
      <g>
       <use xlink:href="#md9e3d3c757" x="91.862336" y="4.9248" style="stroke: #000000; stroke-width: 1.65"/>
      </g>
     </g>
     <g id="text_1">
      <!-- 1.0 -->
      <g transform="translate(82.562453 170.905567) scale(0.105 -0.105)">
       <defs>
        <path id="DejaVuSans-Bold-31" d="M 750 831 
L 1813 831 
L 1813 3847 
L 722 3622 
L 722 4441 
L 1806 4666 
L 2950 4666 
L 2950 831 
L 4013 831 
L 4013 0 
L 750 0 
L 750 831 
z
" transform="scale(0.015625)"/>
        <path id="DejaVuSans-Bold-2e" d="M 653 1209 
L 1778 1209 
L 1778 0 
L 653 0 
L 653 1209 
z
" transform="scale(0.015625)"/>
        <path id="DejaVuSans-Bold-30" d="M 2944 2338 
Q 2944 3213 2780 3570 
Q 2616 3928 2228 3928 
Q 1841 3928 1675 3570 
Q 1509 3213 1509 2338 
Q 1509 1453 1675 1090 
Q 1841 728 2228 728 
Q 2613 728 2778 1090 
Q 2944 1453 2944 2338 
z
M 4147 2328 
Q 4147 1169 3647 539 
Q 3147 -91 2228 -91 
Q 1306 -91 806 539 
Q 306 1169 306 2328 
Q 306 3491 806 4120 
Q 1306 4750 2228 4750 
Q 3147 4750 3647 4120 
Q 4147 3491 4147 2328 
z
" transform="scale(0.015625)"/>
       </defs>
       <use xlink:href="#DejaVuSans-Bold-31"/>
       <use xlink:href="#DejaVuSans-Bold-2e" transform="translate(69.580078 0)"/>
       <use xlink:href="#DejaVuSans-Bold-30" transform="translate(107.568359 0)"/>
      </g>
     </g>
    </g>
    <g id="xtick_2">
     <g id="line2d_3">
      <g>
       <use xlink:href="#m5fbd95c36b" x="129.908059" y="159.427208" style="stroke: #000000; stroke-width: 1.65"/>
      </g>
     </g>
     <g id="line2d_4">
      <g>
       <use xlink:href="#md9e3d3c757" x="129.908059" y="4.9248" style="stroke: #000000; stroke-width: 1.65"/>
      </g>
     </g>
     <g id="text_2">
      <!-- 1.5 -->
      <g transform="translate(120.608176 170.905567) scale(0.105 -0.105)">
       <defs>
        <path id="DejaVuSans-Bold-35" d="M 678 4666 
L 3669 4666 
L 3669 3781 
L 1638 3781 
L 1638 3059 
Q 1775 3097 1914 3117 
Q 2053 3138 2203 3138 
Q 3056 3138 3531 2711 
Q 4006 2284 4006 1522 
Q 4006 766 3489 337 
Q 2972 -91 2053 -91 
Q 1656 -91 1267 -14 
Q 878 63 494 219 
L 494 1166 
Q 875 947 1217 837 
Q 1559 728 1863 728 
Q 2300 728 2551 942 
Q 2803 1156 2803 1522 
Q 2803 1891 2551 2103 
Q 2300 2316 1863 2316 
Q 1603 2316 1309 2248 
Q 1016 2181 678 2041 
L 678 4666 
z
" transform="scale(0.015625)"/>
       </defs>
       <use xlink:href="#DejaVuSans-Bold-31"/>
       <use xlink:href="#DejaVuSans-Bold-2e" transform="translate(69.580078 0)"/>
       <use xlink:href="#DejaVuSans-Bold-35" transform="translate(107.568359 0)"/>
      </g>
     </g>
    </g>
    <g id="xtick_3">
     <g id="line2d_5">
      <g>
       <use xlink:href="#m5fbd95c36b" x="167.953782" y="159.427208" style="stroke: #000000; stroke-width: 1.65"/>
      </g>
     </g>
     <g id="line2d_6">
      <g>
       <use xlink:href="#md9e3d3c757" x="167.953782" y="4.9248" style="stroke: #000000; stroke-width: 1.65"/>
      </g>
     </g>
     <g id="text_3">
      <!-- 2.0 -->
      <g transform="translate(158.653899 170.905567) scale(0.105 -0.105)">
       <defs>
        <path id="DejaVuSans-Bold-32" d="M 1844 884 
L 3897 884 
L 3897 0 
L 506 0 
L 506 884 
L 2209 2388 
Q 2438 2594 2547 2791 
Q 2656 2988 2656 3200 
Q 2656 3528 2436 3728 
Q 2216 3928 1850 3928 
Q 1569 3928 1234 3808 
Q 900 3688 519 3450 
L 519 4475 
Q 925 4609 1322 4679 
Q 1719 4750 2100 4750 
Q 2938 4750 3402 4381 
Q 3866 4013 3866 3353 
Q 3866 2972 3669 2642 
Q 3472 2313 2841 1759 
L 1844 884 
z
" transform="scale(0.015625)"/>
       </defs>
       <use xlink:href="#DejaVuSans-Bold-32"/>
       <use xlink:href="#DejaVuSans-Bold-2e" transform="translate(69.580078 0)"/>
       <use xlink:href="#DejaVuSans-Bold-30" transform="translate(107.568359 0)"/>
      </g>
     </g>
    </g>
    <g id="xtick_4">
     <g id="line2d_7">
      <g>
       <use xlink:href="#m5fbd95c36b" x="205.999504" y="159.427208" style="stroke: #000000; stroke-width: 1.65"/>
      </g>
     </g>
     <g id="line2d_8">
      <g>
       <use xlink:href="#md9e3d3c757" x="205.999504" y="4.9248" style="stroke: #000000; stroke-width: 1.65"/>
      </g>
     </g>
     <g id="text_4">
      <!-- 2.5 -->
      <g transform="translate(196.699622 170.905567) scale(0.105 -0.105)">
       <use xlink:href="#DejaVuSans-Bold-32"/>
       <use xlink:href="#DejaVuSans-Bold-2e" transform="translate(69.580078 0)"/>
       <use xlink:href="#DejaVuSans-Bold-35" transform="translate(107.568359 0)"/>
      </g>
     </g>
    </g>
    <g id="xtick_5">
     <g id="line2d_9">
      <g>
       <use xlink:href="#m5fbd95c36b" x="244.045227" y="159.427208" style="stroke: #000000; stroke-width: 1.65"/>
      </g>
     </g>
     <g id="line2d_10">
      <g>
       <use xlink:href="#md9e3d3c757" x="244.045227" y="4.9248" style="stroke: #000000; stroke-width: 1.65"/>
      </g>
     </g>
     <g id="text_5">
      <!-- 3.0 -->
      <g transform="translate(234.745344 170.905567) scale(0.105 -0.105)">
       <defs>
        <path id="DejaVuSans-Bold-33" d="M 2981 2516 
Q 3453 2394 3698 2092 
Q 3944 1791 3944 1325 
Q 3944 631 3412 270 
Q 2881 -91 1863 -91 
Q 1503 -91 1142 -33 
Q 781 25 428 141 
L 428 1069 
Q 766 900 1098 814 
Q 1431 728 1753 728 
Q 2231 728 2486 893 
Q 2741 1059 2741 1369 
Q 2741 1688 2480 1852 
Q 2219 2016 1709 2016 
L 1228 2016 
L 1228 2791 
L 1734 2791 
Q 2188 2791 2409 2933 
Q 2631 3075 2631 3366 
Q 2631 3634 2415 3781 
Q 2200 3928 1806 3928 
Q 1516 3928 1219 3862 
Q 922 3797 628 3669 
L 628 4550 
Q 984 4650 1334 4700 
Q 1684 4750 2022 4750 
Q 2931 4750 3382 4451 
Q 3834 4153 3834 3553 
Q 3834 3144 3618 2883 
Q 3403 2622 2981 2516 
z
" transform="scale(0.015625)"/>
       </defs>
       <use xlink:href="#DejaVuSans-Bold-33"/>
       <use xlink:href="#DejaVuSans-Bold-2e" transform="translate(69.580078 0)"/>
       <use xlink:href="#DejaVuSans-Bold-30" transform="translate(107.568359 0)"/>
      </g>
     </g>
    </g>
   </g>
   <g id="matplotlib.axis_2">
    <g id="ytick_1">
     <g id="line2d_11">
      <defs>
       <path id="meebd0662bf" d="M 0 0 
L 4.8 0 
" style="stroke: #000000; stroke-width: 1.65"/>
      </defs>
      <g>
       <use xlink:href="#meebd0662bf" x="69.948" y="155.48869" style="stroke: #000000; stroke-width: 1.65"/>
      </g>
     </g>
     <g id="line2d_12">
      <defs>
       <path id="m95dd516b3c" d="M 0 0 
L -4.8 0 
" style="stroke: #000000; stroke-width: 1.65"/>
      </defs>
      <g>
       <use xlink:href="#m95dd516b3c" x="250.741274" y="155.48869" style="stroke: #000000; stroke-width: 1.65"/>
      </g>
     </g>
     <g id="text_6">
      <!-- −109.6 -->
      <g transform="translate(24.438156 159.477869) scale(0.105 -0.105)">
       <defs>
        <path id="DejaVuSans-Bold-2212" d="M 678 2375 
L 4684 2375 
L 4684 1638 
L 678 1638 
L 678 2375 
z
" transform="scale(0.015625)"/>
        <path id="DejaVuSans-Bold-39" d="M 641 103 
L 641 966 
Q 928 831 1190 764 
Q 1453 697 1709 697 
Q 2247 697 2547 995 
Q 2847 1294 2900 1881 
Q 2688 1725 2447 1647 
Q 2206 1569 1925 1569 
Q 1209 1569 770 1986 
Q 331 2403 331 3084 
Q 331 3838 820 4291 
Q 1309 4744 2131 4744 
Q 3044 4744 3544 4128 
Q 4044 3513 4044 2388 
Q 4044 1231 3459 570 
Q 2875 -91 1856 -91 
Q 1528 -91 1228 -42 
Q 928 6 641 103 
z
M 2125 2350 
Q 2441 2350 2600 2554 
Q 2759 2759 2759 3169 
Q 2759 3575 2600 3781 
Q 2441 3988 2125 3988 
Q 1809 3988 1650 3781 
Q 1491 3575 1491 3169 
Q 1491 2759 1650 2554 
Q 1809 2350 2125 2350 
z
" transform="scale(0.015625)"/>
        <path id="DejaVuSans-Bold-36" d="M 2316 2303 
Q 2000 2303 1842 2098 
Q 1684 1894 1684 1484 
Q 1684 1075 1842 870 
Q 2000 666 2316 666 
Q 2634 666 2792 870 
Q 2950 1075 2950 1484 
Q 2950 1894 2792 2098 
Q 2634 2303 2316 2303 
z
M 3803 4544 
L 3803 3681 
Q 3506 3822 3243 3889 
Q 2981 3956 2731 3956 
Q 2194 3956 1894 3657 
Q 1594 3359 1544 2772 
Q 1750 2925 1990 3001 
Q 2231 3078 2516 3078 
Q 3231 3078 3670 2659 
Q 4109 2241 4109 1563 
Q 4109 813 3618 361 
Q 3128 -91 2303 -91 
Q 1394 -91 895 523 
Q 397 1138 397 2266 
Q 397 3422 980 4083 
Q 1563 4744 2578 4744 
Q 2900 4744 3203 4694 
Q 3506 4644 3803 4544 
z
" transform="scale(0.015625)"/>
       </defs>
       <use xlink:href="#DejaVuSans-Bold-2212"/>
       <use xlink:href="#DejaVuSans-Bold-31" transform="translate(83.789062 0)"/>
       <use xlink:href="#DejaVuSans-Bold-30" transform="translate(153.369141 0)"/>
       <use xlink:href="#DejaVuSans-Bold-39" transform="translate(222.949219 0)"/>
       <use xlink:href="#DejaVuSans-Bold-2e" transform="translate(292.529297 0)"/>
       <use xlink:href="#DejaVuSans-Bold-36" transform="translate(330.517578 0)"/>
      </g>
     </g>
    </g>
    <g id="ytick_2">
     <g id="line2d_13">
      <g>
       <use xlink:href="#meebd0662bf" x="69.948" y="128.096875" style="stroke: #000000; stroke-width: 1.65"/>
      </g>
     </g>
     <g id="line2d_14">
      <g>
       <use xlink:href="#m95dd516b3c" x="250.741274" y="128.096875" style="stroke: #000000; stroke-width: 1.65"/>
      </g>
     </g>
     <g id="text_7">
      <!-- −109.5 -->
      <g transform="translate(24.438156 132.086055) scale(0.105 -0.105)">
       <use xlink:href="#DejaVuSans-Bold-2212"/>
       <use xlink:href="#DejaVuSans-Bold-31" transform="translate(83.789062 0)"/>
       <use xlink:href="#DejaVuSans-Bold-30" transform="translate(153.369141 0)"/>
       <use xlink:href="#DejaVuSans-Bold-39" transform="translate(222.949219 0)"/>
       <use xlink:href="#DejaVuSans-Bold-2e" transform="translate(292.529297 0)"/>
       <use xlink:href="#DejaVuSans-Bold-35" transform="translate(330.517578 0)"/>
      </g>
     </g>
    </g>
    <g id="ytick_3">
     <g id="line2d_15">
      <g>
       <use xlink:href="#meebd0662bf" x="69.948" y="100.70506" style="stroke: #000000; stroke-width: 1.65"/>
      </g>
     </g>
     <g id="line2d_16">
      <g>
       <use xlink:href="#m95dd516b3c" x="250.741274" y="100.70506" style="stroke: #000000; stroke-width: 1.65"/>
      </g>
     </g>
     <g id="text_8">
      <!-- −109.4 -->
      <g transform="translate(24.438156 104.69424) scale(0.105 -0.105)">
       <defs>
        <path id="DejaVuSans-Bold-34" d="M 2356 3675 
L 1038 1722 
L 2356 1722 
L 2356 3675 
z
M 2156 4666 
L 3494 4666 
L 3494 1722 
L 4159 1722 
L 4159 850 
L 3494 850 
L 3494 0 
L 2356 0 
L 2356 850 
L 288 850 
L 288 1881 
L 2156 4666 
z
" transform="scale(0.015625)"/>
       </defs>
       <use xlink:href="#DejaVuSans-Bold-2212"/>
       <use xlink:href="#DejaVuSans-Bold-31" transform="translate(83.789062 0)"/>
       <use xlink:href="#DejaVuSans-Bold-30" transform="translate(153.369141 0)"/>
       <use xlink:href="#DejaVuSans-Bold-39" transform="translate(222.949219 0)"/>
       <use xlink:href="#DejaVuSans-Bold-2e" transform="translate(292.529297 0)"/>
       <use xlink:href="#DejaVuSans-Bold-34" transform="translate(330.517578 0)"/>
      </g>
     </g>
    </g>
    <g id="ytick_4">
     <g id="line2d_17">
      <g>
       <use xlink:href="#meebd0662bf" x="69.948" y="73.313245" style="stroke: #000000; stroke-width: 1.65"/>
      </g>
     </g>
     <g id="line2d_18">
      <g>
       <use xlink:href="#m95dd516b3c" x="250.741274" y="73.313245" style="stroke: #000000; stroke-width: 1.65"/>
      </g>
     </g>
     <g id="text_9">
      <!-- −109.3 -->
      <g transform="translate(24.438156 77.302425) scale(0.105 -0.105)">
       <use xlink:href="#DejaVuSans-Bold-2212"/>
       <use xlink:href="#DejaVuSans-Bold-31" transform="translate(83.789062 0)"/>
       <use xlink:href="#DejaVuSans-Bold-30" transform="translate(153.369141 0)"/>
       <use xlink:href="#DejaVuSans-Bold-39" transform="translate(222.949219 0)"/>
       <use xlink:href="#DejaVuSans-Bold-2e" transform="translate(292.529297 0)"/>
       <use xlink:href="#DejaVuSans-Bold-33" transform="translate(330.517578 0)"/>
      </g>
     </g>
    </g>
    <g id="ytick_5">
     <g id="line2d_19">
      <g>
       <use xlink:href="#meebd0662bf" x="69.948" y="45.921431" style="stroke: #000000; stroke-width: 1.65"/>
      </g>
     </g>
     <g id="line2d_20">
      <g>
       <use xlink:href="#m95dd516b3c" x="250.741274" y="45.921431" style="stroke: #000000; stroke-width: 1.65"/>
      </g>
     </g>
     <g id="text_10">
      <!-- −109.2 -->
      <g transform="translate(24.438156 49.91061) scale(0.105 -0.105)">
       <use xlink:href="#DejaVuSans-Bold-2212"/>
       <use xlink:href="#DejaVuSans-Bold-31" transform="translate(83.789062 0)"/>
       <use xlink:href="#DejaVuSans-Bold-30" transform="translate(153.369141 0)"/>
       <use xlink:href="#DejaVuSans-Bold-39" transform="translate(222.949219 0)"/>
       <use xlink:href="#DejaVuSans-Bold-2e" transform="translate(292.529297 0)"/>
       <use xlink:href="#DejaVuSans-Bold-32" transform="translate(330.517578 0)"/>
      </g>
     </g>
    </g>
    <g id="ytick_6">
     <g id="line2d_21">
      <g>
       <use xlink:href="#meebd0662bf" x="69.948" y="18.529616" style="stroke: #000000; stroke-width: 1.65"/>
      </g>
     </g>
     <g id="line2d_22">
      <g>
       <use xlink:href="#m95dd516b3c" x="250.741274" y="18.529616" style="stroke: #000000; stroke-width: 1.65"/>
      </g>
     </g>
     <g id="text_11">
      <!-- −109.1 -->
      <g transform="translate(24.438156 22.518796) scale(0.105 -0.105)">
       <use xlink:href="#DejaVuSans-Bold-2212"/>
       <use xlink:href="#DejaVuSans-Bold-31" transform="translate(83.789062 0)"/>
       <use xlink:href="#DejaVuSans-Bold-30" transform="translate(153.369141 0)"/>
       <use xlink:href="#DejaVuSans-Bold-39" transform="translate(222.949219 0)"/>
       <use xlink:href="#DejaVuSans-Bold-2e" transform="translate(292.529297 0)"/>
       <use xlink:href="#DejaVuSans-Bold-31" transform="translate(330.517578 0)"/>
      </g>
     </g>
    </g>
    <g id="text_12">
     <!-- $E_0(R)$ (Ha) -->
     <g transform="translate(19.838547 115.676004) rotate(-90) scale(0.125 -0.125)">
      <defs>
       <path id="DejaVuSans-Oblique-45" d="M 1081 4666 
L 4031 4666 
L 3928 4134 
L 1606 4134 
L 1338 2753 
L 3566 2753 
L 3463 2222 
L 1234 2222 
L 909 531 
L 3284 531 
L 3181 0 
L 172 0 
L 1081 4666 
z
" transform="scale(0.015625)"/>
       <path id="DejaVuSans-30" d="M 2034 4250 
Q 1547 4250 1301 3770 
Q 1056 3291 1056 2328 
Q 1056 1369 1301 889 
Q 1547 409 2034 409 
Q 2525 409 2770 889 
Q 3016 1369 3016 2328 
Q 3016 3291 2770 3770 
Q 2525 4250 2034 4250 
z
M 2034 4750 
Q 2819 4750 3233 4129 
Q 3647 3509 3647 2328 
Q 3647 1150 3233 529 
Q 2819 -91 2034 -91 
Q 1250 -91 836 529 
Q 422 1150 422 2328 
Q 422 3509 836 4129 
Q 1250 4750 2034 4750 
z
" transform="scale(0.015625)"/>
       <path id="DejaVuSans-28" d="M 1984 4856 
Q 1566 4138 1362 3434 
Q 1159 2731 1159 2009 
Q 1159 1288 1364 580 
Q 1569 -128 1984 -844 
L 1484 -844 
Q 1016 -109 783 600 
Q 550 1309 550 2009 
Q 550 2706 781 3412 
Q 1013 4119 1484 4856 
L 1984 4856 
z
" transform="scale(0.015625)"/>
       <path id="DejaVuSans-Oblique-52" d="M 1613 4147 
L 1294 2491 
L 2106 2491 
Q 2584 2491 2879 2755 
Q 3175 3019 3175 3444 
Q 3175 3784 2976 3965 
Q 2778 4147 2406 4147 
L 1613 4147 
z
M 2772 2241 
Q 2972 2194 3105 2009 
Q 3238 1825 3413 1275 
L 3809 0 
L 3144 0 
L 2778 1197 
Q 2638 1659 2453 1815 
Q 2269 1972 1888 1972 
L 1191 1972 
L 806 0 
L 172 0 
L 1081 4666 
L 2503 4666 
Q 3150 4666 3495 4373 
Q 3841 4081 3841 3531 
Q 3841 3044 3547 2687 
Q 3253 2331 2772 2241 
z
" transform="scale(0.015625)"/>
       <path id="DejaVuSans-29" d="M 513 4856 
L 1013 4856 
Q 1481 4119 1714 3412 
Q 1947 2706 1947 2009 
Q 1947 1309 1714 600 
Q 1481 -109 1013 -844 
L 513 -844 
Q 928 -128 1133 580 
Q 1338 1288 1338 2009 
Q 1338 2731 1133 3434 
Q 928 4138 513 4856 
z
" transform="scale(0.015625)"/>
       <path id="DejaVuSans-Bold-20" transform="scale(0.015625)"/>
       <path id="DejaVuSans-Bold-28" d="M 2413 -844 
L 1484 -844 
Q 1006 -72 778 623 
Q 550 1319 550 2003 
Q 550 2688 779 3389 
Q 1009 4091 1484 4856 
L 2413 4856 
Q 2013 4116 1813 3408 
Q 1613 2700 1613 2009 
Q 1613 1319 1811 609 
Q 2009 -100 2413 -844 
z
" transform="scale(0.015625)"/>
       <path id="DejaVuSans-Bold-48" d="M 588 4666 
L 1791 4666 
L 1791 2888 
L 3566 2888 
L 3566 4666 
L 4769 4666 
L 4769 0 
L 3566 0 
L 3566 1978 
L 1791 1978 
L 1791 0 
L 588 0 
L 588 4666 
z
" transform="scale(0.015625)"/>
       <path id="DejaVuSans-Bold-61" d="M 2106 1575 
Q 1756 1575 1579 1456 
Q 1403 1338 1403 1106 
Q 1403 894 1545 773 
Q 1688 653 1941 653 
Q 2256 653 2472 879 
Q 2688 1106 2688 1447 
L 2688 1575 
L 2106 1575 
z
M 3816 1997 
L 3816 0 
L 2688 0 
L 2688 519 
Q 2463 200 2181 54 
Q 1900 -91 1497 -91 
Q 953 -91 614 226 
Q 275 544 275 1050 
Q 275 1666 698 1953 
Q 1122 2241 2028 2241 
L 2688 2241 
L 2688 2328 
Q 2688 2594 2478 2717 
Q 2269 2841 1825 2841 
Q 1466 2841 1156 2769 
Q 847 2697 581 2553 
L 581 3406 
Q 941 3494 1303 3539 
Q 1666 3584 2028 3584 
Q 2975 3584 3395 3211 
Q 3816 2838 3816 1997 
z
" transform="scale(0.015625)"/>
       <path id="DejaVuSans-Bold-29" d="M 513 -844 
Q 913 -100 1113 609 
Q 1313 1319 1313 2009 
Q 1313 2700 1113 3408 
Q 913 4116 513 4856 
L 1441 4856 
Q 1916 4091 2145 3389 
Q 2375 2688 2375 2003 
Q 2375 1319 2147 623 
Q 1919 -72 1441 -844 
L 513 -844 
z
" transform="scale(0.015625)"/>
      </defs>
      <use xlink:href="#DejaVuSans-Oblique-45" transform="translate(0 0.125)"/>
      <use xlink:href="#DejaVuSans-30" transform="translate(63.183594 -16.28125) scale(0.7)"/>
      <use xlink:href="#DejaVuSans-28" transform="translate(110.454102 0.125)"/>
      <use xlink:href="#DejaVuSans-Oblique-52" transform="translate(149.467773 0.125)"/>
      <use xlink:href="#DejaVuSans-29" transform="translate(218.950195 0.125)"/>
      <use xlink:href="#DejaVuSans-Bold-20" transform="translate(257.963867 0.125)"/>
      <use xlink:href="#DejaVuSans-Bold-28" transform="translate(292.77832 0.125)"/>
      <use xlink:href="#DejaVuSans-Bold-48" transform="translate(338.481445 0.125)"/>
      <use xlink:href="#DejaVuSans-Bold-61" transform="translate(422.172852 0.125)"/>
      <use xlink:href="#DejaVuSans-Bold-29" transform="translate(489.65332 0.125)"/>
     </g>
    </g>
   </g>
   <g id="patch_3">
    <path d="M 69.948 159.427208 
L 69.948 4.9248 
" style="fill: none; stroke: #000000; stroke-width: 1.65; stroke-linejoin: miter; stroke-linecap: square"/>
   </g>
   <g id="patch_4">
    <path d="M 250.741274 159.427208 
L 250.741274 4.9248 
" style="fill: none; stroke: #000000; stroke-width: 1.65; stroke-linejoin: miter; stroke-linecap: square"/>
   </g>
   <g id="patch_5">
    <path d="M 69.948 159.427208 
L 250.741274 159.427208 
" style="fill: none; stroke: #000000; stroke-width: 1.65; stroke-linejoin: miter; stroke-linecap: square"/>
   </g>
   <g id="patch_6">
    <path d="M 69.948 4.9248 
L 250.741274 4.9248 
" style="fill: none; stroke: #000000; stroke-width: 1.65; stroke-linejoin: miter; stroke-linecap: square"/>
   </g>
   <g id="text_13">
    <!-- (a) N$_2$ -->
    <g transform="translate(82.603529 43.525015) scale(0.142 -0.142)">
     <defs>
      <path id="DejaVuSans-Bold-4e" d="M 588 4666 
L 1931 4666 
L 3628 1466 
L 3628 4666 
L 4769 4666 
L 4769 0 
L 3425 0 
L 1728 3200 
L 1728 0 
L 588 0 
L 588 4666 
z
" transform="scale(0.015625)"/>
      <path id="DejaVuSans-32" d="M 1228 531 
L 3431 531 
L 3431 0 
L 469 0 
L 469 531 
Q 828 903 1448 1529 
Q 2069 2156 2228 2338 
Q 2531 2678 2651 2914 
Q 2772 3150 2772 3378 
Q 2772 3750 2511 3984 
Q 2250 4219 1831 4219 
Q 1534 4219 1204 4116 
Q 875 4013 500 3803 
L 500 4441 
Q 881 4594 1212 4672 
Q 1544 4750 1819 4750 
Q 2544 4750 2975 4387 
Q 3406 4025 3406 3419 
Q 3406 3131 3298 2873 
Q 3191 2616 2906 2266 
Q 2828 2175 2409 1742 
Q 1991 1309 1228 531 
z
" transform="scale(0.015625)"/>
     </defs>
     <use xlink:href="#DejaVuSans-Bold-28" transform="translate(0 0.125)"/>
     <use xlink:href="#DejaVuSans-Bold-61" transform="translate(45.703125 0.125)"/>
     <use xlink:href="#DejaVuSans-Bold-29" transform="translate(113.183594 0.125)"/>
     <use xlink:href="#DejaVuSans-Bold-20" transform="translate(158.886719 0.125)"/>
     <use xlink:href="#DejaVuSans-Bold-4e" transform="translate(193.701172 0.125)"/>
     <use xlink:href="#DejaVuSans-32" transform="translate(278.349609 -16.28125) scale(0.7)"/>
    </g>
   </g>
   <g id="line2d_23">
    <path d="M 76.644047 11.947637 
L 80.448619 68.173445 
L 84.253192 105.750085 
L 88.057764 129.695735 
L 91.862336 143.728562 
L 95.666909 150.611577 
L 99.471481 152.404371 
L 103.276053 150.641708 
L 107.080625 146.467469 
L 110.885198 140.730254 
L 114.68977 134.056786 
L 118.494342 126.906153 
L 122.298914 119.610617 
L 126.103487 112.409035 
L 129.908059 105.470414 
L 133.712631 98.913088 
L 137.517204 92.817861 
L 141.321776 87.239244 
L 145.126348 82.21175 
L 148.93092 77.754006 
L 152.735493 73.873408 
L 156.540065 70.567764 
L 160.344637 67.826117 
L 164.149209 65.604915 
L 167.953782 63.766102 
L 175.562926 60.53332 
L 183.172071 58.142015 
L 190.781215 56.681483 
L 198.39036 55.770705 
L 205.999504 55.176303 
L 213.608649 54.773096 
L 221.217794 54.490138 
L 228.826938 54.285247 
L 236.436083 54.132949 
L 244.045227 54.017629 
" clip-path="url(#p74a7fcd6b6)" style="fill: none; stroke-dasharray: 12.22,7.52; stroke-dashoffset: 0; stroke: #111111; stroke-width: 2.35"/>
   </g>
   <g id="line2d_24">
    <path d="M 76.644047 12.175046 
L 80.448619 68.381535 
L 84.253192 105.790442 
L 88.057764 129.531238 
L 91.862336 143.389331 
L 95.666909 150.159594 
L 99.471481 151.907147 
L 103.276053 150.158407 
L 107.080625 146.042071 
L 110.885198 140.391608 
L 114.68977 133.823008 
L 118.494342 126.788025 
L 122.298914 119.612602 
L 126.103487 112.531285 
L 129.908059 105.708024 
L 133.712631 99.256096 
L 137.517204 93.252923 
L 141.321776 87.748254 
L 145.126348 82.770304 
L 148.93092 78.329802 
L 152.735493 74.424029 
L 156.540065 71.035665 
L 160.344637 68.129485 
L 164.149209 65.66187 
L 167.953782 63.582598 
L 175.562926 60.397086 
L 183.172071 58.211525 
L 190.781215 56.73002 
L 198.39036 55.731481 
L 205.999504 55.056275 
L 213.608649 54.605399 
L 221.217794 54.316008 
L 228.826938 54.148103 
L 236.436083 54.07614 
L 244.045227 54.082472 
" clip-path="url(#p74a7fcd6b6)" style="fill: none; stroke: #d95f02; stroke-width: 2.45; stroke-linecap: square"/>
   </g>
   <g id="legend_1">
    <g id="line2d_25">
     <path d="M 123.811587 11.993706 
L 132.561587 11.993706 
L 141.311587 11.993706 
" style="fill: none; stroke-dasharray: 12.22,7.52; stroke-dashoffset: 0; stroke: #111111; stroke-width: 2.35"/>
    </g>
    <g id="text_14">
     <!-- MR-ccCA reference -->
     <g transform="translate(146.911587 14.443706) scale(0.07 -0.07)">
      <defs>
       <path id="DejaVuSans-4d" d="M 628 4666 
L 1569 4666 
L 2759 1491 
L 3956 4666 
L 4897 4666 
L 4897 0 
L 4281 0 
L 4281 4097 
L 3078 897 
L 2444 897 
L 1241 4097 
L 1241 0 
L 628 0 
L 628 4666 
z
" transform="scale(0.015625)"/>
       <path id="DejaVuSans-52" d="M 2841 2188 
Q 3044 2119 3236 1894 
Q 3428 1669 3622 1275 
L 4263 0 
L 3584 0 
L 2988 1197 
Q 2756 1666 2539 1819 
Q 2322 1972 1947 1972 
L 1259 1972 
L 1259 0 
L 628 0 
L 628 4666 
L 2053 4666 
Q 2853 4666 3247 4331 
Q 3641 3997 3641 3322 
Q 3641 2881 3436 2590 
Q 3231 2300 2841 2188 
z
M 1259 4147 
L 1259 2491 
L 2053 2491 
Q 2509 2491 2742 2702 
Q 2975 2913 2975 3322 
Q 2975 3731 2742 3939 
Q 2509 4147 2053 4147 
L 1259 4147 
z
" transform="scale(0.015625)"/>
       <path id="DejaVuSans-2d" d="M 313 2009 
L 1997 2009 
L 1997 1497 
L 313 1497 
L 313 2009 
z
" transform="scale(0.015625)"/>
       <path id="DejaVuSans-63" d="M 3122 3366 
L 3122 2828 
Q 2878 2963 2633 3030 
Q 2388 3097 2138 3097 
Q 1578 3097 1268 2742 
Q 959 2388 959 1747 
Q 959 1106 1268 751 
Q 1578 397 2138 397 
Q 2388 397 2633 464 
Q 2878 531 3122 666 
L 3122 134 
Q 2881 22 2623 -34 
Q 2366 -91 2075 -91 
Q 1284 -91 818 406 
Q 353 903 353 1747 
Q 353 2603 823 3093 
Q 1294 3584 2113 3584 
Q 2378 3584 2631 3529 
Q 2884 3475 3122 3366 
z
" transform="scale(0.015625)"/>
       <path id="DejaVuSans-43" d="M 4122 4306 
L 4122 3641 
Q 3803 3938 3442 4084 
Q 3081 4231 2675 4231 
Q 1875 4231 1450 3742 
Q 1025 3253 1025 2328 
Q 1025 1406 1450 917 
Q 1875 428 2675 428 
Q 3081 428 3442 575 
Q 3803 722 4122 1019 
L 4122 359 
Q 3791 134 3420 21 
Q 3050 -91 2638 -91 
Q 1578 -91 968 557 
Q 359 1206 359 2328 
Q 359 3453 968 4101 
Q 1578 4750 2638 4750 
Q 3056 4750 3426 4639 
Q 3797 4528 4122 4306 
z
" transform="scale(0.015625)"/>
       <path id="DejaVuSans-41" d="M 2188 4044 
L 1331 1722 
L 3047 1722 
L 2188 4044 
z
M 1831 4666 
L 2547 4666 
L 4325 0 
L 3669 0 
L 3244 1197 
L 1141 1197 
L 716 0 
L 50 0 
L 1831 4666 
z
" transform="scale(0.015625)"/>
       <path id="DejaVuSans-20" transform="scale(0.015625)"/>
       <path id="DejaVuSans-72" d="M 2631 2963 
Q 2534 3019 2420 3045 
Q 2306 3072 2169 3072 
Q 1681 3072 1420 2755 
Q 1159 2438 1159 1844 
L 1159 0 
L 581 0 
L 581 3500 
L 1159 3500 
L 1159 2956 
Q 1341 3275 1631 3429 
Q 1922 3584 2338 3584 
Q 2397 3584 2469 3576 
Q 2541 3569 2628 3553 
L 2631 2963 
z
" transform="scale(0.015625)"/>
       <path id="DejaVuSans-65" d="M 3597 1894 
L 3597 1613 
L 953 1613 
Q 991 1019 1311 708 
Q 1631 397 2203 397 
Q 2534 397 2845 478 
Q 3156 559 3463 722 
L 3463 178 
Q 3153 47 2828 -22 
Q 2503 -91 2169 -91 
Q 1331 -91 842 396 
Q 353 884 353 1716 
Q 353 2575 817 3079 
Q 1281 3584 2069 3584 
Q 2775 3584 3186 3129 
Q 3597 2675 3597 1894 
z
M 3022 2063 
Q 3016 2534 2758 2815 
Q 2500 3097 2075 3097 
Q 1594 3097 1305 2825 
Q 1016 2553 972 2059 
L 3022 2063 
z
" transform="scale(0.015625)"/>
       <path id="DejaVuSans-66" d="M 2375 4863 
L 2375 4384 
L 1825 4384 
Q 1516 4384 1395 4259 
Q 1275 4134 1275 3809 
L 1275 3500 
L 2222 3500 
L 2222 3053 
L 1275 3053 
L 1275 0 
L 697 0 
L 697 3053 
L 147 3053 
L 147 3500 
L 697 3500 
L 697 3744 
Q 697 4328 969 4595 
Q 1241 4863 1831 4863 
L 2375 4863 
z
" transform="scale(0.015625)"/>
       <path id="DejaVuSans-6e" d="M 3513 2113 
L 3513 0 
L 2938 0 
L 2938 2094 
Q 2938 2591 2744 2837 
Q 2550 3084 2163 3084 
Q 1697 3084 1428 2787 
Q 1159 2491 1159 1978 
L 1159 0 
L 581 0 
L 581 3500 
L 1159 3500 
L 1159 2956 
Q 1366 3272 1645 3428 
Q 1925 3584 2291 3584 
Q 2894 3584 3203 3211 
Q 3513 2838 3513 2113 
z
" transform="scale(0.015625)"/>
      </defs>
      <use xlink:href="#DejaVuSans-4d"/>
      <use xlink:href="#DejaVuSans-52" transform="translate(86.279297 0)"/>
      <use xlink:href="#DejaVuSans-2d" transform="translate(151.761719 0)"/>
      <use xlink:href="#DejaVuSans-63" transform="translate(187.845703 0)"/>
      <use xlink:href="#DejaVuSans-63" transform="translate(242.826172 0)"/>
      <use xlink:href="#DejaVuSans-43" transform="translate(297.806641 0)"/>
      <use xlink:href="#DejaVuSans-41" transform="translate(367.630859 0)"/>
      <use xlink:href="#DejaVuSans-20" transform="translate(436.039062 0)"/>
      <use xlink:href="#DejaVuSans-72" transform="translate(467.826172 0)"/>
      <use xlink:href="#DejaVuSans-65" transform="translate(506.689453 0)"/>
      <use xlink:href="#DejaVuSans-66" transform="translate(568.212891 0)"/>
      <use xlink:href="#DejaVuSans-65" transform="translate(603.417969 0)"/>
      <use xlink:href="#DejaVuSans-72" transform="translate(664.941406 0)"/>
      <use xlink:href="#DejaVuSans-65" transform="translate(703.804688 0)"/>
      <use xlink:href="#DejaVuSans-6e" transform="translate(765.328125 0)"/>
      <use xlink:href="#DejaVuSans-63" transform="translate(828.707031 0)"/>
      <use xlink:href="#DejaVuSans-65" transform="translate(883.6875 0)"/>
     </g>
    </g>
    <g id="line2d_26">
     <path d="M 123.811587 21.218394 
L 132.561587 21.218394 
L 141.311587 21.218394 
" style="fill: none; stroke: #d95f02; stroke-width: 2.45; stroke-linecap: square"/>
    </g>
    <g id="text_15">
     <!-- Neural HFX+PT2 (25.2 meV) -->
     <g transform="translate(146.911587 23.668394) scale(0.07 -0.07)">
      <defs>
       <path id="DejaVuSans-4e" d="M 628 4666 
L 1478 4666 
L 3547 763 
L 3547 4666 
L 4159 4666 
L 4159 0 
L 3309 0 
L 1241 3903 
L 1241 0 
L 628 0 
L 628 4666 
z
" transform="scale(0.015625)"/>
       <path id="DejaVuSans-75" d="M 544 1381 
L 544 3500 
L 1119 3500 
L 1119 1403 
Q 1119 906 1312 657 
Q 1506 409 1894 409 
Q 2359 409 2629 706 
Q 2900 1003 2900 1516 
L 2900 3500 
L 3475 3500 
L 3475 0 
L 2900 0 
L 2900 538 
Q 2691 219 2414 64 
Q 2138 -91 1772 -91 
Q 1169 -91 856 284 
Q 544 659 544 1381 
z
M 1991 3584 
L 1991 3584 
z
" transform="scale(0.015625)"/>
       <path id="DejaVuSans-61" d="M 2194 1759 
Q 1497 1759 1228 1600 
Q 959 1441 959 1056 
Q 959 750 1161 570 
Q 1363 391 1709 391 
Q 2188 391 2477 730 
Q 2766 1069 2766 1631 
L 2766 1759 
L 2194 1759 
z
M 3341 1997 
L 3341 0 
L 2766 0 
L 2766 531 
Q 2569 213 2275 61 
Q 1981 -91 1556 -91 
Q 1019 -91 701 211 
Q 384 513 384 1019 
Q 384 1609 779 1909 
Q 1175 2209 1959 2209 
L 2766 2209 
L 2766 2266 
Q 2766 2663 2505 2880 
Q 2244 3097 1772 3097 
Q 1472 3097 1187 3025 
Q 903 2953 641 2809 
L 641 3341 
Q 956 3463 1253 3523 
Q 1550 3584 1831 3584 
Q 2591 3584 2966 3190 
Q 3341 2797 3341 1997 
z
" transform="scale(0.015625)"/>
       <path id="DejaVuSans-6c" d="M 603 4863 
L 1178 4863 
L 1178 0 
L 603 0 
L 603 4863 
z
" transform="scale(0.015625)"/>
       <path id="DejaVuSans-48" d="M 628 4666 
L 1259 4666 
L 1259 2753 
L 3553 2753 
L 3553 4666 
L 4184 4666 
L 4184 0 
L 3553 0 
L 3553 2222 
L 1259 2222 
L 1259 0 
L 628 0 
L 628 4666 
z
" transform="scale(0.015625)"/>
       <path id="DejaVuSans-46" d="M 628 4666 
L 3309 4666 
L 3309 4134 
L 1259 4134 
L 1259 2759 
L 3109 2759 
L 3109 2228 
L 1259 2228 
L 1259 0 
L 628 0 
L 628 4666 
z
" transform="scale(0.015625)"/>
       <path id="DejaVuSans-58" d="M 403 4666 
L 1081 4666 
L 2241 2931 
L 3406 4666 
L 4084 4666 
L 2584 2425 
L 4184 0 
L 3506 0 
L 2194 1984 
L 872 0 
L 191 0 
L 1856 2491 
L 403 4666 
z
" transform="scale(0.015625)"/>
       <path id="DejaVuSans-2b" d="M 2944 4013 
L 2944 2272 
L 4684 2272 
L 4684 1741 
L 2944 1741 
L 2944 0 
L 2419 0 
L 2419 1741 
L 678 1741 
L 678 2272 
L 2419 2272 
L 2419 4013 
L 2944 4013 
z
" transform="scale(0.015625)"/>
       <path id="DejaVuSans-50" d="M 1259 4147 
L 1259 2394 
L 2053 2394 
Q 2494 2394 2734 2622 
Q 2975 2850 2975 3272 
Q 2975 3691 2734 3919 
Q 2494 4147 2053 4147 
L 1259 4147 
z
M 628 4666 
L 2053 4666 
Q 2838 4666 3239 4311 
Q 3641 3956 3641 3272 
Q 3641 2581 3239 2228 
Q 2838 1875 2053 1875 
L 1259 1875 
L 1259 0 
L 628 0 
L 628 4666 
z
" transform="scale(0.015625)"/>
       <path id="DejaVuSans-54" d="M -19 4666 
L 3928 4666 
L 3928 4134 
L 2272 4134 
L 2272 0 
L 1638 0 
L 1638 4134 
L -19 4134 
L -19 4666 
z
" transform="scale(0.015625)"/>
       <path id="DejaVuSans-35" d="M 691 4666 
L 3169 4666 
L 3169 4134 
L 1269 4134 
L 1269 2991 
Q 1406 3038 1543 3061 
Q 1681 3084 1819 3084 
Q 2600 3084 3056 2656 
Q 3513 2228 3513 1497 
Q 3513 744 3044 326 
Q 2575 -91 1722 -91 
Q 1428 -91 1123 -41 
Q 819 9 494 109 
L 494 744 
Q 775 591 1075 516 
Q 1375 441 1709 441 
Q 2250 441 2565 725 
Q 2881 1009 2881 1497 
Q 2881 1984 2565 2268 
Q 2250 2553 1709 2553 
Q 1456 2553 1204 2497 
Q 953 2441 691 2322 
L 691 4666 
z
" transform="scale(0.015625)"/>
       <path id="DejaVuSans-2e" d="M 684 794 
L 1344 794 
L 1344 0 
L 684 0 
L 684 794 
z
" transform="scale(0.015625)"/>
       <path id="DejaVuSans-6d" d="M 3328 2828 
Q 3544 3216 3844 3400 
Q 4144 3584 4550 3584 
Q 5097 3584 5394 3201 
Q 5691 2819 5691 2113 
L 5691 0 
L 5113 0 
L 5113 2094 
Q 5113 2597 4934 2840 
Q 4756 3084 4391 3084 
Q 3944 3084 3684 2787 
Q 3425 2491 3425 1978 
L 3425 0 
L 2847 0 
L 2847 2094 
Q 2847 2600 2669 2842 
Q 2491 3084 2119 3084 
Q 1678 3084 1418 2786 
Q 1159 2488 1159 1978 
L 1159 0 
L 581 0 
L 581 3500 
L 1159 3500 
L 1159 2956 
Q 1356 3278 1631 3431 
Q 1906 3584 2284 3584 
Q 2666 3584 2933 3390 
Q 3200 3197 3328 2828 
z
" transform="scale(0.015625)"/>
       <path id="DejaVuSans-56" d="M 1831 0 
L 50 4666 
L 709 4666 
L 2188 738 
L 3669 4666 
L 4325 4666 
L 2547 0 
L 1831 0 
z
" transform="scale(0.015625)"/>
      </defs>
      <use xlink:href="#DejaVuSans-4e"/>
      <use xlink:href="#DejaVuSans-65" transform="translate(74.804688 0)"/>
      <use xlink:href="#DejaVuSans-75" transform="translate(136.328125 0)"/>
      <use xlink:href="#DejaVuSans-72" transform="translate(199.707031 0)"/>
      <use xlink:href="#DejaVuSans-61" transform="translate(240.820312 0)"/>
      <use xlink:href="#DejaVuSans-6c" transform="translate(302.099609 0)"/>
      <use xlink:href="#DejaVuSans-20" transform="translate(329.882812 0)"/>
      <use xlink:href="#DejaVuSans-48" transform="translate(361.669922 0)"/>
      <use xlink:href="#DejaVuSans-46" transform="translate(436.865234 0)"/>
      <use xlink:href="#DejaVuSans-58" transform="translate(494.384766 0)"/>
      <use xlink:href="#DejaVuSans-2b" transform="translate(562.890625 0)"/>
      <use xlink:href="#DejaVuSans-50" transform="translate(646.679688 0)"/>
      <use xlink:href="#DejaVuSans-54" transform="translate(706.982422 0)"/>
      <use xlink:href="#DejaVuSans-32" transform="translate(768.066406 0)"/>
      <use xlink:href="#DejaVuSans-20" transform="translate(831.689453 0)"/>
      <use xlink:href="#DejaVuSans-28" transform="translate(863.476562 0)"/>
      <use xlink:href="#DejaVuSans-32" transform="translate(902.490234 0)"/>
      <use xlink:href="#DejaVuSans-35" transform="translate(966.113281 0)"/>
      <use xlink:href="#DejaVuSans-2e" transform="translate(1029.736328 0)"/>
      <use xlink:href="#DejaVuSans-32" transform="translate(1061.523438 0)"/>
      <use xlink:href="#DejaVuSans-20" transform="translate(1125.146484 0)"/>
      <use xlink:href="#DejaVuSans-6d" transform="translate(1156.933594 0)"/>
      <use xlink:href="#DejaVuSans-65" transform="translate(1254.345703 0)"/>
      <use xlink:href="#DejaVuSans-56" transform="translate(1315.869141 0)"/>
      <use xlink:href="#DejaVuSans-29" transform="translate(1384.277344 0)"/>
     </g>
    </g>
    <g id="PathCollection_1">
     <defs>
      <path id="mbf2ce3024c" d="M -0 4.301163 
L 4.301163 0 
L 0 -4.301163 
L -4.301163 -0 
z
" style="stroke: #ffffff; stroke-width: 0.9"/>
     </defs>
     <g>
      <use xlink:href="#mbf2ce3024c" x="132.561587" y="31.055581" style="fill: #b2182b; stroke: #ffffff; stroke-width: 0.9"/>
     </g>
    </g>
    <g id="text_16">
     <!-- Training points -->
     <g transform="translate(146.911587 32.893081) scale(0.07 -0.07)">
      <defs>
       <path id="DejaVuSans-69" d="M 603 3500 
L 1178 3500 
L 1178 0 
L 603 0 
L 603 3500 
z
M 603 4863 
L 1178 4863 
L 1178 4134 
L 603 4134 
L 603 4863 
z
" transform="scale(0.015625)"/>
       <path id="DejaVuSans-67" d="M 2906 1791 
Q 2906 2416 2648 2759 
Q 2391 3103 1925 3103 
Q 1463 3103 1205 2759 
Q 947 2416 947 1791 
Q 947 1169 1205 825 
Q 1463 481 1925 481 
Q 2391 481 2648 825 
Q 2906 1169 2906 1791 
z
M 3481 434 
Q 3481 -459 3084 -895 
Q 2688 -1331 1869 -1331 
Q 1566 -1331 1297 -1286 
Q 1028 -1241 775 -1147 
L 775 -588 
Q 1028 -725 1275 -790 
Q 1522 -856 1778 -856 
Q 2344 -856 2625 -561 
Q 2906 -266 2906 331 
L 2906 616 
Q 2728 306 2450 153 
Q 2172 0 1784 0 
Q 1141 0 747 490 
Q 353 981 353 1791 
Q 353 2603 747 3093 
Q 1141 3584 1784 3584 
Q 2172 3584 2450 3431 
Q 2728 3278 2906 2969 
L 2906 3500 
L 3481 3500 
L 3481 434 
z
" transform="scale(0.015625)"/>
       <path id="DejaVuSans-70" d="M 1159 525 
L 1159 -1331 
L 581 -1331 
L 581 3500 
L 1159 3500 
L 1159 2969 
Q 1341 3281 1617 3432 
Q 1894 3584 2278 3584 
Q 2916 3584 3314 3078 
Q 3713 2572 3713 1747 
Q 3713 922 3314 415 
Q 2916 -91 2278 -91 
Q 1894 -91 1617 61 
Q 1341 213 1159 525 
z
M 3116 1747 
Q 3116 2381 2855 2742 
Q 2594 3103 2138 3103 
Q 1681 3103 1420 2742 
Q 1159 2381 1159 1747 
Q 1159 1113 1420 752 
Q 1681 391 2138 391 
Q 2594 391 2855 752 
Q 3116 1113 3116 1747 
z
" transform="scale(0.015625)"/>
       <path id="DejaVuSans-6f" d="M 1959 3097 
Q 1497 3097 1228 2736 
Q 959 2375 959 1747 
Q 959 1119 1226 758 
Q 1494 397 1959 397 
Q 2419 397 2687 759 
Q 2956 1122 2956 1747 
Q 2956 2369 2687 2733 
Q 2419 3097 1959 3097 
z
M 1959 3584 
Q 2709 3584 3137 3096 
Q 3566 2609 3566 1747 
Q 3566 888 3137 398 
Q 2709 -91 1959 -91 
Q 1206 -91 779 398 
Q 353 888 353 1747 
Q 353 2609 779 3096 
Q 1206 3584 1959 3584 
z
" transform="scale(0.015625)"/>
       <path id="DejaVuSans-74" d="M 1172 4494 
L 1172 3500 
L 2356 3500 
L 2356 3053 
L 1172 3053 
L 1172 1153 
Q 1172 725 1289 603 
Q 1406 481 1766 481 
L 2356 481 
L 2356 0 
L 1766 0 
Q 1100 0 847 248 
Q 594 497 594 1153 
L 594 3053 
L 172 3053 
L 172 3500 
L 594 3500 
L 594 4494 
L 1172 4494 
z
" transform="scale(0.015625)"/>
       <path id="DejaVuSans-73" d="M 2834 3397 
L 2834 2853 
Q 2591 2978 2328 3040 
Q 2066 3103 1784 3103 
Q 1356 3103 1142 2972 
Q 928 2841 928 2578 
Q 928 2378 1081 2264 
Q 1234 2150 1697 2047 
L 1894 2003 
Q 2506 1872 2764 1633 
Q 3022 1394 3022 966 
Q 3022 478 2636 193 
Q 2250 -91 1575 -91 
Q 1294 -91 989 -36 
Q 684 19 347 128 
L 347 722 
Q 666 556 975 473 
Q 1284 391 1588 391 
Q 1994 391 2212 530 
Q 2431 669 2431 922 
Q 2431 1156 2273 1281 
Q 2116 1406 1581 1522 
L 1381 1569 
Q 847 1681 609 1914 
Q 372 2147 372 2553 
Q 372 3047 722 3315 
Q 1072 3584 1716 3584 
Q 2034 3584 2315 3537 
Q 2597 3491 2834 3397 
z
" transform="scale(0.015625)"/>
      </defs>
      <use xlink:href="#DejaVuSans-54"/>
      <use xlink:href="#DejaVuSans-72" transform="translate(46.333984 0)"/>
      <use xlink:href="#DejaVuSans-61" transform="translate(87.447266 0)"/>
      <use xlink:href="#DejaVuSans-69" transform="translate(148.726562 0)"/>
      <use xlink:href="#DejaVuSans-6e" transform="translate(176.509766 0)"/>
      <use xlink:href="#DejaVuSans-69" transform="translate(239.888672 0)"/>
      <use xlink:href="#DejaVuSans-6e" transform="translate(267.671875 0)"/>
      <use xlink:href="#DejaVuSans-67" transform="translate(331.050781 0)"/>
      <use xlink:href="#DejaVuSans-20" transform="translate(394.527344 0)"/>
      <use xlink:href="#DejaVuSans-70" transform="translate(426.314453 0)"/>
      <use xlink:href="#DejaVuSans-6f" transform="translate(489.791016 0)"/>
      <use xlink:href="#DejaVuSans-69" transform="translate(550.972656 0)"/>
      <use xlink:href="#DejaVuSans-6e" transform="translate(578.755859 0)"/>
      <use xlink:href="#DejaVuSans-74" transform="translate(642.134766 0)"/>
      <use xlink:href="#DejaVuSans-73" transform="translate(681.34375 0)"/>
     </g>
    </g>
   </g>
   <g id="PathCollection_2">
    <g clip-path="url(#p74a7fcd6b6)">
     <use xlink:href="#mbf2ce3024c" x="76.644047" y="11.947637" style="fill: #b2182b; stroke: #ffffff; stroke-width: 0.9"/>
     <use xlink:href="#mbf2ce3024c" x="99.471481" y="152.404371" style="fill: #b2182b; stroke: #ffffff; stroke-width: 0.9"/>
     <use xlink:href="#mbf2ce3024c" x="137.517204" y="92.817861" style="fill: #b2182b; stroke: #ffffff; stroke-width: 0.9"/>
     <use xlink:href="#mbf2ce3024c" x="167.953782" y="63.766102" style="fill: #b2182b; stroke: #ffffff; stroke-width: 0.9"/>
     <use xlink:href="#mbf2ce3024c" x="183.172071" y="58.142015" style="fill: #b2182b; stroke: #ffffff; stroke-width: 0.9"/>
     <use xlink:href="#mbf2ce3024c" x="205.999504" y="55.176303" style="fill: #b2182b; stroke: #ffffff; stroke-width: 0.9"/>
     <use xlink:href="#mbf2ce3024c" x="244.045227" y="54.017629" style="fill: #b2182b; stroke: #ffffff; stroke-width: 0.9"/>
    </g>
   </g>
  </g>
  <g id="axes_2">
   <g id="patch_7">
    <path d="M 69.948 231.192 
L 250.741274 231.192 
L 250.741274 168.129793 
L 69.948 168.129793 
z
" style="fill: #ffffff"/>
   </g>
   <g id="patch_8">
    <path d="M 69.948 219.254381 
L 250.741274 219.254381 
L 250.741274 180.067412 
L 69.948 180.067412 
z
" clip-path="url(#pad8651228d)" style="fill: #dbdbdb; opacity: 0.78; stroke: #dbdbdb; stroke-linejoin: miter"/>
   </g>
   <g id="matplotlib.axis_3">
    <g id="xtick_6">
     <g id="line2d_27">
      <g>
       <use xlink:href="#m5fbd95c36b" x="93.107469" y="231.192" style="stroke: #000000; stroke-width: 1.65"/>
      </g>
     </g>
     <g id="line2d_28">
      <g>
       <use xlink:href="#md9e3d3c757" x="93.107469" y="168.129793" style="stroke: #000000; stroke-width: 1.65"/>
      </g>
     </g>
     <g id="text_17">
      <!-- 1.0 -->
      <g transform="translate(83.807586 242.670359) scale(0.105 -0.105)">
       <use xlink:href="#DejaVuSans-Bold-31"/>
       <use xlink:href="#DejaVuSans-Bold-2e" transform="translate(69.580078 0)"/>
       <use xlink:href="#DejaVuSans-Bold-30" transform="translate(107.568359 0)"/>
      </g>
     </g>
    </g>
    <g id="xtick_7">
     <g id="line2d_29">
      <g>
       <use xlink:href="#m5fbd95c36b" x="130.461451" y="231.192" style="stroke: #000000; stroke-width: 1.65"/>
      </g>
     </g>
     <g id="line2d_30">
      <g>
       <use xlink:href="#md9e3d3c757" x="130.461451" y="168.129793" style="stroke: #000000; stroke-width: 1.65"/>
      </g>
     </g>
     <g id="text_18">
      <!-- 1.5 -->
      <g transform="translate(121.161569 242.670359) scale(0.105 -0.105)">
       <use xlink:href="#DejaVuSans-Bold-31"/>
       <use xlink:href="#DejaVuSans-Bold-2e" transform="translate(69.580078 0)"/>
       <use xlink:href="#DejaVuSans-Bold-35" transform="translate(107.568359 0)"/>
      </g>
     </g>
    </g>
    <g id="xtick_8">
     <g id="line2d_31">
      <g>
       <use xlink:href="#m5fbd95c36b" x="167.815434" y="231.192" style="stroke: #000000; stroke-width: 1.65"/>
      </g>
     </g>
     <g id="line2d_32">
      <g>
       <use xlink:href="#md9e3d3c757" x="167.815434" y="168.129793" style="stroke: #000000; stroke-width: 1.65"/>
      </g>
     </g>
     <g id="text_19">
      <!-- 2.0 -->
      <g transform="translate(158.515551 242.670359) scale(0.105 -0.105)">
       <use xlink:href="#DejaVuSans-Bold-32"/>
       <use xlink:href="#DejaVuSans-Bold-2e" transform="translate(69.580078 0)"/>
       <use xlink:href="#DejaVuSans-Bold-30" transform="translate(107.568359 0)"/>
      </g>
     </g>
    </g>
    <g id="xtick_9">
     <g id="line2d_33">
      <g>
       <use xlink:href="#m5fbd95c36b" x="205.169416" y="231.192" style="stroke: #000000; stroke-width: 1.65"/>
      </g>
     </g>
     <g id="line2d_34">
      <g>
       <use xlink:href="#md9e3d3c757" x="205.169416" y="168.129793" style="stroke: #000000; stroke-width: 1.65"/>
      </g>
     </g>
     <g id="text_20">
      <!-- 2.5 -->
      <g transform="translate(195.869533 242.670359) scale(0.105 -0.105)">
       <use xlink:href="#DejaVuSans-Bold-32"/>
       <use xlink:href="#DejaVuSans-Bold-2e" transform="translate(69.580078 0)"/>
       <use xlink:href="#DejaVuSans-Bold-35" transform="translate(107.568359 0)"/>
      </g>
     </g>
    </g>
    <g id="xtick_10">
     <g id="line2d_35">
      <g>
       <use xlink:href="#m5fbd95c36b" x="242.523398" y="231.192" style="stroke: #000000; stroke-width: 1.65"/>
      </g>
     </g>
     <g id="line2d_36">
      <g>
       <use xlink:href="#md9e3d3c757" x="242.523398" y="168.129793" style="stroke: #000000; stroke-width: 1.65"/>
      </g>
     </g>
     <g id="text_21">
      <!-- 3.0 -->
      <g transform="translate(233.223515 242.670359) scale(0.105 -0.105)">
       <use xlink:href="#DejaVuSans-Bold-33"/>
       <use xlink:href="#DejaVuSans-Bold-2e" transform="translate(69.580078 0)"/>
       <use xlink:href="#DejaVuSans-Bold-30" transform="translate(107.568359 0)"/>
      </g>
     </g>
    </g>
    <g id="text_22">
     <!-- $R$ ($\AA$) -->
     <g transform="translate(143.119637 261.060437) scale(0.13 -0.13)">
      <defs>
       <path id="DejaVuSans-Oblique-c5" d="M 3188 5081 
Q 3188 5278 3048 5417 
Q 2909 5556 2713 5556 
Q 2513 5556 2377 5420 
Q 2241 5284 2241 5081 
Q 2241 4884 2377 4746 
Q 2513 4609 2713 4609 
Q 2909 4609 3048 4746 
Q 3188 4884 3188 5081 
z
M 2203 4397 
Q 2034 4513 1945 4689 
Q 1856 4866 1856 5081 
Q 1856 5438 2106 5689 
Q 2356 5941 2713 5941 
Q 3069 5941 3320 5689 
Q 3572 5438 3572 5081 
Q 3572 4834 3458 4643 
Q 3344 4453 3128 4341 
L 3938 0 
L 3278 0 
L 3084 1197 
L 984 1197 
L 325 0 
L -341 0 
L 2203 4397 
z
M 2584 4044 
L 1275 1722 
L 2988 1722 
L 2584 4044 
z
" transform="scale(0.015625)"/>
      </defs>
      <use xlink:href="#DejaVuSans-Oblique-52" transform="translate(0 0.171875)"/>
      <use xlink:href="#DejaVuSans-Bold-20" transform="translate(69.482422 0.171875)"/>
      <use xlink:href="#DejaVuSans-Bold-28" transform="translate(104.296875 0.171875)"/>
      <use xlink:href="#DejaVuSans-Oblique-c5" transform="translate(150 0.171875)"/>
      <use xlink:href="#DejaVuSans-Bold-29" transform="translate(218.408203 0.171875)"/>
     </g>
    </g>
   </g>
   <g id="matplotlib.axis_4">
    <g id="ytick_7">
     <g id="line2d_37">
      <g>
       <use xlink:href="#meebd0662bf" x="69.948" y="222.252715" style="stroke: #000000; stroke-width: 1.65"/>
      </g>
     </g>
     <g id="line2d_38">
      <g>
       <use xlink:href="#m95dd516b3c" x="250.741274" y="222.252715" style="stroke: #000000; stroke-width: 1.65"/>
      </g>
     </g>
     <g id="text_23">
      <!-- −50 -->
      <g transform="translate(43.037922 226.241894) scale(0.105 -0.105)">
       <use xlink:href="#DejaVuSans-Bold-2212"/>
       <use xlink:href="#DejaVuSans-Bold-35" transform="translate(83.789062 0)"/>
       <use xlink:href="#DejaVuSans-Bold-30" transform="translate(153.369141 0)"/>
      </g>
     </g>
    </g>
    <g id="ytick_8">
     <g id="line2d_39">
      <g>
       <use xlink:href="#meebd0662bf" x="69.948" y="199.660896" style="stroke: #000000; stroke-width: 1.65"/>
      </g>
     </g>
     <g id="line2d_40">
      <g>
       <use xlink:href="#m95dd516b3c" x="250.741274" y="199.660896" style="stroke: #000000; stroke-width: 1.65"/>
      </g>
     </g>
     <g id="text_24">
      <!-- 0 -->
      <g transform="translate(59.142297 203.650076) scale(0.105 -0.105)">
       <use xlink:href="#DejaVuSans-Bold-30"/>
      </g>
     </g>
    </g>
    <g id="ytick_9">
     <g id="line2d_41">
      <g>
       <use xlink:href="#meebd0662bf" x="69.948" y="177.069078" style="stroke: #000000; stroke-width: 1.65"/>
      </g>
     </g>
     <g id="line2d_42">
      <g>
       <use xlink:href="#m95dd516b3c" x="250.741274" y="177.069078" style="stroke: #000000; stroke-width: 1.65"/>
      </g>
     </g>
     <g id="text_25">
      <!-- 50 -->
      <g transform="translate(51.836594 181.058258) scale(0.105 -0.105)">
       <use xlink:href="#DejaVuSans-Bold-35"/>
       <use xlink:href="#DejaVuSans-Bold-30" transform="translate(69.580078 0)"/>
      </g>
     </g>
    </g>
    <g id="text_26">
     <!-- $\Delta E_0$ (meV) -->
     <g transform="translate(19.942531 232.960896) rotate(-90) scale(0.12 -0.12)">
      <defs>
       <path id="DejaVuSans-394" d="M 2188 4044 
L 906 525 
L 3472 525 
L 2188 4044 
z
M 50 0 
L 1831 4666 
L 2547 4666 
L 4325 0 
L 50 0 
z
" transform="scale(0.015625)"/>
       <path id="DejaVuSans-Bold-6d" d="M 3781 2919 
Q 3994 3244 4286 3414 
Q 4578 3584 4928 3584 
Q 5531 3584 5847 3212 
Q 6163 2841 6163 2131 
L 6163 0 
L 5038 0 
L 5038 1825 
Q 5041 1866 5042 1909 
Q 5044 1953 5044 2034 
Q 5044 2406 4934 2573 
Q 4825 2741 4581 2741 
Q 4263 2741 4089 2478 
Q 3916 2216 3909 1719 
L 3909 0 
L 2784 0 
L 2784 1825 
Q 2784 2406 2684 2573 
Q 2584 2741 2328 2741 
Q 2006 2741 1831 2477 
Q 1656 2213 1656 1722 
L 1656 0 
L 531 0 
L 531 3500 
L 1656 3500 
L 1656 2988 
Q 1863 3284 2130 3434 
Q 2397 3584 2719 3584 
Q 3081 3584 3359 3409 
Q 3638 3234 3781 2919 
z
" transform="scale(0.015625)"/>
       <path id="DejaVuSans-Bold-65" d="M 4031 1759 
L 4031 1441 
L 1416 1441 
Q 1456 1047 1700 850 
Q 1944 653 2381 653 
Q 2734 653 3104 758 
Q 3475 863 3866 1075 
L 3866 213 
Q 3469 63 3072 -14 
Q 2675 -91 2278 -91 
Q 1328 -91 801 392 
Q 275 875 275 1747 
Q 275 2603 792 3093 
Q 1309 3584 2216 3584 
Q 3041 3584 3536 3087 
Q 4031 2591 4031 1759 
z
M 2881 2131 
Q 2881 2450 2695 2645 
Q 2509 2841 2209 2841 
Q 1884 2841 1681 2658 
Q 1478 2475 1428 2131 
L 2881 2131 
z
" transform="scale(0.015625)"/>
       <path id="DejaVuSans-Bold-56" d="M 31 4666 
L 1241 4666 
L 2478 1222 
L 3713 4666 
L 4922 4666 
L 3194 0 
L 1759 0 
L 31 4666 
z
" transform="scale(0.015625)"/>
      </defs>
      <use xlink:href="#DejaVuSans-394" transform="translate(0 0.125)"/>
      <use xlink:href="#DejaVuSans-Oblique-45" transform="translate(68.408203 0.125)"/>
      <use xlink:href="#DejaVuSans-30" transform="translate(131.591797 -16.28125) scale(0.7)"/>
      <use xlink:href="#DejaVuSans-Bold-20" transform="translate(178.862305 0.125)"/>
      <use xlink:href="#DejaVuSans-Bold-28" transform="translate(213.676758 0.125)"/>
      <use xlink:href="#DejaVuSans-Bold-6d" transform="translate(259.379883 0.125)"/>
      <use xlink:href="#DejaVuSans-Bold-65" transform="translate(363.579102 0.125)"/>
      <use xlink:href="#DejaVuSans-Bold-56" transform="translate(431.401367 0.125)"/>
      <use xlink:href="#DejaVuSans-Bold-29" transform="translate(508.793945 0.125)"/>
     </g>
    </g>
   </g>
   <g id="line2d_43">
    <path d="M 69.948 199.660896 
L 250.741274 199.660896 
" clip-path="url(#pad8651228d)" style="fill: none; stroke: #404040; stroke-width: 1.15; stroke-linecap: square"/>
   </g>
   <g id="patch_9">
    <path d="M 69.948 231.192 
L 69.948 168.129793 
" style="fill: none; stroke: #000000; stroke-width: 1.65; stroke-linejoin: miter; stroke-linecap: square"/>
   </g>
   <g id="patch_10">
    <path d="M 250.741274 231.192 
L 250.741274 168.129793 
" style="fill: none; stroke: #000000; stroke-width: 1.65; stroke-linejoin: miter; stroke-linecap: square"/>
   </g>
   <g id="patch_11">
    <path d="M 69.948 231.192 
L 250.741274 231.192 
" style="fill: none; stroke: #000000; stroke-width: 1.65; stroke-linejoin: miter; stroke-linecap: square"/>
   </g>
   <g id="patch_12">
    <path d="M 69.948 168.129793 
L 250.741274 168.129793 
" style="fill: none; stroke: #000000; stroke-width: 1.65; stroke-linejoin: miter; stroke-linecap: square"/>
   </g>
   <g id="line2d_44">
    <path d="M 78.165876 209.868378 
L 81.901274 209.00121 
L 85.636673 201.472384 
L 89.372071 192.27727 
L 93.107469 184.434181 
L 96.842867 179.373158 
L 100.578265 177.342458 
L 104.313664 177.967453 
L 108.049062 180.566481 
L 111.78446 184.460437 
L 115.519858 189.167543 
L 119.255257 194.358603 
L 122.990655 199.749992 
L 126.726053 205.148224 
L 130.461451 210.326258 
L 134.19685 215.057173 
L 137.932248 219.189074 
L 141.667646 222.508339 
L 145.403044 224.732166 
L 149.138442 225.506063 
L 152.873841 224.376094 
L 156.609239 220.663122 
L 160.344637 213.277865 
L 164.080035 202.217403 
L 167.815434 191.424132 
L 175.28623 193.545896 
L 182.757027 202.780938 
L 190.227823 201.839517 
L 197.698619 197.900257 
L 205.169416 194.273325 
L 212.640212 192.133679 
L 220.111009 191.844899 
L 227.581805 193.505031 
L 235.052602 197.110983 
L 242.523398 202.571443 
" clip-path="url(#pad8651228d)" style="fill: none; stroke: #d95f02; stroke-width: 2.05; stroke-linecap: square"/>
   </g>
   <g id="text_27">
    <!-- $\pm 1$ kcal mol$^{-1}$ -->
    <g style="fill: #595959" transform="translate(176.427611 187.92665) scale(0.086 -0.086)">
     <defs>
      <path id="DejaVuSans-b1" d="M 2944 4013 
L 2944 2803 
L 4684 2803 
L 4684 2272 
L 2944 2272 
L 2944 1063 
L 2419 1063 
L 2419 2272 
L 678 2272 
L 678 2803 
L 2419 2803 
L 2419 4013 
L 2944 4013 
z
M 678 531 
L 4684 531 
L 4684 0 
L 678 0 
L 678 531 
z
" transform="scale(0.015625)"/>
      <path id="DejaVuSans-31" d="M 794 531 
L 1825 531 
L 1825 4091 
L 703 3866 
L 703 4441 
L 1819 4666 
L 2450 4666 
L 2450 531 
L 3481 531 
L 3481 0 
L 794 0 
L 794 531 
z
" transform="scale(0.015625)"/>
      <path id="DejaVuSans-Bold-6b" d="M 538 4863 
L 1656 4863 
L 1656 2216 
L 2944 3500 
L 4244 3500 
L 2534 1894 
L 4378 0 
L 3022 0 
L 1656 1459 
L 1656 0 
L 538 0 
L 538 4863 
z
" transform="scale(0.015625)"/>
      <path id="DejaVuSans-Bold-63" d="M 3366 3391 
L 3366 2478 
Q 3138 2634 2908 2709 
Q 2678 2784 2431 2784 
Q 1963 2784 1702 2511 
Q 1441 2238 1441 1747 
Q 1441 1256 1702 982 
Q 1963 709 2431 709 
Q 2694 709 2930 787 
Q 3166 866 3366 1019 
L 3366 103 
Q 3103 6 2833 -42 
Q 2563 -91 2291 -91 
Q 1344 -91 809 395 
Q 275 881 275 1747 
Q 275 2613 809 3098 
Q 1344 3584 2291 3584 
Q 2566 3584 2833 3536 
Q 3100 3488 3366 3391 
z
" transform="scale(0.015625)"/>
      <path id="DejaVuSans-Bold-6c" d="M 538 4863 
L 1656 4863 
L 1656 0 
L 538 0 
L 538 4863 
z
" transform="scale(0.015625)"/>
      <path id="DejaVuSans-Bold-6f" d="M 2203 2784 
Q 1831 2784 1636 2517 
Q 1441 2250 1441 1747 
Q 1441 1244 1636 976 
Q 1831 709 2203 709 
Q 2569 709 2762 976 
Q 2956 1244 2956 1747 
Q 2956 2250 2762 2517 
Q 2569 2784 2203 2784 
z
M 2203 3584 
Q 3106 3584 3614 3096 
Q 4122 2609 4122 1747 
Q 4122 884 3614 396 
Q 3106 -91 2203 -91 
Q 1297 -91 786 396 
Q 275 884 275 1747 
Q 275 2609 786 3096 
Q 1297 3584 2203 3584 
z
" transform="scale(0.015625)"/>
      <path id="DejaVuSans-2212" d="M 678 2272 
L 4684 2272 
L 4684 1741 
L 678 1741 
L 678 2272 
z
" transform="scale(0.015625)"/>
     </defs>
     <use xlink:href="#DejaVuSans-b1" transform="translate(0 0.684375)"/>
     <use xlink:href="#DejaVuSans-31" transform="translate(83.789062 0.684375)"/>
     <use xlink:href="#DejaVuSans-Bold-20" transform="translate(147.412109 0.684375)"/>
     <use xlink:href="#DejaVuSans-Bold-6b" transform="translate(182.226562 0.684375)"/>
     <use xlink:href="#DejaVuSans-Bold-63" transform="translate(248.730469 0.684375)"/>
     <use xlink:href="#DejaVuSans-Bold-61" transform="translate(308.007812 0.684375)"/>
     <use xlink:href="#DejaVuSans-Bold-6c" transform="translate(375.488281 0.684375)"/>
     <use xlink:href="#DejaVuSans-Bold-20" transform="translate(409.765625 0.684375)"/>
     <use xlink:href="#DejaVuSans-Bold-6d" transform="translate(444.580078 0.684375)"/>
     <use xlink:href="#DejaVuSans-Bold-6f" transform="translate(548.779297 0.684375)"/>
     <use xlink:href="#DejaVuSans-Bold-6c" transform="translate(617.480469 0.684375)"/>
     <use xlink:href="#DejaVuSans-2212" transform="translate(652.714844 38.965625) scale(0.7)"/>
     <use xlink:href="#DejaVuSans-31" transform="translate(711.367188 38.965625) scale(0.7)"/>
    </g>
   </g>
   <g id="PathCollection_3">
    <defs>
     <path id="mf621bd7140" d="M -0 4.123106 
L 4.123106 0 
L 0 -4.123106 
L -4.123106 -0 
z
" style="stroke: #ffffff; stroke-width: 0.9"/>
    </defs>
    <g clip-path="url(#pad8651228d)">
     <use xlink:href="#mf621bd7140" x="78.165876" y="199.660896" style="fill: #b2182b; stroke: #ffffff; stroke-width: 0.9"/>
     <use xlink:href="#mf621bd7140" x="100.578265" y="199.660896" style="fill: #b2182b; stroke: #ffffff; stroke-width: 0.9"/>
     <use xlink:href="#mf621bd7140" x="137.932248" y="199.660896" style="fill: #b2182b; stroke: #ffffff; stroke-width: 0.9"/>
     <use xlink:href="#mf621bd7140" x="167.815434" y="199.660896" style="fill: #b2182b; stroke: #ffffff; stroke-width: 0.9"/>
     <use xlink:href="#mf621bd7140" x="182.757027" y="199.660896" style="fill: #b2182b; stroke: #ffffff; stroke-width: 0.9"/>
     <use xlink:href="#mf621bd7140" x="205.169416" y="199.660896" style="fill: #b2182b; stroke: #ffffff; stroke-width: 0.9"/>
     <use xlink:href="#mf621bd7140" x="242.523398" y="199.660896" style="fill: #b2182b; stroke: #ffffff; stroke-width: 0.9"/>
    </g>
   </g>
  </g>
  <g id="axes_3">
   <g id="patch_13">
    <path d="M 297.747526 159.427208 
L 478.5408 159.427208 
L 478.5408 4.9248 
L 297.747526 4.9248 
z
" style="fill: #ffffff"/>
   </g>
   <g id="matplotlib.axis_5">
    <g id="xtick_11">
     <g id="line2d_45">
      <g>
       <use xlink:href="#m5fbd95c36b" x="319.661862" y="159.427208" style="stroke: #000000; stroke-width: 1.65"/>
      </g>
     </g>
     <g id="line2d_46">
      <g>
       <use xlink:href="#md9e3d3c757" x="319.661862" y="4.9248" style="stroke: #000000; stroke-width: 1.65"/>
      </g>
     </g>
     <g id="text_28">
      <!-- 1.0 -->
      <g transform="translate(310.361979 170.905567) scale(0.105 -0.105)">
       <use xlink:href="#DejaVuSans-Bold-31"/>
       <use xlink:href="#DejaVuSans-Bold-2e" transform="translate(69.580078 0)"/>
       <use xlink:href="#DejaVuSans-Bold-30" transform="translate(107.568359 0)"/>
      </g>
     </g>
    </g>
    <g id="xtick_12">
     <g id="line2d_47">
      <g>
       <use xlink:href="#m5fbd95c36b" x="357.707585" y="159.427208" style="stroke: #000000; stroke-width: 1.65"/>
      </g>
     </g>
     <g id="line2d_48">
      <g>
       <use xlink:href="#md9e3d3c757" x="357.707585" y="4.9248" style="stroke: #000000; stroke-width: 1.65"/>
      </g>
     </g>
     <g id="text_29">
      <!-- 1.5 -->
      <g transform="translate(348.407702 170.905567) scale(0.105 -0.105)">
       <use xlink:href="#DejaVuSans-Bold-31"/>
       <use xlink:href="#DejaVuSans-Bold-2e" transform="translate(69.580078 0)"/>
       <use xlink:href="#DejaVuSans-Bold-35" transform="translate(107.568359 0)"/>
      </g>
     </g>
    </g>
    <g id="xtick_13">
     <g id="line2d_49">
      <g>
       <use xlink:href="#m5fbd95c36b" x="395.753307" y="159.427208" style="stroke: #000000; stroke-width: 1.65"/>
      </g>
     </g>
     <g id="line2d_50">
      <g>
       <use xlink:href="#md9e3d3c757" x="395.753307" y="4.9248" style="stroke: #000000; stroke-width: 1.65"/>
      </g>
     </g>
     <g id="text_30">
      <!-- 2.0 -->
      <g transform="translate(386.453425 170.905567) scale(0.105 -0.105)">
       <use xlink:href="#DejaVuSans-Bold-32"/>
       <use xlink:href="#DejaVuSans-Bold-2e" transform="translate(69.580078 0)"/>
       <use xlink:href="#DejaVuSans-Bold-30" transform="translate(107.568359 0)"/>
      </g>
     </g>
    </g>
    <g id="xtick_14">
     <g id="line2d_51">
      <g>
       <use xlink:href="#m5fbd95c36b" x="433.79903" y="159.427208" style="stroke: #000000; stroke-width: 1.65"/>
      </g>
     </g>
     <g id="line2d_52">
      <g>
       <use xlink:href="#md9e3d3c757" x="433.79903" y="4.9248" style="stroke: #000000; stroke-width: 1.65"/>
      </g>
     </g>
     <g id="text_31">
      <!-- 2.5 -->
      <g transform="translate(424.499147 170.905567) scale(0.105 -0.105)">
       <use xlink:href="#DejaVuSans-Bold-32"/>
       <use xlink:href="#DejaVuSans-Bold-2e" transform="translate(69.580078 0)"/>
       <use xlink:href="#DejaVuSans-Bold-35" transform="translate(107.568359 0)"/>
      </g>
     </g>
    </g>
    <g id="xtick_15">
     <g id="line2d_53">
      <g>
       <use xlink:href="#m5fbd95c36b" x="471.844753" y="159.427208" style="stroke: #000000; stroke-width: 1.65"/>
      </g>
     </g>
     <g id="line2d_54">
      <g>
       <use xlink:href="#md9e3d3c757" x="471.844753" y="4.9248" style="stroke: #000000; stroke-width: 1.65"/>
      </g>
     </g>
     <g id="text_32">
      <!-- 3.0 -->
      <g transform="translate(462.54487 170.905567) scale(0.105 -0.105)">
       <use xlink:href="#DejaVuSans-Bold-33"/>
       <use xlink:href="#DejaVuSans-Bold-2e" transform="translate(69.580078 0)"/>
       <use xlink:href="#DejaVuSans-Bold-30" transform="translate(107.568359 0)"/>
      </g>
     </g>
    </g>
   </g>
   <g id="matplotlib.axis_6">
    <g id="ytick_10">
     <g id="line2d_55">
      <g>
       <use xlink:href="#meebd0662bf" x="297.747526" y="155.48869" style="stroke: #000000; stroke-width: 1.65"/>
      </g>
     </g>
     <g id="line2d_56">
      <g>
       <use xlink:href="#m95dd516b3c" x="478.5408" y="155.48869" style="stroke: #000000; stroke-width: 1.65"/>
      </g>
     </g>
     <g id="text_33">
      <!-- −109.6 -->
      <g transform="translate(252.237682 159.477869) scale(0.105 -0.105)">
       <use xlink:href="#DejaVuSans-Bold-2212"/>
       <use xlink:href="#DejaVuSans-Bold-31" transform="translate(83.789062 0)"/>
       <use xlink:href="#DejaVuSans-Bold-30" transform="translate(153.369141 0)"/>
       <use xlink:href="#DejaVuSans-Bold-39" transform="translate(222.949219 0)"/>
       <use xlink:href="#DejaVuSans-Bold-2e" transform="translate(292.529297 0)"/>
       <use xlink:href="#DejaVuSans-Bold-36" transform="translate(330.517578 0)"/>
      </g>
     </g>
    </g>
    <g id="ytick_11">
     <g id="line2d_57">
      <g>
       <use xlink:href="#meebd0662bf" x="297.747526" y="128.096875" style="stroke: #000000; stroke-width: 1.65"/>
      </g>
     </g>
     <g id="line2d_58">
      <g>
       <use xlink:href="#m95dd516b3c" x="478.5408" y="128.096875" style="stroke: #000000; stroke-width: 1.65"/>
      </g>
     </g>
     <g id="text_34">
      <!-- −109.5 -->
      <g transform="translate(252.237682 132.086055) scale(0.105 -0.105)">
       <use xlink:href="#DejaVuSans-Bold-2212"/>
       <use xlink:href="#DejaVuSans-Bold-31" transform="translate(83.789062 0)"/>
       <use xlink:href="#DejaVuSans-Bold-30" transform="translate(153.369141 0)"/>
       <use xlink:href="#DejaVuSans-Bold-39" transform="translate(222.949219 0)"/>
       <use xlink:href="#DejaVuSans-Bold-2e" transform="translate(292.529297 0)"/>
       <use xlink:href="#DejaVuSans-Bold-35" transform="translate(330.517578 0)"/>
      </g>
     </g>
    </g>
    <g id="ytick_12">
     <g id="line2d_59">
      <g>
       <use xlink:href="#meebd0662bf" x="297.747526" y="100.70506" style="stroke: #000000; stroke-width: 1.65"/>
      </g>
     </g>
     <g id="line2d_60">
      <g>
       <use xlink:href="#m95dd516b3c" x="478.5408" y="100.70506" style="stroke: #000000; stroke-width: 1.65"/>
      </g>
     </g>
     <g id="text_35">
      <!-- −109.4 -->
      <g transform="translate(252.237682 104.69424) scale(0.105 -0.105)">
       <use xlink:href="#DejaVuSans-Bold-2212"/>
       <use xlink:href="#DejaVuSans-Bold-31" transform="translate(83.789062 0)"/>
       <use xlink:href="#DejaVuSans-Bold-30" transform="translate(153.369141 0)"/>
       <use xlink:href="#DejaVuSans-Bold-39" transform="translate(222.949219 0)"/>
       <use xlink:href="#DejaVuSans-Bold-2e" transform="translate(292.529297 0)"/>
       <use xlink:href="#DejaVuSans-Bold-34" transform="translate(330.517578 0)"/>
      </g>
     </g>
    </g>
    <g id="ytick_13">
     <g id="line2d_61">
      <g>
       <use xlink:href="#meebd0662bf" x="297.747526" y="73.313245" style="stroke: #000000; stroke-width: 1.65"/>
      </g>
     </g>
     <g id="line2d_62">
      <g>
       <use xlink:href="#m95dd516b3c" x="478.5408" y="73.313245" style="stroke: #000000; stroke-width: 1.65"/>
      </g>
     </g>
     <g id="text_36">
      <!-- −109.3 -->
      <g transform="translate(252.237682 77.302425) scale(0.105 -0.105)">
       <use xlink:href="#DejaVuSans-Bold-2212"/>
       <use xlink:href="#DejaVuSans-Bold-31" transform="translate(83.789062 0)"/>
       <use xlink:href="#DejaVuSans-Bold-30" transform="translate(153.369141 0)"/>
       <use xlink:href="#DejaVuSans-Bold-39" transform="translate(222.949219 0)"/>
       <use xlink:href="#DejaVuSans-Bold-2e" transform="translate(292.529297 0)"/>
       <use xlink:href="#DejaVuSans-Bold-33" transform="translate(330.517578 0)"/>
      </g>
     </g>
    </g>
    <g id="ytick_14">
     <g id="line2d_63">
      <g>
       <use xlink:href="#meebd0662bf" x="297.747526" y="45.921431" style="stroke: #000000; stroke-width: 1.65"/>
      </g>
     </g>
     <g id="line2d_64">
      <g>
       <use xlink:href="#m95dd516b3c" x="478.5408" y="45.921431" style="stroke: #000000; stroke-width: 1.65"/>
      </g>
     </g>
     <g id="text_37">
      <!-- −109.2 -->
      <g transform="translate(252.237682 49.91061) scale(0.105 -0.105)">
       <use xlink:href="#DejaVuSans-Bold-2212"/>
       <use xlink:href="#DejaVuSans-Bold-31" transform="translate(83.789062 0)"/>
       <use xlink:href="#DejaVuSans-Bold-30" transform="translate(153.369141 0)"/>
       <use xlink:href="#DejaVuSans-Bold-39" transform="translate(222.949219 0)"/>
       <use xlink:href="#DejaVuSans-Bold-2e" transform="translate(292.529297 0)"/>
       <use xlink:href="#DejaVuSans-Bold-32" transform="translate(330.517578 0)"/>
      </g>
     </g>
    </g>
    <g id="ytick_15">
     <g id="line2d_65">
      <g>
       <use xlink:href="#meebd0662bf" x="297.747526" y="18.529616" style="stroke: #000000; stroke-width: 1.65"/>
      </g>
     </g>
     <g id="line2d_66">
      <g>
       <use xlink:href="#m95dd516b3c" x="478.5408" y="18.529616" style="stroke: #000000; stroke-width: 1.65"/>
      </g>
     </g>
     <g id="text_38">
      <!-- −109.1 -->
      <g transform="translate(252.237682 22.518796) scale(0.105 -0.105)">
       <use xlink:href="#DejaVuSans-Bold-2212"/>
       <use xlink:href="#DejaVuSans-Bold-31" transform="translate(83.789062 0)"/>
       <use xlink:href="#DejaVuSans-Bold-30" transform="translate(153.369141 0)"/>
       <use xlink:href="#DejaVuSans-Bold-39" transform="translate(222.949219 0)"/>
       <use xlink:href="#DejaVuSans-Bold-2e" transform="translate(292.529297 0)"/>
       <use xlink:href="#DejaVuSans-Bold-31" transform="translate(330.517578 0)"/>
      </g>
     </g>
    </g>
   </g>
   <g id="patch_14">
    <path d="M 297.747526 159.427208 
L 297.747526 4.9248 
" style="fill: none; stroke: #000000; stroke-width: 1.65; stroke-linejoin: miter; stroke-linecap: square"/>
   </g>
   <g id="patch_15">
    <path d="M 478.5408 159.427208 
L 478.5408 4.9248 
" style="fill: none; stroke: #000000; stroke-width: 1.65; stroke-linejoin: miter; stroke-linecap: square"/>
   </g>
   <g id="patch_16">
    <path d="M 297.747526 159.427208 
L 478.5408 159.427208 
" style="fill: none; stroke: #000000; stroke-width: 1.65; stroke-linejoin: miter; stroke-linecap: square"/>
   </g>
   <g id="patch_17">
    <path d="M 297.747526 4.9248 
L 478.5408 4.9248 
" style="fill: none; stroke: #000000; stroke-width: 1.65; stroke-linejoin: miter; stroke-linecap: square"/>
   </g>
   <g id="text_39">
    <!-- (b) N$_2$ -->
    <g transform="translate(310.403055 43.525015) scale(0.142 -0.142)">
     <defs>
      <path id="DejaVuSans-Bold-62" d="M 2400 722 
Q 2759 722 2948 984 
Q 3138 1247 3138 1747 
Q 3138 2247 2948 2509 
Q 2759 2772 2400 2772 
Q 2041 2772 1848 2508 
Q 1656 2244 1656 1747 
Q 1656 1250 1848 986 
Q 2041 722 2400 722 
z
M 1656 2988 
Q 1888 3294 2169 3439 
Q 2450 3584 2816 3584 
Q 3463 3584 3878 3070 
Q 4294 2556 4294 1747 
Q 4294 938 3878 423 
Q 3463 -91 2816 -91 
Q 2450 -91 2169 54 
Q 1888 200 1656 506 
L 1656 0 
L 538 0 
L 538 4863 
L 1656 4863 
L 1656 2988 
z
" transform="scale(0.015625)"/>
     </defs>
     <use xlink:href="#DejaVuSans-Bold-28" transform="translate(0 0.015625)"/>
     <use xlink:href="#DejaVuSans-Bold-62" transform="translate(45.703125 0.015625)"/>
     <use xlink:href="#DejaVuSans-Bold-29" transform="translate(117.285156 0.015625)"/>
     <use xlink:href="#DejaVuSans-Bold-20" transform="translate(162.988281 0.015625)"/>
     <use xlink:href="#DejaVuSans-Bold-4e" transform="translate(197.802734 0.015625)"/>
     <use xlink:href="#DejaVuSans-32" transform="translate(282.451172 -16.390625) scale(0.7)"/>
    </g>
   </g>
   <g id="line2d_67">
    <path d="M 304.443573 11.947637 
L 308.248145 68.173445 
L 312.052717 105.750085 
L 315.85729 129.695735 
L 319.661862 143.728562 
L 323.466434 150.611577 
L 327.271006 152.404371 
L 331.075579 150.641708 
L 334.880151 146.467469 
L 338.684723 140.730254 
L 342.489296 134.056786 
L 346.293868 126.906153 
L 350.09844 119.610617 
L 353.903012 112.409035 
L 357.707585 105.470414 
L 361.512157 98.913088 
L 365.316729 92.817861 
L 369.121301 87.239244 
L 372.925874 82.21175 
L 376.730446 77.754006 
L 380.535018 73.873408 
L 384.339591 70.567764 
L 388.144163 67.826117 
L 391.948735 65.604915 
L 395.753307 63.766102 
L 403.362452 60.53332 
L 410.971596 58.142015 
L 418.580741 56.681483 
L 426.189886 55.770705 
L 433.79903 55.176303 
L 441.408175 54.773096 
L 449.017319 54.490138 
L 456.626464 54.285247 
L 464.235608 54.132949 
L 471.844753 54.017629 
" clip-path="url(#pe7d38ef8e4)" style="fill: none; stroke-dasharray: 12.22,7.52; stroke-dashoffset: 0; stroke: #111111; stroke-width: 2.35"/>
   </g>
   <g id="line2d_68">
    <path d="M 304.443573 12.905203 
L 308.248145 67.206001 
L 312.052717 103.576329 
L 315.85729 126.95552 
L 319.661862 140.797999 
L 323.466434 147.693997 
L 327.271006 149.736857 
L 331.075579 148.668487 
L 334.880151 145.03662 
L 338.684723 139.737756 
L 342.489296 133.941939 
L 346.293868 127.816036 
L 350.09844 121.4382 
L 353.903012 114.864907 
L 357.707585 108.079459 
L 361.512157 101.960718 
L 365.316729 95.922375 
L 369.121301 89.89445 
L 372.925874 85.610844 
L 376.730446 80.634125 
L 380.535018 77.121041 
L 384.339591 72.842465 
L 388.144163 68.825812 
L 391.948735 66.405984 
L 395.753307 63.763965 
L 403.362452 60.154708 
L 410.971596 57.931028 
L 418.580741 55.800915 
L 426.189886 53.784851 
L 433.79903 55.333531 
L 441.408175 58.516987 
L 449.017319 59.556284 
L 456.626464 57.789099 
L 464.235608 55.22109 
L 471.844753 52.682135 
" clip-path="url(#pe7d38ef8e4)" style="fill: none; stroke: #2b6cb0; stroke-width: 2.45; stroke-linecap: square"/>
   </g>
   <g id="legend_2">
    <g id="line2d_69">
     <path d="M 339.288925 11.993706 
L 348.038925 11.993706 
L 356.788925 11.993706 
" style="fill: none; stroke-dasharray: 12.22,7.52; stroke-dashoffset: 0; stroke: #111111; stroke-width: 2.35"/>
    </g>
    <g id="text_40">
     <!-- MR-ccCA reference -->
     <g transform="translate(362.388925 14.443706) scale(0.07 -0.07)">
      <use xlink:href="#DejaVuSans-4d"/>
      <use xlink:href="#DejaVuSans-52" transform="translate(86.279297 0)"/>
      <use xlink:href="#DejaVuSans-2d" transform="translate(151.761719 0)"/>
      <use xlink:href="#DejaVuSans-63" transform="translate(187.845703 0)"/>
      <use xlink:href="#DejaVuSans-63" transform="translate(242.826172 0)"/>
      <use xlink:href="#DejaVuSans-43" transform="translate(297.806641 0)"/>
      <use xlink:href="#DejaVuSans-41" transform="translate(367.630859 0)"/>
      <use xlink:href="#DejaVuSans-20" transform="translate(436.039062 0)"/>
      <use xlink:href="#DejaVuSans-72" transform="translate(467.826172 0)"/>
      <use xlink:href="#DejaVuSans-65" transform="translate(506.689453 0)"/>
      <use xlink:href="#DejaVuSans-66" transform="translate(568.212891 0)"/>
      <use xlink:href="#DejaVuSans-65" transform="translate(603.417969 0)"/>
      <use xlink:href="#DejaVuSans-72" transform="translate(664.941406 0)"/>
      <use xlink:href="#DejaVuSans-65" transform="translate(703.804688 0)"/>
      <use xlink:href="#DejaVuSans-6e" transform="translate(765.328125 0)"/>
      <use xlink:href="#DejaVuSans-63" transform="translate(828.707031 0)"/>
      <use xlink:href="#DejaVuSans-65" transform="translate(883.6875 0)"/>
     </g>
    </g>
    <g id="line2d_70">
     <path d="M 339.288925 21.218394 
L 348.038925 21.218394 
L 356.788925 21.218394 
" style="fill: none; stroke: #2b6cb0; stroke-width: 2.45; stroke-linecap: square"/>
    </g>
    <g id="text_41">
     <!-- Neural HFX/no-PT2 (194.2 meV) -->
     <g transform="translate(362.388925 23.668394) scale(0.07 -0.07)">
      <defs>
       <path id="DejaVuSans-2f" d="M 1625 4666 
L 2156 4666 
L 531 -594 
L 0 -594 
L 1625 4666 
z
" transform="scale(0.015625)"/>
       <path id="DejaVuSans-39" d="M 703 97 
L 703 672 
Q 941 559 1184 500 
Q 1428 441 1663 441 
Q 2288 441 2617 861 
Q 2947 1281 2994 2138 
Q 2813 1869 2534 1725 
Q 2256 1581 1919 1581 
Q 1219 1581 811 2004 
Q 403 2428 403 3163 
Q 403 3881 828 4315 
Q 1253 4750 1959 4750 
Q 2769 4750 3195 4129 
Q 3622 3509 3622 2328 
Q 3622 1225 3098 567 
Q 2575 -91 1691 -91 
Q 1453 -91 1209 -44 
Q 966 3 703 97 
z
M 1959 2075 
Q 2384 2075 2632 2365 
Q 2881 2656 2881 3163 
Q 2881 3666 2632 3958 
Q 2384 4250 1959 4250 
Q 1534 4250 1286 3958 
Q 1038 3666 1038 3163 
Q 1038 2656 1286 2365 
Q 1534 2075 1959 2075 
z
" transform="scale(0.015625)"/>
       <path id="DejaVuSans-34" d="M 2419 4116 
L 825 1625 
L 2419 1625 
L 2419 4116 
z
M 2253 4666 
L 3047 4666 
L 3047 1625 
L 3713 1625 
L 3713 1100 
L 3047 1100 
L 3047 0 
L 2419 0 
L 2419 1100 
L 313 1100 
L 313 1709 
L 2253 4666 
z
" transform="scale(0.015625)"/>
      </defs>
      <use xlink:href="#DejaVuSans-4e"/>
      <use xlink:href="#DejaVuSans-65" transform="translate(74.804688 0)"/>
      <use xlink:href="#DejaVuSans-75" transform="translate(136.328125 0)"/>
      <use xlink:href="#DejaVuSans-72" transform="translate(199.707031 0)"/>
      <use xlink:href="#DejaVuSans-61" transform="translate(240.820312 0)"/>
      <use xlink:href="#DejaVuSans-6c" transform="translate(302.099609 0)"/>
      <use xlink:href="#DejaVuSans-20" transform="translate(329.882812 0)"/>
      <use xlink:href="#DejaVuSans-48" transform="translate(361.669922 0)"/>
      <use xlink:href="#DejaVuSans-46" transform="translate(436.865234 0)"/>
      <use xlink:href="#DejaVuSans-58" transform="translate(494.384766 0)"/>
      <use xlink:href="#DejaVuSans-2f" transform="translate(562.890625 0)"/>
      <use xlink:href="#DejaVuSans-6e" transform="translate(596.582031 0)"/>
      <use xlink:href="#DejaVuSans-6f" transform="translate(659.960938 0)"/>
      <use xlink:href="#DejaVuSans-2d" transform="translate(723.017578 0)"/>
      <use xlink:href="#DejaVuSans-50" transform="translate(759.101562 0)"/>
      <use xlink:href="#DejaVuSans-54" transform="translate(819.404297 0)"/>
      <use xlink:href="#DejaVuSans-32" transform="translate(880.488281 0)"/>
      <use xlink:href="#DejaVuSans-20" transform="translate(944.111328 0)"/>
      <use xlink:href="#DejaVuSans-28" transform="translate(975.898438 0)"/>
      <use xlink:href="#DejaVuSans-31" transform="translate(1014.912109 0)"/>
      <use xlink:href="#DejaVuSans-39" transform="translate(1078.535156 0)"/>
      <use xlink:href="#DejaVuSans-34" transform="translate(1142.158203 0)"/>
      <use xlink:href="#DejaVuSans-2e" transform="translate(1205.78125 0)"/>
      <use xlink:href="#DejaVuSans-32" transform="translate(1237.568359 0)"/>
      <use xlink:href="#DejaVuSans-20" transform="translate(1301.191406 0)"/>
      <use xlink:href="#DejaVuSans-6d" transform="translate(1332.978516 0)"/>
      <use xlink:href="#DejaVuSans-65" transform="translate(1430.390625 0)"/>
      <use xlink:href="#DejaVuSans-56" transform="translate(1491.914062 0)"/>
      <use xlink:href="#DejaVuSans-29" transform="translate(1560.322266 0)"/>
     </g>
    </g>
    <g id="PathCollection_4">
     <g>
      <use xlink:href="#mbf2ce3024c" x="348.038925" y="31.055581" style="fill: #b2182b; stroke: #ffffff; stroke-width: 0.9"/>
     </g>
    </g>
    <g id="text_42">
     <!-- Training points -->
     <g transform="translate(362.388925 32.893081) scale(0.07 -0.07)">
      <use xlink:href="#DejaVuSans-54"/>
      <use xlink:href="#DejaVuSans-72" transform="translate(46.333984 0)"/>
      <use xlink:href="#DejaVuSans-61" transform="translate(87.447266 0)"/>
      <use xlink:href="#DejaVuSans-69" transform="translate(148.726562 0)"/>
      <use xlink:href="#DejaVuSans-6e" transform="translate(176.509766 0)"/>
      <use xlink:href="#DejaVuSans-69" transform="translate(239.888672 0)"/>
      <use xlink:href="#DejaVuSans-6e" transform="translate(267.671875 0)"/>
      <use xlink:href="#DejaVuSans-67" transform="translate(331.050781 0)"/>
      <use xlink:href="#DejaVuSans-20" transform="translate(394.527344 0)"/>
      <use xlink:href="#DejaVuSans-70" transform="translate(426.314453 0)"/>
      <use xlink:href="#DejaVuSans-6f" transform="translate(489.791016 0)"/>
      <use xlink:href="#DejaVuSans-69" transform="translate(550.972656 0)"/>
      <use xlink:href="#DejaVuSans-6e" transform="translate(578.755859 0)"/>
      <use xlink:href="#DejaVuSans-74" transform="translate(642.134766 0)"/>
      <use xlink:href="#DejaVuSans-73" transform="translate(681.34375 0)"/>
     </g>
    </g>
   </g>
   <g id="PathCollection_5">
    <g clip-path="url(#pe7d38ef8e4)">
     <use xlink:href="#mbf2ce3024c" x="304.443573" y="11.947637" style="fill: #b2182b; stroke: #ffffff; stroke-width: 0.9"/>
     <use xlink:href="#mbf2ce3024c" x="327.271006" y="152.404371" style="fill: #b2182b; stroke: #ffffff; stroke-width: 0.9"/>
     <use xlink:href="#mbf2ce3024c" x="365.316729" y="92.817861" style="fill: #b2182b; stroke: #ffffff; stroke-width: 0.9"/>
     <use xlink:href="#mbf2ce3024c" x="395.753307" y="63.766102" style="fill: #b2182b; stroke: #ffffff; stroke-width: 0.9"/>
     <use xlink:href="#mbf2ce3024c" x="410.971596" y="58.142015" style="fill: #b2182b; stroke: #ffffff; stroke-width: 0.9"/>
     <use xlink:href="#mbf2ce3024c" x="433.79903" y="55.176303" style="fill: #b2182b; stroke: #ffffff; stroke-width: 0.9"/>
     <use xlink:href="#mbf2ce3024c" x="471.844753" y="54.017629" style="fill: #b2182b; stroke: #ffffff; stroke-width: 0.9"/>
    </g>
   </g>
  </g>
  <g id="axes_4">
   <g id="patch_18">
    <path d="M 297.747526 231.192 
L 478.5408 231.192 
L 478.5408 168.129793 
L 297.747526 168.129793 
z
" style="fill: #ffffff"/>
   </g>
   <g id="patch_19">
    <path d="M 297.747526 201.887804 
L 478.5408 201.887804 
L 478.5408 197.433988 
L 297.747526 197.433988 
z
" clip-path="url(#pf3079e032a)" style="fill: #dbdbdb; opacity: 0.78; stroke: #dbdbdb; stroke-linejoin: miter"/>
   </g>
   <g id="matplotlib.axis_7">
    <g id="xtick_16">
     <g id="line2d_71">
      <g>
       <use xlink:href="#m5fbd95c36b" x="320.906995" y="231.192" style="stroke: #000000; stroke-width: 1.65"/>
      </g>
     </g>
     <g id="line2d_72">
      <g>
       <use xlink:href="#md9e3d3c757" x="320.906995" y="168.129793" style="stroke: #000000; stroke-width: 1.65"/>
      </g>
     </g>
     <g id="text_43">
      <!-- 1.0 -->
      <g transform="translate(311.607112 242.670359) scale(0.105 -0.105)">
       <use xlink:href="#DejaVuSans-Bold-31"/>
       <use xlink:href="#DejaVuSans-Bold-2e" transform="translate(69.580078 0)"/>
       <use xlink:href="#DejaVuSans-Bold-30" transform="translate(107.568359 0)"/>
      </g>
     </g>
    </g>
    <g id="xtick_17">
     <g id="line2d_73">
      <g>
       <use xlink:href="#m5fbd95c36b" x="358.260977" y="231.192" style="stroke: #000000; stroke-width: 1.65"/>
      </g>
     </g>
     <g id="line2d_74">
      <g>
       <use xlink:href="#md9e3d3c757" x="358.260977" y="168.129793" style="stroke: #000000; stroke-width: 1.65"/>
      </g>
     </g>
     <g id="text_44">
      <!-- 1.5 -->
      <g transform="translate(348.961094 242.670359) scale(0.105 -0.105)">
       <use xlink:href="#DejaVuSans-Bold-31"/>
       <use xlink:href="#DejaVuSans-Bold-2e" transform="translate(69.580078 0)"/>
       <use xlink:href="#DejaVuSans-Bold-35" transform="translate(107.568359 0)"/>
      </g>
     </g>
    </g>
    <g id="xtick_18">
     <g id="line2d_75">
      <g>
       <use xlink:href="#m5fbd95c36b" x="395.614959" y="231.192" style="stroke: #000000; stroke-width: 1.65"/>
      </g>
     </g>
     <g id="line2d_76">
      <g>
       <use xlink:href="#md9e3d3c757" x="395.614959" y="168.129793" style="stroke: #000000; stroke-width: 1.65"/>
      </g>
     </g>
     <g id="text_45">
      <!-- 2.0 -->
      <g transform="translate(386.315076 242.670359) scale(0.105 -0.105)">
       <use xlink:href="#DejaVuSans-Bold-32"/>
       <use xlink:href="#DejaVuSans-Bold-2e" transform="translate(69.580078 0)"/>
       <use xlink:href="#DejaVuSans-Bold-30" transform="translate(107.568359 0)"/>
      </g>
     </g>
    </g>
    <g id="xtick_19">
     <g id="line2d_77">
      <g>
       <use xlink:href="#m5fbd95c36b" x="432.968942" y="231.192" style="stroke: #000000; stroke-width: 1.65"/>
      </g>
     </g>
     <g id="line2d_78">
      <g>
       <use xlink:href="#md9e3d3c757" x="432.968942" y="168.129793" style="stroke: #000000; stroke-width: 1.65"/>
      </g>
     </g>
     <g id="text_46">
      <!-- 2.5 -->
      <g transform="translate(423.669059 242.670359) scale(0.105 -0.105)">
       <use xlink:href="#DejaVuSans-Bold-32"/>
       <use xlink:href="#DejaVuSans-Bold-2e" transform="translate(69.580078 0)"/>
       <use xlink:href="#DejaVuSans-Bold-35" transform="translate(107.568359 0)"/>
      </g>
     </g>
    </g>
    <g id="xtick_20">
     <g id="line2d_79">
      <g>
       <use xlink:href="#m5fbd95c36b" x="470.322924" y="231.192" style="stroke: #000000; stroke-width: 1.65"/>
      </g>
     </g>
     <g id="line2d_80">
      <g>
       <use xlink:href="#md9e3d3c757" x="470.322924" y="168.129793" style="stroke: #000000; stroke-width: 1.65"/>
      </g>
     </g>
     <g id="text_47">
      <!-- 3.0 -->
      <g transform="translate(461.023041 242.670359) scale(0.105 -0.105)">
       <use xlink:href="#DejaVuSans-Bold-33"/>
       <use xlink:href="#DejaVuSans-Bold-2e" transform="translate(69.580078 0)"/>
       <use xlink:href="#DejaVuSans-Bold-30" transform="translate(107.568359 0)"/>
      </g>
     </g>
    </g>
    <g id="text_48">
     <!-- $R$ ($\AA$) -->
     <g transform="translate(370.919163 261.060437) scale(0.13 -0.13)">
      <use xlink:href="#DejaVuSans-Oblique-52" transform="translate(0 0.171875)"/>
      <use xlink:href="#DejaVuSans-Bold-20" transform="translate(69.482422 0.171875)"/>
      <use xlink:href="#DejaVuSans-Bold-28" transform="translate(104.296875 0.171875)"/>
      <use xlink:href="#DejaVuSans-Oblique-c5" transform="translate(150 0.171875)"/>
      <use xlink:href="#DejaVuSans-Bold-29" transform="translate(218.408203 0.171875)"/>
     </g>
    </g>
   </g>
   <g id="matplotlib.axis_8">
    <g id="ytick_16">
     <g id="line2d_81">
      <g>
       <use xlink:href="#meebd0662bf" x="297.747526" y="225.33775" style="stroke: #000000; stroke-width: 1.65"/>
      </g>
     </g>
     <g id="line2d_82">
      <g>
       <use xlink:href="#m95dd516b3c" x="478.5408" y="225.33775" style="stroke: #000000; stroke-width: 1.65"/>
      </g>
     </g>
     <g id="text_49">
      <!-- −500 -->
      <g transform="translate(263.531744 229.326929) scale(0.105 -0.105)">
       <use xlink:href="#DejaVuSans-Bold-2212"/>
       <use xlink:href="#DejaVuSans-Bold-35" transform="translate(83.789062 0)"/>
       <use xlink:href="#DejaVuSans-Bold-30" transform="translate(153.369141 0)"/>
       <use xlink:href="#DejaVuSans-Bold-30" transform="translate(222.949219 0)"/>
      </g>
     </g>
    </g>
    <g id="ytick_17">
     <g id="line2d_83">
      <g>
       <use xlink:href="#meebd0662bf" x="297.747526" y="199.660896" style="stroke: #000000; stroke-width: 1.65"/>
      </g>
     </g>
     <g id="line2d_84">
      <g>
       <use xlink:href="#m95dd516b3c" x="478.5408" y="199.660896" style="stroke: #000000; stroke-width: 1.65"/>
      </g>
     </g>
     <g id="text_50">
      <!-- 0 -->
      <g transform="translate(286.941823 203.650076) scale(0.105 -0.105)">
       <use xlink:href="#DejaVuSans-Bold-30"/>
      </g>
     </g>
    </g>
    <g id="ytick_18">
     <g id="line2d_85">
      <g>
       <use xlink:href="#meebd0662bf" x="297.747526" y="173.984043" style="stroke: #000000; stroke-width: 1.65"/>
      </g>
     </g>
     <g id="line2d_86">
      <g>
       <use xlink:href="#m95dd516b3c" x="478.5408" y="173.984043" style="stroke: #000000; stroke-width: 1.65"/>
      </g>
     </g>
     <g id="text_51">
      <!-- 500 -->
      <g transform="translate(272.330416 177.973223) scale(0.105 -0.105)">
       <use xlink:href="#DejaVuSans-Bold-35"/>
       <use xlink:href="#DejaVuSans-Bold-30" transform="translate(69.580078 0)"/>
       <use xlink:href="#DejaVuSans-Bold-30" transform="translate(139.160156 0)"/>
      </g>
     </g>
    </g>
   </g>
   <g id="line2d_87">
    <path d="M 297.747526 199.660896 
L 478.5408 199.660896 
" clip-path="url(#pf3079e032a)" style="fill: none; stroke: #404040; stroke-width: 1.15; stroke-linecap: square"/>
   </g>
   <g id="patch_20">
    <path d="M 297.747526 231.192 
L 297.747526 168.129793 
" style="fill: none; stroke: #000000; stroke-width: 1.65; stroke-linejoin: miter; stroke-linecap: square"/>
   </g>
   <g id="patch_21">
    <path d="M 478.5408 231.192 
L 478.5408 168.129793 
" style="fill: none; stroke: #000000; stroke-width: 1.65; stroke-linejoin: miter; stroke-linecap: square"/>
   </g>
   <g id="patch_22">
    <path d="M 297.747526 231.192 
L 478.5408 231.192 
" style="fill: none; stroke: #000000; stroke-width: 1.65; stroke-linejoin: miter; stroke-linecap: square"/>
   </g>
   <g id="patch_23">
    <path d="M 297.747526 168.129793 
L 478.5408 168.129793 
" style="fill: none; stroke: #000000; stroke-width: 1.65; stroke-linejoin: miter; stroke-linecap: square"/>
   </g>
   <g id="line2d_88">
    <path d="M 305.965402 204.545965 
L 309.7008 194.725439 
L 313.436198 188.571384 
L 317.171596 185.681565 
L 320.906995 184.7105 
L 324.642393 184.776734 
L 328.377791 186.052456 
L 332.113189 189.594422 
L 335.848588 192.361355 
L 339.583986 194.597626 
L 343.319384 199.074999 
L 347.054782 204.302705 
L 350.790181 208.984394 
L 354.525579 212.189636 
L 358.260977 212.971052 
L 361.996375 215.208519 
L 365.731773 215.498711 
L 369.467172 213.206546 
L 373.20257 217.001525 
L 376.937968 214.353949 
L 380.673366 216.228841 
L 384.408765 211.265383 
L 388.144163 204.760886 
L 391.879561 203.747588 
L 395.614959 199.649991 
L 403.085756 197.729388 
L 410.556552 198.584539 
L 418.027349 195.168637 
L 425.498145 189.529974 
L 432.968942 200.463004 
L 440.439738 218.760523 
L 447.910535 225.506063 
L 455.381331 217.535949 
L 462.852127 205.212095 
L 470.322924 192.847812 
" clip-path="url(#pf3079e032a)" style="fill: none; stroke: #2b6cb0; stroke-width: 2.05; stroke-linecap: square"/>
   </g>
   <g id="text_52">
    <!-- $\pm 1$ kcal mol$^{-1}$ -->
    <g style="fill: #595959" transform="translate(310.308844 203.637333) scale(0.086 -0.086)">
     <use xlink:href="#DejaVuSans-b1" transform="translate(0 0.684375)"/>
     <use xlink:href="#DejaVuSans-31" transform="translate(83.789062 0.684375)"/>
     <use xlink:href="#DejaVuSans-Bold-20" transform="translate(147.412109 0.684375)"/>
     <use xlink:href="#DejaVuSans-Bold-6b" transform="translate(182.226562 0.684375)"/>
     <use xlink:href="#DejaVuSans-Bold-63" transform="translate(248.730469 0.684375)"/>
     <use xlink:href="#DejaVuSans-Bold-61" transform="translate(308.007812 0.684375)"/>
     <use xlink:href="#DejaVuSans-Bold-6c" transform="translate(375.488281 0.684375)"/>
     <use xlink:href="#DejaVuSans-Bold-20" transform="translate(409.765625 0.684375)"/>
     <use xlink:href="#DejaVuSans-Bold-6d" transform="translate(444.580078 0.684375)"/>
     <use xlink:href="#DejaVuSans-Bold-6f" transform="translate(548.779297 0.684375)"/>
     <use xlink:href="#DejaVuSans-Bold-6c" transform="translate(617.480469 0.684375)"/>
     <use xlink:href="#DejaVuSans-2212" transform="translate(652.714844 38.965625) scale(0.7)"/>
     <use xlink:href="#DejaVuSans-31" transform="translate(711.367188 38.965625) scale(0.7)"/>
    </g>
   </g>
   <g id="PathCollection_6">
    <g clip-path="url(#pf3079e032a)">
     <use xlink:href="#mf621bd7140" x="305.965402" y="199.660896" style="fill: #b2182b; stroke: #ffffff; stroke-width: 0.9"/>
     <use xlink:href="#mf621bd7140" x="328.377791" y="199.660896" style="fill: #b2182b; stroke: #ffffff; stroke-width: 0.9"/>
     <use xlink:href="#mf621bd7140" x="365.731773" y="199.660896" style="fill: #b2182b; stroke: #ffffff; stroke-width: 0.9"/>
     <use xlink:href="#mf621bd7140" x="395.614959" y="199.660896" style="fill: #b2182b; stroke: #ffffff; stroke-width: 0.9"/>
     <use xlink:href="#mf621bd7140" x="410.556552" y="199.660896" style="fill: #b2182b; stroke: #ffffff; stroke-width: 0.9"/>
     <use xlink:href="#mf621bd7140" x="432.968942" y="199.660896" style="fill: #b2182b; stroke: #ffffff; stroke-width: 0.9"/>
     <use xlink:href="#mf621bd7140" x="470.322924" y="199.660896" style="fill: #b2182b; stroke: #ffffff; stroke-width: 0.9"/>
    </g>
   </g>
  </g>
 </g>
 <defs>
  <clipPath id="p74a7fcd6b6">
   <rect x="69.948" y="4.9248" width="180.793274" height="154.502408"/>
  </clipPath>
  <clipPath id="pad8651228d">
   <rect x="69.948" y="168.129793" width="180.793274" height="63.062207"/>
  </clipPath>
  <clipPath id="pe7d38ef8e4">
   <rect x="297.747526" y="4.9248" width="180.793274" height="154.502408"/>
  </clipPath>
  <clipPath id="pf3079e032a">
   <rect x="297.747526" y="168.129793" width="180.793274" height="63.062207"/>
  </clipPath>
 </defs>
</svg>
