<?xml version="1.0" encoding="utf-8" standalone="no"?>
<!DOCTYPE svg PUBLIC "-//W3C//DTD SVG 1.1//EN"
  "http://www.w3.org/Graphics/SVG/1.1/DTD/svg11.dtd">
<svg xmlns:xlink="http://www.w3.org/1999/xlink" width="219.6pt" height="255.6pt" viewBox="0 0 219.6 255.6" xmlns="http://www.w3.org/2000/svg" version="1.1">
 <metadata>
  <rdf:RDF xmlns:dc="http://purl.org/dc/elements/1.1/" xmlns:cc="http://creativecommons.org/ns#" xmlns:rdf="http://www.w3.org/1999/02/22-rdf-syntax-ns#">
   <cc:Work>
    <dc:type rdf:resource="http://purl.org/dc/dcmitype/StillImage"/>
    <dc:date>2026-06-23T14:43:04.873779</dc:date>
    <dc:format>image/svg+xml</dc:format>
    <dc:creator>
     <cc:Agent>
      <dc:title>Matplotlib v3.10.8, https://matplotlib.org/</dc:title>
     </cc:Agent>
    </dc:creator>
   </cc:Work>
  </rdf:RDF>
 </metadata>
 <defs>
  <style type="text/css">*{stroke-linejoin: round; stroke-linecap: butt}</style>
 </defs>
 <g id="figure_1">
  <g id="patch_1">
   <path d="M 0 255.6 
L 219.6 255.6 
L 219.6 0 
L 0 0 
z
" style="fill: #ffffff"/>
  </g>
  <g id="axes_1">
   <g id="patch_2">
    <path d="M 65.88 148.695371 
L 216.306 148.695371 
L 216.306 3.834 
L 65.88 3.834 
z
" style="fill: #ffffff"/>
   </g>
   <g id="matplotlib.axis_1">
    <g id="xtick_1">
     <g id="line2d_1">
      <defs>
       <path id="m2022d868e4" d="M 0 0 
L 0 -4.8 
" style="stroke: #000000; stroke-width: 1.65"/>
      </defs>
      <g>
       <use xlink:href="#m2022d868e4" x="70.13734" y="148.695371" style="stroke: #000000; stroke-width: 1.65"/>
      </g>
     </g>
     <g id="line2d_2">
      <defs>
       <path id="med37e32d52" d="M 0 0 
L 0 4.8 
" style="stroke: #000000; stroke-width: 1.65"/>
      </defs>
      <g>
       <use xlink:href="#med37e32d52" x="70.13734" y="3.834" style="stroke: #000000; stroke-width: 1.65"/>
      </g>
     </g>
    </g>
    <g id="xtick_2">
     <g id="line2d_3">
      <g>
       <use xlink:href="#m2022d868e4" x="95.939398" y="148.695371" style="stroke: #000000; stroke-width: 1.65"/>
      </g>
     </g>
     <g id="line2d_4">
      <g>
       <use xlink:href="#med37e32d52" x="95.939398" y="3.834" style="stroke: #000000; stroke-width: 1.65"/>
      </g>
     </g>
    </g>
    <g id="xtick_3">
     <g id="line2d_5">
      <g>
       <use xlink:href="#m2022d868e4" x="121.741456" y="148.695371" style="stroke: #000000; stroke-width: 1.65"/>
      </g>
     </g>
     <g id="line2d_6">
      <g>
       <use xlink:href="#med37e32d52" x="121.741456" y="3.834" style="stroke: #000000; stroke-width: 1.65"/>
      </g>
     </g>
    </g>
    <g id="xtick_4">
     <g id="line2d_7">
      <g>
       <use xlink:href="#m2022d868e4" x="147.543515" y="148.695371" style="stroke: #000000; stroke-width: 1.65"/>
      </g>
     </g>
     <g id="line2d_8">
      <g>
       <use xlink:href="#med37e32d52" x="147.543515" y="3.834" style="stroke: #000000; stroke-width: 1.65"/>
      </g>
     </g>
    </g>
    <g id="xtick_5">
     <g id="line2d_9">
      <g>
       <use xlink:href="#m2022d868e4" x="173.345573" y="148.695371" style="stroke: #000000; stroke-width: 1.65"/>
      </g>
     </g>
     <g id="line2d_10">
      <g>
       <use xlink:href="#med37e32d52" x="173.345573" y="3.834" style="stroke: #000000; stroke-width: 1.65"/>
      </g>
     </g>
    </g>
    <g id="xtick_6">
     <g id="line2d_11">
      <g>
       <use xlink:href="#m2022d868e4" x="199.147631" y="148.695371" style="stroke: #000000; stroke-width: 1.65"/>
      </g>
     </g>
     <g id="line2d_12">
      <g>
       <use xlink:href="#med37e32d52" x="199.147631" y="3.834" style="stroke: #000000; stroke-width: 1.65"/>
      </g>
     </g>
    </g>
   </g>
   <g id="matplotlib.axis_2">
    <g id="ytick_1">
     <g id="line2d_13">
      <defs>
       <path id="mb576a969ec" d="M 0 0 
L 4.8 0 
" style="stroke: #000000; stroke-width: 1.65"/>
      </defs>
      <g>
       <use xlink:href="#mb576a969ec" x="65.88" y="128.156251" style="stroke: #000000; stroke-width: 1.65"/>
      </g>
     </g>
     <g id="line2d_14">
      <defs>
       <path id="m8249adbe80" d="M 0 0 
L -4.8 0 
" style="stroke: #000000; stroke-width: 1.65"/>
      </defs>
      <g>
       <use xlink:href="#m8249adbe80" x="216.306" y="128.156251" style="stroke: #000000; stroke-width: 1.65"/>
      </g>
     </g>
     <g id="text_1">
      <!-- −109.0 -->
      <g transform="translate(20.370156 132.145431) scale(0.105 -0.105)">
       <defs>
        <path id="DejaVuSans-Bold-2212" d="M 678 2375 
L 4684 2375 
L 4684 1638 
L 678 1638 
L 678 2375 
z
" transform="scale(0.015625)"/>
        <path id="DejaVuSans-Bold-31" d="M 750 831 
L 1813 831 
L 1813 3847 
L 722 3622 
L 722 4441 
L 1806 4666 
L 2950 4666 
L 2950 831 
L 4013 831 
L 4013 0 
L 750 0 
L 750 831 
z
" transform="scale(0.015625)"/>
        <path id="DejaVuSans-Bold-30" d="M 2944 2338 
Q 2944 3213 2780 3570 
Q 2616 3928 2228 3928 
Q 1841 3928 1675 3570 
Q 1509 3213 1509 2338 
Q 1509 1453 1675 1090 
Q 1841 728 2228 728 
Q 2613 728 2778 1090 
Q 2944 1453 2944 2338 
z
M 4147 2328 
Q 4147 1169 3647 539 
Q 3147 -91 2228 -91 
Q 1306 -91 806 539 
Q 306 1169 306 2328 
Q 306 3491 806 4120 
Q 1306 4750 2228 4750 
Q 3147 4750 3647 4120 
Q 4147 3491 4147 2328 
z
" transform="scale(0.015625)"/>
        <path id="DejaVuSans-Bold-39" d="M 641 103 
L 641 966 
Q 928 831 1190 764 
Q 1453 697 1709 697 
Q 2247 697 2547 995 
Q 2847 1294 2900 1881 
Q 2688 1725 2447 1647 
Q 2206 1569 1925 1569 
Q 1209 1569 770 1986 
Q 331 2403 331 3084 
Q 331 3838 820 4291 
Q 1309 4744 2131 4744 
Q 3044 4744 3544 4128 
Q 4044 3513 4044 2388 
Q 4044 1231 3459 570 
Q 2875 -91 1856 -91 
Q 1528 -91 1228 -42 
Q 928 6 641 103 
z
M 2125 2350 
Q 2441 2350 2600 2554 
Q 2759 2759 2759 3169 
Q 2759 3575 2600 3781 
Q 2441 3988 2125 3988 
Q 1809 3988 1650 3781 
Q 1491 3575 1491 3169 
Q 1491 2759 1650 2554 
Q 1809 2350 2125 2350 
z
" transform="scale(0.015625)"/>
        <path id="DejaVuSans-Bold-2e" d="M 653 1209 
L 1778 1209 
L 1778 0 
L 653 0 
L 653 1209 
z
" transform="scale(0.015625)"/>
       </defs>
       <use xlink:href="#DejaVuSans-Bold-2212"/>
       <use xlink:href="#DejaVuSans-Bold-31" transform="translate(83.789062 0)"/>
       <use xlink:href="#DejaVuSans-Bold-30" transform="translate(153.369141 0)"/>
       <use xlink:href="#DejaVuSans-Bold-39" transform="translate(222.949219 0)"/>
       <use xlink:href="#DejaVuSans-Bold-2e" transform="translate(292.529297 0)"/>
       <use xlink:href="#DejaVuSans-Bold-30" transform="translate(330.517578 0)"/>
      </g>
     </g>
    </g>
    <g id="ytick_2">
     <g id="line2d_15">
      <g>
       <use xlink:href="#mb576a969ec" x="65.88" y="93.036736" style="stroke: #000000; stroke-width: 1.65"/>
      </g>
     </g>
     <g id="line2d_16">
      <g>
       <use xlink:href="#m8249adbe80" x="216.306" y="93.036736" style="stroke: #000000; stroke-width: 1.65"/>
      </g>
     </g>
     <g id="text_2">
      <!-- −108.8 -->
      <g transform="translate(20.370156 97.025915) scale(0.105 -0.105)">
       <defs>
        <path id="DejaVuSans-Bold-38" d="M 2228 2088 
Q 1891 2088 1709 1903 
Q 1528 1719 1528 1375 
Q 1528 1031 1709 848 
Q 1891 666 2228 666 
Q 2563 666 2741 848 
Q 2919 1031 2919 1375 
Q 2919 1722 2741 1905 
Q 2563 2088 2228 2088 
z
M 1350 2484 
Q 925 2613 709 2878 
Q 494 3144 494 3541 
Q 494 4131 934 4440 
Q 1375 4750 2228 4750 
Q 3075 4750 3515 4442 
Q 3956 4134 3956 3541 
Q 3956 3144 3739 2878 
Q 3522 2613 3097 2484 
Q 3572 2353 3814 2058 
Q 4056 1763 4056 1313 
Q 4056 619 3595 264 
Q 3134 -91 2228 -91 
Q 1319 -91 855 264 
Q 391 619 391 1313 
Q 391 1763 633 2058 
Q 875 2353 1350 2484 
z
M 1631 3419 
Q 1631 3141 1786 2991 
Q 1941 2841 2228 2841 
Q 2509 2841 2662 2991 
Q 2816 3141 2816 3419 
Q 2816 3697 2662 3845 
Q 2509 3994 2228 3994 
Q 1941 3994 1786 3844 
Q 1631 3694 1631 3419 
z
" transform="scale(0.015625)"/>
       </defs>
       <use xlink:href="#DejaVuSans-Bold-2212"/>
       <use xlink:href="#DejaVuSans-Bold-31" transform="translate(83.789062 0)"/>
       <use xlink:href="#DejaVuSans-Bold-30" transform="translate(153.369141 0)"/>
       <use xlink:href="#DejaVuSans-Bold-38" transform="translate(222.949219 0)"/>
       <use xlink:href="#DejaVuSans-Bold-2e" transform="translate(292.529297 0)"/>
       <use xlink:href="#DejaVuSans-Bold-38" transform="translate(330.517578 0)"/>
      </g>
     </g>
    </g>
    <g id="ytick_3">
     <g id="line2d_17">
      <g>
       <use xlink:href="#mb576a969ec" x="65.88" y="57.91722" style="stroke: #000000; stroke-width: 1.65"/>
      </g>
     </g>
     <g id="line2d_18">
      <g>
       <use xlink:href="#m8249adbe80" x="216.306" y="57.91722" style="stroke: #000000; stroke-width: 1.65"/>
      </g>
     </g>
     <g id="text_3">
      <!-- −108.6 -->
      <g transform="translate(20.370156 61.9064) scale(0.105 -0.105)">
       <defs>
        <path id="DejaVuSans-Bold-36" d="M 2316 2303 
Q 2000 2303 1842 2098 
Q 1684 1894 1684 1484 
Q 1684 1075 1842 870 
Q 2000 666 2316 666 
Q 2634 666 2792 870 
Q 2950 1075 2950 1484 
Q 2950 1894 2792 2098 
Q 2634 2303 2316 2303 
z
M 3803 4544 
L 3803 3681 
Q 3506 3822 3243 3889 
Q 2981 3956 2731 3956 
Q 2194 3956 1894 3657 
Q 1594 3359 1544 2772 
Q 1750 2925 1990 3001 
Q 2231 3078 2516 3078 
Q 3231 3078 3670 2659 
Q 4109 2241 4109 1563 
Q 4109 813 3618 361 
Q 3128 -91 2303 -91 
Q 1394 -91 895 523 
Q 397 1138 397 2266 
Q 397 3422 980 4083 
Q 1563 4744 2578 4744 
Q 2900 4744 3203 4694 
Q 3506 4644 3803 4544 
z
" transform="scale(0.015625)"/>
       </defs>
       <use xlink:href="#DejaVuSans-Bold-2212"/>
       <use xlink:href="#DejaVuSans-Bold-31" transform="translate(83.789062 0)"/>
       <use xlink:href="#DejaVuSans-Bold-30" transform="translate(153.369141 0)"/>
       <use xlink:href="#DejaVuSans-Bold-38" transform="translate(222.949219 0)"/>
       <use xlink:href="#DejaVuSans-Bold-2e" transform="translate(292.529297 0)"/>
       <use xlink:href="#DejaVuSans-Bold-36" transform="translate(330.517578 0)"/>
      </g>
     </g>
    </g>
    <g id="ytick_4">
     <g id="line2d_19">
      <g>
       <use xlink:href="#mb576a969ec" x="65.88" y="22.797705" style="stroke: #000000; stroke-width: 1.65"/>
      </g>
     </g>
     <g id="line2d_20">
      <g>
       <use xlink:href="#m8249adbe80" x="216.306" y="22.797705" style="stroke: #000000; stroke-width: 1.65"/>
      </g>
     </g>
     <g id="text_4">
      <!-- −108.4 -->
      <g transform="translate(20.370156 26.786885) scale(0.105 -0.105)">
       <defs>
        <path id="DejaVuSans-Bold-34" d="M 2356 3675 
L 1038 1722 
L 2356 1722 
L 2356 3675 
z
M 2156 4666 
L 3494 4666 
L 3494 1722 
L 4159 1722 
L 4159 850 
L 3494 850 
L 3494 0 
L 2356 0 
L 2356 850 
L 288 850 
L 288 1881 
L 2156 4666 
z
" transform="scale(0.015625)"/>
       </defs>
       <use xlink:href="#DejaVuSans-Bold-2212"/>
       <use xlink:href="#DejaVuSans-Bold-31" transform="translate(83.789062 0)"/>
       <use xlink:href="#DejaVuSans-Bold-30" transform="translate(153.369141 0)"/>
       <use xlink:href="#DejaVuSans-Bold-38" transform="translate(222.949219 0)"/>
       <use xlink:href="#DejaVuSans-Bold-2e" transform="translate(292.529297 0)"/>
       <use xlink:href="#DejaVuSans-Bold-34" transform="translate(330.517578 0)"/>
      </g>
     </g>
    </g>
    <g id="text_5">
     <!-- $E_1(R)$ (Ha) -->
     <g transform="translate(15.770547 109.764686) rotate(-90) scale(0.125 -0.125)">
      <defs>
       <path id="DejaVuSans-Oblique-45" d="M 1081 4666 
L 4031 4666 
L 3928 4134 
L 1606 4134 
L 1338 2753 
L 3566 2753 
L 3463 2222 
L 1234 2222 
L 909 531 
L 3284 531 
L 3181 0 
L 172 0 
L 1081 4666 
z
" transform="scale(0.015625)"/>
       <path id="DejaVuSans-31" d="M 794 531 
L 1825 531 
L 1825 4091 
L 703 3866 
L 703 4441 
L 1819 4666 
L 2450 4666 
L 2450 531 
L 3481 531 
L 3481 0 
L 794 0 
L 794 531 
z
" transform="scale(0.015625)"/>
       <path id="DejaVuSans-28" d="M 1984 4856 
Q 1566 4138 1362 3434 
Q 1159 2731 1159 2009 
Q 1159 1288 1364 580 
Q 1569 -128 1984 -844 
L 1484 -844 
Q 1016 -109 783 600 
Q 550 1309 550 2009 
Q 550 2706 781 3412 
Q 1013 4119 1484 4856 
L 1984 4856 
z
" transform="scale(0.015625)"/>
       <path id="DejaVuSans-Oblique-52" d="M 1613 4147 
L 1294 2491 
L 2106 2491 
Q 2584 2491 2879 2755 
Q 3175 3019 3175 3444 
Q 3175 3784 2976 3965 
Q 2778 4147 2406 4147 
L 1613 4147 
z
M 2772 2241 
Q 2972 2194 3105 2009 
Q 3238 1825 3413 1275 
L 3809 0 
L 3144 0 
L 2778 1197 
Q 2638 1659 2453 1815 
Q 2269 1972 1888 1972 
L 1191 1972 
L 806 0 
L 172 0 
L 1081 4666 
L 2503 4666 
Q 3150 4666 3495 4373 
Q 3841 4081 3841 3531 
Q 3841 3044 3547 2687 
Q 3253 2331 2772 2241 
z
" transform="scale(0.015625)"/>
       <path id="DejaVuSans-29" d="M 513 4856 
L 1013 4856 
Q 1481 4119 1714 3412 
Q 1947 2706 1947 2009 
Q 1947 1309 1714 600 
Q 1481 -109 1013 -844 
L 513 -844 
Q 928 -128 1133 580 
Q 1338 1288 1338 2009 
Q 1338 2731 1133 3434 
Q 928 4138 513 4856 
z
" transform="scale(0.015625)"/>
       <path id="DejaVuSans-Bold-20" transform="scale(0.015625)"/>
       <path id="DejaVuSans-Bold-28" d="M 2413 -844 
L 1484 -844 
Q 1006 -72 778 623 
Q 550 1319 550 2003 
Q 550 2688 779 3389 
Q 1009 4091 1484 4856 
L 2413 4856 
Q 2013 4116 1813 3408 
Q 1613 2700 1613 2009 
Q 1613 1319 1811 609 
Q 2009 -100 2413 -844 
z
" transform="scale(0.015625)"/>
       <path id="DejaVuSans-Bold-48" d="M 588 4666 
L 1791 4666 
L 1791 2888 
L 3566 2888 
L 3566 4666 
L 4769 4666 
L 4769 0 
L 3566 0 
L 3566 1978 
L 1791 1978 
L 1791 0 
L 588 0 
L 588 4666 
z
" transform="scale(0.015625)"/>
       <path id="DejaVuSans-Bold-61" d="M 2106 1575 
Q 1756 1575 1579 1456 
Q 1403 1338 1403 1106 
Q 1403 894 1545 773 
Q 1688 653 1941 653 
Q 2256 653 2472 879 
Q 2688 1106 2688 1447 
L 2688 1575 
L 2106 1575 
z
M 3816 1997 
L 3816 0 
L 2688 0 
L 2688 519 
Q 2463 200 2181 54 
Q 1900 -91 1497 -91 
Q 953 -91 614 226 
Q 275 544 275 1050 
Q 275 1666 698 1953 
Q 1122 2241 2028 2241 
L 2688 2241 
L 2688 2328 
Q 2688 2594 2478 2717 
Q 2269 2841 1825 2841 
Q 1466 2841 1156 2769 
Q 847 2697 581 2553 
L 581 3406 
Q 941 3494 1303 3539 
Q 1666 3584 2028 3584 
Q 2975 3584 3395 3211 
Q 3816 2838 3816 1997 
z
" transform="scale(0.015625)"/>
       <path id="DejaVuSans-Bold-29" d="M 513 -844 
Q 913 -100 1113 609 
Q 1313 1319 1313 2009 
Q 1313 2700 1113 3408 
Q 913 4116 513 4856 
L 1441 4856 
Q 1916 4091 2145 3389 
Q 2375 2688 2375 2003 
Q 2375 1319 2147 623 
Q 1919 -72 1441 -844 
L 513 -844 
z
" transform="scale(0.015625)"/>
      </defs>
      <use xlink:href="#DejaVuSans-Oblique-45" transform="translate(0 0.125)"/>
      <use xlink:href="#DejaVuSans-31" transform="translate(63.183594 -16.28125) scale(0.7)"/>
      <use xlink:href="#DejaVuSans-28" transform="translate(110.454102 0.125)"/>
      <use xlink:href="#DejaVuSans-Oblique-52" transform="translate(149.467773 0.125)"/>
      <use xlink:href="#DejaVuSans-29" transform="translate(218.950195 0.125)"/>
      <use xlink:href="#DejaVuSans-Bold-20" transform="translate(257.963867 0.125)"/>
      <use xlink:href="#DejaVuSans-Bold-28" transform="translate(292.77832 0.125)"/>
      <use xlink:href="#DejaVuSans-Bold-48" transform="translate(338.481445 0.125)"/>
      <use xlink:href="#DejaVuSans-Bold-61" transform="translate(422.172852 0.125)"/>
      <use xlink:href="#DejaVuSans-Bold-29" transform="translate(489.65332 0.125)"/>
     </g>
    </g>
   </g>
   <g id="patch_3">
    <path d="M 65.88 148.695371 
L 65.88 3.834 
" style="fill: none; stroke: #000000; stroke-width: 1.65; stroke-linejoin: miter; stroke-linecap: square"/>
   </g>
   <g id="patch_4">
    <path d="M 216.306 148.695371 
L 216.306 3.834 
" style="fill: none; stroke: #000000; stroke-width: 1.65; stroke-linejoin: miter; stroke-linecap: square"/>
   </g>
   <g id="patch_5">
    <path d="M 65.88 148.695371 
L 216.306 148.695371 
" style="fill: none; stroke: #000000; stroke-width: 1.65; stroke-linejoin: miter; stroke-linecap: square"/>
   </g>
   <g id="patch_6">
    <path d="M 65.88 3.834 
L 216.306 3.834 
" style="fill: none; stroke: #000000; stroke-width: 1.65; stroke-linejoin: miter; stroke-linecap: square"/>
   </g>
   <g id="text_6">
    <!-- N$_2$ $A\,{}^1\Pi_g$ -->
    <g transform="translate(76.40982 41.969047) scale(0.134 -0.134)">
     <defs>
      <path id="DejaVuSans-Bold-4e" d="M 588 4666 
L 1931 4666 
L 3628 1466 
L 3628 4666 
L 4769 4666 
L 4769 0 
L 3425 0 
L 1728 3200 
L 1728 0 
L 588 0 
L 588 4666 
z
" transform="scale(0.015625)"/>
      <path id="DejaVuSans-32" d="M 1228 531 
L 3431 531 
L 3431 0 
L 469 0 
L 469 531 
Q 828 903 1448 1529 
Q 2069 2156 2228 2338 
Q 2531 2678 2651 2914 
Q 2772 3150 2772 3378 
Q 2772 3750 2511 3984 
Q 2250 4219 1831 4219 
Q 1534 4219 1204 4116 
Q 875 4013 500 3803 
L 500 4441 
Q 881 4594 1212 4672 
Q 1544 4750 1819 4750 
Q 2544 4750 2975 4387 
Q 3406 4025 3406 3419 
Q 3406 3131 3298 2873 
Q 3191 2616 2906 2266 
Q 2828 2175 2409 1742 
Q 1991 1309 1228 531 
z
" transform="scale(0.015625)"/>
      <path id="DejaVuSans-Oblique-41" d="M 2356 4666 
L 3072 4666 
L 3938 0 
L 3278 0 
L 3084 1197 
L 984 1197 
L 325 0 
L -341 0 
L 2356 4666 
z
M 2584 4044 
L 1275 1722 
L 2988 1722 
L 2584 4044 
z
" transform="scale(0.015625)"/>
      <path id="DejaVuSans-3a0" d="M 4184 4666 
L 4184 0 
L 3553 0 
L 3553 4134 
L 1259 4134 
L 1259 0 
L 628 0 
L 628 4666 
L 4184 4666 
z
" transform="scale(0.015625)"/>
      <path id="DejaVuSans-Oblique-67" d="M 3816 3500 
L 3219 434 
Q 3047 -456 2561 -893 
Q 2075 -1331 1253 -1331 
Q 950 -1331 690 -1286 
Q 431 -1241 206 -1147 
L 313 -588 
Q 525 -725 762 -790 
Q 1000 -856 1269 -856 
Q 1816 -856 2167 -557 
Q 2519 -259 2631 300 
L 2681 563 
Q 2441 288 2122 144 
Q 1803 0 1434 0 
Q 903 0 598 351 
Q 294 703 294 1319 
Q 294 1803 478 2267 
Q 663 2731 997 3091 
Q 1219 3328 1514 3456 
Q 1809 3584 2131 3584 
Q 2484 3584 2746 3420 
Q 3009 3256 3138 2956 
L 3238 3500 
L 3816 3500 
z
M 2950 2216 
Q 2950 2641 2750 2872 
Q 2550 3103 2181 3103 
Q 1953 3103 1747 3012 
Q 1541 2922 1394 2759 
Q 1156 2491 1023 2127 
Q 891 1763 891 1375 
Q 891 944 1092 712 
Q 1294 481 1672 481 
Q 2219 481 2584 976 
Q 2950 1472 2950 2216 
z
" transform="scale(0.015625)"/>
     </defs>
     <use xlink:href="#DejaVuSans-Bold-4e" transform="translate(0 0.684375)"/>
     <use xlink:href="#DejaVuSans-32" transform="translate(84.648438 -15.721875) scale(0.7)"/>
     <use xlink:href="#DejaVuSans-Bold-20" transform="translate(131.918945 0.684375)"/>
     <use xlink:href="#DejaVuSans-Oblique-41" transform="translate(166.733398 0.684375)"/>
     <use xlink:href="#DejaVuSans-31" transform="translate(252.334309 38.965625) scale(0.7)"/>
     <use xlink:href="#DejaVuSans-3a0" transform="translate(299.604817 0.684375)"/>
     <use xlink:href="#DejaVuSans-Oblique-67" transform="translate(375.757161 -15.721875) scale(0.7)"/>
    </g>
   </g>
   <g id="line2d_21">
    <path d="M 70.13734 15.478932 
L 74.311202 64.195216 
L 78.485064 97.485446 
L 82.658927 118.865215 
L 86.832789 131.430334 
L 91.006651 138.173145 
L 95.180514 141.288597 
L 99.354376 141.705497 
L 103.528239 140.948696 
L 107.702101 139.023896 
L 111.875963 136.428247 
L 116.049826 133.36601 
L 120.223688 130.25559 
L 124.39755 127.160562 
L 128.571413 124.047788 
L 132.745275 121.311919 
L 136.919138 118.803466 
L 141.093 116.536631 
L 145.266862 114.558041 
L 149.440725 112.868188 
L 153.614587 111.339808 
L 157.78845 110.149613 
L 161.962312 109.1091 
L 166.136174 108.271347 
L 170.310037 107.635922 
L 174.483899 107.094199 
L 178.657761 106.682447 
L 182.831624 106.361433 
L 187.005486 106.091578 
L 191.179349 105.898821 
L 195.353211 105.737527 
L 199.527073 105.597991 
L 203.700936 105.496239 
L 207.874798 105.410252 
L 212.04866 105.337402 
" clip-path="url(#p00c50184ed)" style="fill: none; stroke-dasharray: 12.22,7.52; stroke-dashoffset: 0; stroke: #111111; stroke-width: 2.35"/>
   </g>
   <g id="line2d_22">
    <path d="M 70.13734 15.371631 
L 74.311202 66.44415 
L 78.485064 98.887115 
L 82.658927 118.884259 
L 86.832789 130.353884 
L 91.006651 136.179711 
L 95.180514 138.326256 
L 99.354376 143.567535 
L 103.528239 143.253747 
L 107.702101 141.820825 
L 111.875963 139.706693 
L 116.049826 137.187214 
L 120.223688 134.437222 
L 124.39755 131.57655 
L 128.571413 128.688252 
L 132.745275 125.830408 
L 136.919138 123.040401 
L 141.093 120.343562 
L 145.266862 117.755445 
L 149.440725 115.286327 
L 153.614587 112.94163 
L 157.78845 110.723178 
L 161.962312 108.630482 
L 166.136174 103.902279 
L 170.310037 102.029431 
L 174.483899 101.183403 
L 178.657761 98.977612 
L 182.831624 96.945707 
L 187.005486 95.074122 
L 191.179349 93.350729 
L 195.353211 91.764983 
L 199.527073 90.3059 
L 203.700936 88.963407 
L 207.874798 87.728289 
L 212.04866 86.592491 
" clip-path="url(#p00c50184ed)" style="fill: none; stroke: #2b6cb0; stroke-width: 2.45; stroke-linecap: square"/>
   </g>
   <g id="legend_1">
    <g id="line2d_23">
     <path d="M 87.961313 10.700938 
L 96.121313 10.700938 
L 104.281313 10.700938 
" style="fill: none; stroke-dasharray: 12.22,7.52; stroke-dashoffset: 0; stroke: #111111; stroke-width: 2.35"/>
    </g>
    <g id="text_7">
     <!-- Large-CAS reference -->
     <g transform="translate(109.721313 13.080938) scale(0.068 -0.068)">
      <defs>
       <path id="DejaVuSans-4c" d="M 628 4666 
L 1259 4666 
L 1259 531 
L 3531 531 
L 3531 0 
L 628 0 
L 628 4666 
z
" transform="scale(0.015625)"/>
       <path id="DejaVuSans-61" d="M 2194 1759 
Q 1497 1759 1228 1600 
Q 959 1441 959 1056 
Q 959 750 1161 570 
Q 1363 391 1709 391 
Q 2188 391 2477 730 
Q 2766 1069 2766 1631 
L 2766 1759 
L 2194 1759 
z
M 3341 1997 
L 3341 0 
L 2766 0 
L 2766 531 
Q 2569 213 2275 61 
Q 1981 -91 1556 -91 
Q 1019 -91 701 211 
Q 384 513 384 1019 
Q 384 1609 779 1909 
Q 1175 2209 1959 2209 
L 2766 2209 
L 2766 2266 
Q 2766 2663 2505 2880 
Q 2244 3097 1772 3097 
Q 1472 3097 1187 3025 
Q 903 2953 641 2809 
L 641 3341 
Q 956 3463 1253 3523 
Q 1550 3584 1831 3584 
Q 2591 3584 2966 3190 
Q 3341 2797 3341 1997 
z
" transform="scale(0.015625)"/>
       <path id="DejaVuSans-72" d="M 2631 2963 
Q 2534 3019 2420 3045 
Q 2306 3072 2169 3072 
Q 1681 3072 1420 2755 
Q 1159 2438 1159 1844 
L 1159 0 
L 581 0 
L 581 3500 
L 1159 3500 
L 1159 2956 
Q 1341 3275 1631 3429 
Q 1922 3584 2338 3584 
Q 2397 3584 2469 3576 
Q 2541 3569 2628 3553 
L 2631 2963 
z
" transform="scale(0.015625)"/>
       <path id="DejaVuSans-67" d="M 2906 1791 
Q 2906 2416 2648 2759 
Q 2391 3103 1925 3103 
Q 1463 3103 1205 2759 
Q 947 2416 947 1791 
Q 947 1169 1205 825 
Q 1463 481 1925 481 
Q 2391 481 2648 825 
Q 2906 1169 2906 1791 
z
M 3481 434 
Q 3481 -459 3084 -895 
Q 2688 -1331 1869 -1331 
Q 1566 -1331 1297 -1286 
Q 1028 -1241 775 -1147 
L 775 -588 
Q 1028 -725 1275 -790 
Q 1522 -856 1778 -856 
Q 2344 -856 2625 -561 
Q 2906 -266 2906 331 
L 2906 616 
Q 2728 306 2450 153 
Q 2172 0 1784 0 
Q 1141 0 747 490 
Q 353 981 353 1791 
Q 353 2603 747 3093 
Q 1141 3584 1784 3584 
Q 2172 3584 2450 3431 
Q 2728 3278 2906 2969 
L 2906 3500 
L 3481 3500 
L 3481 434 
z
" transform="scale(0.015625)"/>
       <path id="DejaVuSans-65" d="M 3597 1894 
L 3597 1613 
L 953 1613 
Q 991 1019 1311 708 
Q 1631 397 2203 397 
Q 2534 397 2845 478 
Q 3156 559 3463 722 
L 3463 178 
Q 3153 47 2828 -22 
Q 2503 -91 2169 -91 
Q 1331 -91 842 396 
Q 353 884 353 1716 
Q 353 2575 817 3079 
Q 1281 3584 2069 3584 
Q 2775 3584 3186 3129 
Q 3597 2675 3597 1894 
z
M 3022 2063 
Q 3016 2534 2758 2815 
Q 2500 3097 2075 3097 
Q 1594 3097 1305 2825 
Q 1016 2553 972 2059 
L 3022 2063 
z
" transform="scale(0.015625)"/>
       <path id="DejaVuSans-2d" d="M 313 2009 
L 1997 2009 
L 1997 1497 
L 313 1497 
L 313 2009 
z
" transform="scale(0.015625)"/>
       <path id="DejaVuSans-43" d="M 4122 4306 
L 4122 3641 
Q 3803 3938 3442 4084 
Q 3081 4231 2675 4231 
Q 1875 4231 1450 3742 
Q 1025 3253 1025 2328 
Q 1025 1406 1450 917 
Q 1875 428 2675 428 
Q 3081 428 3442 575 
Q 3803 722 4122 1019 
L 4122 359 
Q 3791 134 3420 21 
Q 3050 -91 2638 -91 
Q 1578 -91 968 557 
Q 359 1206 359 2328 
Q 359 3453 968 4101 
Q 1578 4750 2638 4750 
Q 3056 4750 3426 4639 
Q 3797 4528 4122 4306 
z
" transform="scale(0.015625)"/>
       <path id="DejaVuSans-41" d="M 2188 4044 
L 1331 1722 
L 3047 1722 
L 2188 4044 
z
M 1831 4666 
L 2547 4666 
L 4325 0 
L 3669 0 
L 3244 1197 
L 1141 1197 
L 716 0 
L 50 0 
L 1831 4666 
z
" transform="scale(0.015625)"/>
       <path id="DejaVuSans-53" d="M 3425 4513 
L 3425 3897 
Q 3066 4069 2747 4153 
Q 2428 4238 2131 4238 
Q 1616 4238 1336 4038 
Q 1056 3838 1056 3469 
Q 1056 3159 1242 3001 
Q 1428 2844 1947 2747 
L 2328 2669 
Q 3034 2534 3370 2195 
Q 3706 1856 3706 1288 
Q 3706 609 3251 259 
Q 2797 -91 1919 -91 
Q 1588 -91 1214 -16 
Q 841 59 441 206 
L 441 856 
Q 825 641 1194 531 
Q 1563 422 1919 422 
Q 2459 422 2753 634 
Q 3047 847 3047 1241 
Q 3047 1584 2836 1778 
Q 2625 1972 2144 2069 
L 1759 2144 
Q 1053 2284 737 2584 
Q 422 2884 422 3419 
Q 422 4038 858 4394 
Q 1294 4750 2059 4750 
Q 2388 4750 2728 4690 
Q 3069 4631 3425 4513 
z
" transform="scale(0.015625)"/>
       <path id="DejaVuSans-20" transform="scale(0.015625)"/>
       <path id="DejaVuSans-66" d="M 2375 4863 
L 2375 4384 
L 1825 4384 
Q 1516 4384 1395 4259 
Q 1275 4134 1275 3809 
L 1275 3500 
L 2222 3500 
L 2222 3053 
L 1275 3053 
L 1275 0 
L 697 0 
L 697 3053 
L 147 3053 
L 147 3500 
L 697 3500 
L 697 3744 
Q 697 4328 969 4595 
Q 1241 4863 1831 4863 
L 2375 4863 
z
" transform="scale(0.015625)"/>
       <path id="DejaVuSans-6e" d="M 3513 2113 
L 3513 0 
L 2938 0 
L 2938 2094 
Q 2938 2591 2744 2837 
Q 2550 3084 2163 3084 
Q 1697 3084 1428 2787 
Q 1159 2491 1159 1978 
L 1159 0 
L 581 0 
L 581 3500 
L 1159 3500 
L 1159 2956 
Q 1366 3272 1645 3428 
Q 1925 3584 2291 3584 
Q 2894 3584 3203 3211 
Q 3513 2838 3513 2113 
z
" transform="scale(0.015625)"/>
       <path id="DejaVuSans-63" d="M 3122 3366 
L 3122 2828 
Q 2878 2963 2633 3030 
Q 2388 3097 2138 3097 
Q 1578 3097 1268 2742 
Q 959 2388 959 1747 
Q 959 1106 1268 751 
Q 1578 397 2138 397 
Q 2388 397 2633 464 
Q 2878 531 3122 666 
L 3122 134 
Q 2881 22 2623 -34 
Q 2366 -91 2075 -91 
Q 1284 -91 818 406 
Q 353 903 353 1747 
Q 353 2603 823 3093 
Q 1294 3584 2113 3584 
Q 2378 3584 2631 3529 
Q 2884 3475 3122 3366 
z
" transform="scale(0.015625)"/>
      </defs>
      <use xlink:href="#DejaVuSans-4c"/>
      <use xlink:href="#DejaVuSans-61" transform="translate(55.712891 0)"/>
      <use xlink:href="#DejaVuSans-72" transform="translate(116.992188 0)"/>
      <use xlink:href="#DejaVuSans-67" transform="translate(156.355469 0)"/>
      <use xlink:href="#DejaVuSans-65" transform="translate(219.832031 0)"/>
      <use xlink:href="#DejaVuSans-2d" transform="translate(281.355469 0)"/>
      <use xlink:href="#DejaVuSans-43" transform="translate(317.439453 0)"/>
      <use xlink:href="#DejaVuSans-41" transform="translate(387.263672 0)"/>
      <use xlink:href="#DejaVuSans-53" transform="translate(455.671875 0)"/>
      <use xlink:href="#DejaVuSans-20" transform="translate(519.148438 0)"/>
      <use xlink:href="#DejaVuSans-72" transform="translate(550.935547 0)"/>
      <use xlink:href="#DejaVuSans-65" transform="translate(589.798828 0)"/>
      <use xlink:href="#DejaVuSans-66" transform="translate(651.322266 0)"/>
      <use xlink:href="#DejaVuSans-65" transform="translate(686.527344 0)"/>
      <use xlink:href="#DejaVuSans-72" transform="translate(748.050781 0)"/>
      <use xlink:href="#DejaVuSans-65" transform="translate(786.914062 0)"/>
      <use xlink:href="#DejaVuSans-6e" transform="translate(848.4375 0)"/>
      <use xlink:href="#DejaVuSans-63" transform="translate(911.816406 0)"/>
      <use xlink:href="#DejaVuSans-65" transform="translate(966.796875 0)"/>
     </g>
    </g>
    <g id="line2d_24">
     <path d="M 87.961313 19.322063 
L 96.121313 19.322063 
L 104.281313 19.322063 
" style="fill: none; stroke: #2b6cb0; stroke-width: 2.45; stroke-linecap: square"/>
    </g>
    <g id="text_8">
     <!-- Neural TDA/no-PT2 (871 meV) -->
     <g transform="translate(109.721313 21.702063) scale(0.068 -0.068)">
      <defs>
       <path id="DejaVuSans-4e" d="M 628 4666 
L 1478 4666 
L 3547 763 
L 3547 4666 
L 4159 4666 
L 4159 0 
L 3309 0 
L 1241 3903 
L 1241 0 
L 628 0 
L 628 4666 
z
" transform="scale(0.015625)"/>
       <path id="DejaVuSans-75" d="M 544 1381 
L 544 3500 
L 1119 3500 
L 1119 1403 
Q 1119 906 1312 657 
Q 1506 409 1894 409 
Q 2359 409 2629 706 
Q 2900 1003 2900 1516 
L 2900 3500 
L 3475 3500 
L 3475 0 
L 2900 0 
L 2900 538 
Q 2691 219 2414 64 
Q 2138 -91 1772 -91 
Q 1169 -91 856 284 
Q 544 659 544 1381 
z
M 1991 3584 
L 1991 3584 
z
" transform="scale(0.015625)"/>
       <path id="DejaVuSans-6c" d="M 603 4863 
L 1178 4863 
L 1178 0 
L 603 0 
L 603 4863 
z
" transform="scale(0.015625)"/>
       <path id="DejaVuSans-54" d="M -19 4666 
L 3928 4666 
L 3928 4134 
L 2272 4134 
L 2272 0 
L 1638 0 
L 1638 4134 
L -19 4134 
L -19 4666 
z
" transform="scale(0.015625)"/>
       <path id="DejaVuSans-44" d="M 1259 4147 
L 1259 519 
L 2022 519 
Q 2988 519 3436 956 
Q 3884 1394 3884 2338 
Q 3884 3275 3436 3711 
Q 2988 4147 2022 4147 
L 1259 4147 
z
M 628 4666 
L 1925 4666 
Q 3281 4666 3915 4102 
Q 4550 3538 4550 2338 
Q 4550 1131 3912 565 
Q 3275 0 1925 0 
L 628 0 
L 628 4666 
z
" transform="scale(0.015625)"/>
       <path id="DejaVuSans-2f" d="M 1625 4666 
L 2156 4666 
L 531 -594 
L 0 -594 
L 1625 4666 
z
" transform="scale(0.015625)"/>
       <path id="DejaVuSans-6f" d="M 1959 3097 
Q 1497 3097 1228 2736 
Q 959 2375 959 1747 
Q 959 1119 1226 758 
Q 1494 397 1959 397 
Q 2419 397 2687 759 
Q 2956 1122 2956 1747 
Q 2956 2369 2687 2733 
Q 2419 3097 1959 3097 
z
M 1959 3584 
Q 2709 3584 3137 3096 
Q 3566 2609 3566 1747 
Q 3566 888 3137 398 
Q 2709 -91 1959 -91 
Q 1206 -91 779 398 
Q 353 888 353 1747 
Q 353 2609 779 3096 
Q 1206 3584 1959 3584 
z
" transform="scale(0.015625)"/>
       <path id="DejaVuSans-50" d="M 1259 4147 
L 1259 2394 
L 2053 2394 
Q 2494 2394 2734 2622 
Q 2975 2850 2975 3272 
Q 2975 3691 2734 3919 
Q 2494 4147 2053 4147 
L 1259 4147 
z
M 628 4666 
L 2053 4666 
Q 2838 4666 3239 4311 
Q 3641 3956 3641 3272 
Q 3641 2581 3239 2228 
Q 2838 1875 2053 1875 
L 1259 1875 
L 1259 0 
L 628 0 
L 628 4666 
z
" transform="scale(0.015625)"/>
       <path id="DejaVuSans-38" d="M 2034 2216 
Q 1584 2216 1326 1975 
Q 1069 1734 1069 1313 
Q 1069 891 1326 650 
Q 1584 409 2034 409 
Q 2484 409 2743 651 
Q 3003 894 3003 1313 
Q 3003 1734 2745 1975 
Q 2488 2216 2034 2216 
z
M 1403 2484 
Q 997 2584 770 2862 
Q 544 3141 544 3541 
Q 544 4100 942 4425 
Q 1341 4750 2034 4750 
Q 2731 4750 3128 4425 
Q 3525 4100 3525 3541 
Q 3525 3141 3298 2862 
Q 3072 2584 2669 2484 
Q 3125 2378 3379 2068 
Q 3634 1759 3634 1313 
Q 3634 634 3220 271 
Q 2806 -91 2034 -91 
Q 1263 -91 848 271 
Q 434 634 434 1313 
Q 434 1759 690 2068 
Q 947 2378 1403 2484 
z
M 1172 3481 
Q 1172 3119 1398 2916 
Q 1625 2713 2034 2713 
Q 2441 2713 2670 2916 
Q 2900 3119 2900 3481 
Q 2900 3844 2670 4047 
Q 2441 4250 2034 4250 
Q 1625 4250 1398 4047 
Q 1172 3844 1172 3481 
z
" transform="scale(0.015625)"/>
       <path id="DejaVuSans-37" d="M 525 4666 
L 3525 4666 
L 3525 4397 
L 1831 0 
L 1172 0 
L 2766 4134 
L 525 4134 
L 525 4666 
z
" transform="scale(0.015625)"/>
       <path id="DejaVuSans-6d" d="M 3328 2828 
Q 3544 3216 3844 3400 
Q 4144 3584 4550 3584 
Q 5097 3584 5394 3201 
Q 5691 2819 5691 2113 
L 5691 0 
L 5113 0 
L 5113 2094 
Q 5113 2597 4934 2840 
Q 4756 3084 4391 3084 
Q 3944 3084 3684 2787 
Q 3425 2491 3425 1978 
L 3425 0 
L 2847 0 
L 2847 2094 
Q 2847 2600 2669 2842 
Q 2491 3084 2119 3084 
Q 1678 3084 1418 2786 
Q 1159 2488 1159 1978 
L 1159 0 
L 581 0 
L 581 3500 
L 1159 3500 
L 1159 2956 
Q 1356 3278 1631 3431 
Q 1906 3584 2284 3584 
Q 2666 3584 2933 3390 
Q 3200 3197 3328 2828 
z
" transform="scale(0.015625)"/>
       <path id="DejaVuSans-56" d="M 1831 0 
L 50 4666 
L 709 4666 
L 2188 738 
L 3669 4666 
L 4325 4666 
L 2547 0 
L 1831 0 
z
" transform="scale(0.015625)"/>
      </defs>
      <use xlink:href="#DejaVuSans-4e"/>
      <use xlink:href="#DejaVuSans-65" transform="translate(74.804688 0)"/>
      <use xlink:href="#DejaVuSans-75" transform="translate(136.328125 0)"/>
      <use xlink:href="#DejaVuSans-72" transform="translate(199.707031 0)"/>
      <use xlink:href="#DejaVuSans-61" transform="translate(240.820312 0)"/>
      <use xlink:href="#DejaVuSans-6c" transform="translate(302.099609 0)"/>
      <use xlink:href="#DejaVuSans-20" transform="translate(329.882812 0)"/>
      <use xlink:href="#DejaVuSans-54" transform="translate(361.669922 0)"/>
      <use xlink:href="#DejaVuSans-44" transform="translate(422.753906 0)"/>
      <use xlink:href="#DejaVuSans-41" transform="translate(498.005859 0)"/>
      <use xlink:href="#DejaVuSans-2f" transform="translate(566.414062 0)"/>
      <use xlink:href="#DejaVuSans-6e" transform="translate(600.105469 0)"/>
      <use xlink:href="#DejaVuSans-6f" transform="translate(663.484375 0)"/>
      <use xlink:href="#DejaVuSans-2d" transform="translate(726.541016 0)"/>
      <use xlink:href="#DejaVuSans-50" transform="translate(762.625 0)"/>
      <use xlink:href="#DejaVuSans-54" transform="translate(822.927734 0)"/>
      <use xlink:href="#DejaVuSans-32" transform="translate(884.011719 0)"/>
      <use xlink:href="#DejaVuSans-20" transform="translate(947.634766 0)"/>
      <use xlink:href="#DejaVuSans-28" transform="translate(979.421875 0)"/>
      <use xlink:href="#DejaVuSans-38" transform="translate(1018.435547 0)"/>
      <use xlink:href="#DejaVuSans-37" transform="translate(1082.058594 0)"/>
      <use xlink:href="#DejaVuSans-31" transform="translate(1145.681641 0)"/>
      <use xlink:href="#DejaVuSans-20" transform="translate(1209.304688 0)"/>
      <use xlink:href="#DejaVuSans-6d" transform="translate(1241.091797 0)"/>
      <use xlink:href="#DejaVuSans-65" transform="translate(1338.503906 0)"/>
      <use xlink:href="#DejaVuSans-56" transform="translate(1400.027344 0)"/>
      <use xlink:href="#DejaVuSans-29" transform="translate(1468.435547 0)"/>
     </g>
    </g>
    <g id="PathCollection_1">
     <defs>
      <path id="m2270a6d0e4" d="M -0 4.301163 
L 4.301163 0 
L 0 -4.301163 
L -4.301163 -0 
z
" style="stroke: #ffffff; stroke-width: 0.9"/>
     </defs>
     <g>
      <use xlink:href="#m2270a6d0e4" x="96.121313" y="28.538188" style="fill: #b2182b; stroke: #ffffff; stroke-width: 0.9"/>
     </g>
    </g>
    <g id="text_9">
     <!-- Training points -->
     <g transform="translate(109.721313 30.323188) scale(0.068 -0.068)">
      <defs>
       <path id="DejaVuSans-69" d="M 603 3500 
L 1178 3500 
L 1178 0 
L 603 0 
L 603 3500 
z
M 603 4863 
L 1178 4863 
L 1178 4134 
L 603 4134 
L 603 4863 
z
" transform="scale(0.015625)"/>
       <path id="DejaVuSans-70" d="M 1159 525 
L 1159 -1331 
L 581 -1331 
L 581 3500 
L 1159 3500 
L 1159 2969 
Q 1341 3281 1617 3432 
Q 1894 3584 2278 3584 
Q 2916 3584 3314 3078 
Q 3713 2572 3713 1747 
Q 3713 922 3314 415 
Q 2916 -91 2278 -91 
Q 1894 -91 1617 61 
Q 1341 213 1159 525 
z
M 3116 1747 
Q 3116 2381 2855 2742 
Q 2594 3103 2138 3103 
Q 1681 3103 1420 2742 
Q 1159 2381 1159 1747 
Q 1159 1113 1420 752 
Q 1681 391 2138 391 
Q 2594 391 2855 752 
Q 3116 1113 3116 1747 
z
" transform="scale(0.015625)"/>
       <path id="DejaVuSans-74" d="M 1172 4494 
L 1172 3500 
L 2356 3500 
L 2356 3053 
L 1172 3053 
L 1172 1153 
Q 1172 725 1289 603 
Q 1406 481 1766 481 
L 2356 481 
L 2356 0 
L 1766 0 
Q 1100 0 847 248 
Q 594 497 594 1153 
L 594 3053 
L 172 3053 
L 172 3500 
L 594 3500 
L 594 4494 
L 1172 4494 
z
" transform="scale(0.015625)"/>
       <path id="DejaVuSans-73" d="M 2834 3397 
L 2834 2853 
Q 2591 2978 2328 3040 
Q 2066 3103 1784 3103 
Q 1356 3103 1142 2972 
Q 928 2841 928 2578 
Q 928 2378 1081 2264 
Q 1234 2150 1697 2047 
L 1894 2003 
Q 2506 1872 2764 1633 
Q 3022 1394 3022 966 
Q 3022 478 2636 193 
Q 2250 -91 1575 -91 
Q 1294 -91 989 -36 
Q 684 19 347 128 
L 347 722 
Q 666 556 975 473 
Q 1284 391 1588 391 
Q 1994 391 2212 530 
Q 2431 669 2431 922 
Q 2431 1156 2273 1281 
Q 2116 1406 1581 1522 
L 1381 1569 
Q 847 1681 609 1914 
Q 372 2147 372 2553 
Q 372 3047 722 3315 
Q 1072 3584 1716 3584 
Q 2034 3584 2315 3537 
Q 2597 3491 2834 3397 
z
" transform="scale(0.015625)"/>
      </defs>
      <use xlink:href="#DejaVuSans-54"/>
      <use xlink:href="#DejaVuSans-72" transform="translate(46.333984 0)"/>
      <use xlink:href="#DejaVuSans-61" transform="translate(87.447266 0)"/>
      <use xlink:href="#DejaVuSans-69" transform="translate(148.726562 0)"/>
      <use xlink:href="#DejaVuSans-6e" transform="translate(176.509766 0)"/>
      <use xlink:href="#DejaVuSans-69" transform="translate(239.888672 0)"/>
      <use xlink:href="#DejaVuSans-6e" transform="translate(267.671875 0)"/>
      <use xlink:href="#DejaVuSans-67" transform="translate(331.050781 0)"/>
      <use xlink:href="#DejaVuSans-20" transform="translate(394.527344 0)"/>
      <use xlink:href="#DejaVuSans-70" transform="translate(426.314453 0)"/>
      <use xlink:href="#DejaVuSans-6f" transform="translate(489.791016 0)"/>
      <use xlink:href="#DejaVuSans-69" transform="translate(550.972656 0)"/>
      <use xlink:href="#DejaVuSans-6e" transform="translate(578.755859 0)"/>
      <use xlink:href="#DejaVuSans-74" transform="translate(642.134766 0)"/>
      <use xlink:href="#DejaVuSans-73" transform="translate(681.34375 0)"/>
     </g>
    </g>
   </g>
   <g id="PathCollection_2">
    <g clip-path="url(#p00c50184ed)">
     <use xlink:href="#m2270a6d0e4" x="70.13734" y="15.478932" style="fill: #b2182b; stroke: #ffffff; stroke-width: 0.9"/>
     <use xlink:href="#m2270a6d0e4" x="89.488883" y="135.721214" style="fill: #b2182b; stroke: #ffffff; stroke-width: 0.9"/>
     <use xlink:href="#m2270a6d0e4" x="121.741456" y="129.130125" style="fill: #b2182b; stroke: #ffffff; stroke-width: 0.9"/>
     <use xlink:href="#m2270a6d0e4" x="147.543515" y="113.636303" style="fill: #b2182b; stroke: #ffffff; stroke-width: 0.9"/>
     <use xlink:href="#m2270a6d0e4" x="160.444544" y="109.487469" style="fill: #b2182b; stroke: #ffffff; stroke-width: 0.9"/>
     <use xlink:href="#m2270a6d0e4" x="179.796087" y="106.594898" style="fill: #b2182b; stroke: #ffffff; stroke-width: 0.9"/>
     <use xlink:href="#m2270a6d0e4" x="212.04866" y="105.337402" style="fill: #b2182b; stroke: #ffffff; stroke-width: 0.9"/>
    </g>
   </g>
  </g>
  <g id="axes_2">
   <g id="patch_7">
    <path d="M 65.88 215.982 
L 216.306 215.982 
L 216.306 156.85491 
L 65.88 156.85491 
z
" style="fill: #ffffff"/>
   </g>
   <g id="patch_8">
    <path d="M 65.88 186.79247 
L 216.306 186.79247 
L 216.306 186.044439 
L 65.88 186.044439 
z
" clip-path="url(#p7263346528)" style="fill: #dbdbdb; opacity: 0.78; stroke: #dbdbdb; stroke-linejoin: miter"/>
   </g>
   <g id="matplotlib.axis_3">
    <g id="xtick_7">
     <g id="line2d_25">
      <g>
       <use xlink:href="#m2022d868e4" x="70.13734" y="215.982" style="stroke: #000000; stroke-width: 1.65"/>
      </g>
     </g>
     <g id="line2d_26">
      <g>
       <use xlink:href="#med37e32d52" x="70.13734" y="156.85491" style="stroke: #000000; stroke-width: 1.65"/>
      </g>
     </g>
     <g id="text_10">
      <!-- 0.8 -->
      <g transform="translate(60.837457 227.460359) scale(0.105 -0.105)">
       <use xlink:href="#DejaVuSans-Bold-30"/>
       <use xlink:href="#DejaVuSans-Bold-2e" transform="translate(69.580078 0)"/>
       <use xlink:href="#DejaVuSans-Bold-38" transform="translate(107.568359 0)"/>
      </g>
     </g>
    </g>
    <g id="xtick_8">
     <g id="line2d_27">
      <g>
       <use xlink:href="#m2022d868e4" x="95.939398" y="215.982" style="stroke: #000000; stroke-width: 1.65"/>
      </g>
     </g>
     <g id="line2d_28">
      <g>
       <use xlink:href="#med37e32d52" x="95.939398" y="156.85491" style="stroke: #000000; stroke-width: 1.65"/>
      </g>
     </g>
     <g id="text_11">
      <!-- 1.2 -->
      <g transform="translate(86.639515 227.460359) scale(0.105 -0.105)">
       <defs>
        <path id="DejaVuSans-Bold-32" d="M 1844 884 
L 3897 884 
L 3897 0 
L 506 0 
L 506 884 
L 2209 2388 
Q 2438 2594 2547 2791 
Q 2656 2988 2656 3200 
Q 2656 3528 2436 3728 
Q 2216 3928 1850 3928 
Q 1569 3928 1234 3808 
Q 900 3688 519 3450 
L 519 4475 
Q 925 4609 1322 4679 
Q 1719 4750 2100 4750 
Q 2938 4750 3402 4381 
Q 3866 4013 3866 3353 
Q 3866 2972 3669 2642 
Q 3472 2313 2841 1759 
L 1844 884 
z
" transform="scale(0.015625)"/>
       </defs>
       <use xlink:href="#DejaVuSans-Bold-31"/>
       <use xlink:href="#DejaVuSans-Bold-2e" transform="translate(69.580078 0)"/>
       <use xlink:href="#DejaVuSans-Bold-32" transform="translate(107.568359 0)"/>
      </g>
     </g>
    </g>
    <g id="xtick_9">
     <g id="line2d_29">
      <g>
       <use xlink:href="#m2022d868e4" x="121.741456" y="215.982" style="stroke: #000000; stroke-width: 1.65"/>
      </g>
     </g>
     <g id="line2d_30">
      <g>
       <use xlink:href="#med37e32d52" x="121.741456" y="156.85491" style="stroke: #000000; stroke-width: 1.65"/>
      </g>
     </g>
     <g id="text_12">
      <!-- 1.6 -->
      <g transform="translate(112.441573 227.460359) scale(0.105 -0.105)">
       <use xlink:href="#DejaVuSans-Bold-31"/>
       <use xlink:href="#DejaVuSans-Bold-2e" transform="translate(69.580078 0)"/>
       <use xlink:href="#DejaVuSans-Bold-36" transform="translate(107.568359 0)"/>
      </g>
     </g>
    </g>
    <g id="xtick_10">
     <g id="line2d_31">
      <g>
       <use xlink:href="#m2022d868e4" x="147.543515" y="215.982" style="stroke: #000000; stroke-width: 1.65"/>
      </g>
     </g>
     <g id="line2d_32">
      <g>
       <use xlink:href="#med37e32d52" x="147.543515" y="156.85491" style="stroke: #000000; stroke-width: 1.65"/>
      </g>
     </g>
     <g id="text_13">
      <!-- 2.0 -->
      <g transform="translate(138.243632 227.460359) scale(0.105 -0.105)">
       <use xlink:href="#DejaVuSans-Bold-32"/>
       <use xlink:href="#DejaVuSans-Bold-2e" transform="translate(69.580078 0)"/>
       <use xlink:href="#DejaVuSans-Bold-30" transform="translate(107.568359 0)"/>
      </g>
     </g>
    </g>
    <g id="xtick_11">
     <g id="line2d_33">
      <g>
       <use xlink:href="#m2022d868e4" x="173.345573" y="215.982" style="stroke: #000000; stroke-width: 1.65"/>
      </g>
     </g>
     <g id="line2d_34">
      <g>
       <use xlink:href="#med37e32d52" x="173.345573" y="156.85491" style="stroke: #000000; stroke-width: 1.65"/>
      </g>
     </g>
     <g id="text_14">
      <!-- 2.4 -->
      <g transform="translate(164.04569 227.460359) scale(0.105 -0.105)">
       <use xlink:href="#DejaVuSans-Bold-32"/>
       <use xlink:href="#DejaVuSans-Bold-2e" transform="translate(69.580078 0)"/>
       <use xlink:href="#DejaVuSans-Bold-34" transform="translate(107.568359 0)"/>
      </g>
     </g>
    </g>
    <g id="xtick_12">
     <g id="line2d_35">
      <g>
       <use xlink:href="#m2022d868e4" x="199.147631" y="215.982" style="stroke: #000000; stroke-width: 1.65"/>
      </g>
     </g>
     <g id="line2d_36">
      <g>
       <use xlink:href="#med37e32d52" x="199.147631" y="156.85491" style="stroke: #000000; stroke-width: 1.65"/>
      </g>
     </g>
     <g id="text_15">
      <!-- 2.8 -->
      <g transform="translate(189.847748 227.460359) scale(0.105 -0.105)">
       <use xlink:href="#DejaVuSans-Bold-32"/>
       <use xlink:href="#DejaVuSans-Bold-2e" transform="translate(69.580078 0)"/>
       <use xlink:href="#DejaVuSans-Bold-38" transform="translate(107.568359 0)"/>
      </g>
     </g>
    </g>
    <g id="text_16">
     <!-- $R$ ($\AA$) -->
     <g transform="translate(123.868 245.850437) scale(0.13 -0.13)">
      <defs>
       <path id="DejaVuSans-Oblique-c5" d="M 3188 5081 
Q 3188 5278 3048 5417 
Q 2909 5556 2713 5556 
Q 2513 5556 2377 5420 
Q 2241 5284 2241 5081 
Q 2241 4884 2377 4746 
Q 2513 4609 2713 4609 
Q 2909 4609 3048 4746 
Q 3188 4884 3188 5081 
z
M 2203 4397 
Q 2034 4513 1945 4689 
Q 1856 4866 1856 5081 
Q 1856 5438 2106 5689 
Q 2356 5941 2713 5941 
Q 3069 5941 3320 5689 
Q 3572 5438 3572 5081 
Q 3572 4834 3458 4643 
Q 3344 4453 3128 4341 
L 3938 0 
L 3278 0 
L 3084 1197 
L 984 1197 
L 325 0 
L -341 0 
L 2203 4397 
z
M 2584 4044 
L 1275 1722 
L 2988 1722 
L 2584 4044 
z
" transform="scale(0.015625)"/>
      </defs>
      <use xlink:href="#DejaVuSans-Oblique-52" transform="translate(0 0.171875)"/>
      <use xlink:href="#DejaVuSans-Bold-20" transform="translate(69.482422 0.171875)"/>
      <use xlink:href="#DejaVuSans-Bold-28" transform="translate(104.296875 0.171875)"/>
      <use xlink:href="#DejaVuSans-Oblique-c5" transform="translate(150 0.171875)"/>
      <use xlink:href="#DejaVuSans-Bold-29" transform="translate(218.408203 0.171875)"/>
     </g>
    </g>
   </g>
   <g id="matplotlib.axis_4">
    <g id="ytick_5">
     <g id="line2d_37">
      <g>
       <use xlink:href="#mb576a969ec" x="65.88" y="207.980949" style="stroke: #000000; stroke-width: 1.65"/>
      </g>
     </g>
     <g id="line2d_38">
      <g>
       <use xlink:href="#m8249adbe80" x="216.306" y="207.980949" style="stroke: #000000; stroke-width: 1.65"/>
      </g>
     </g>
     <g id="text_17">
      <!-- −2500 -->
      <g transform="translate(24.358516 211.970129) scale(0.105 -0.105)">
       <defs>
        <path id="DejaVuSans-Bold-35" d="M 678 4666 
L 3669 4666 
L 3669 3781 
L 1638 3781 
L 1638 3059 
Q 1775 3097 1914 3117 
Q 2053 3138 2203 3138 
Q 3056 3138 3531 2711 
Q 4006 2284 4006 1522 
Q 4006 766 3489 337 
Q 2972 -91 2053 -91 
Q 1656 -91 1267 -14 
Q 878 63 494 219 
L 494 1166 
Q 875 947 1217 837 
Q 1559 728 1863 728 
Q 2300 728 2551 942 
Q 2803 1156 2803 1522 
Q 2803 1891 2551 2103 
Q 2300 2316 1863 2316 
Q 1603 2316 1309 2248 
Q 1016 2181 678 2041 
L 678 4666 
z
" transform="scale(0.015625)"/>
       </defs>
       <use xlink:href="#DejaVuSans-Bold-2212"/>
       <use xlink:href="#DejaVuSans-Bold-32" transform="translate(83.789062 0)"/>
       <use xlink:href="#DejaVuSans-Bold-35" transform="translate(153.369141 0)"/>
       <use xlink:href="#DejaVuSans-Bold-30" transform="translate(222.949219 0)"/>
       <use xlink:href="#DejaVuSans-Bold-30" transform="translate(292.529297 0)"/>
      </g>
     </g>
    </g>
    <g id="ytick_6">
     <g id="line2d_39">
      <g>
       <use xlink:href="#mb576a969ec" x="65.88" y="186.418455" style="stroke: #000000; stroke-width: 1.65"/>
      </g>
     </g>
     <g id="line2d_40">
      <g>
       <use xlink:href="#m8249adbe80" x="216.306" y="186.418455" style="stroke: #000000; stroke-width: 1.65"/>
      </g>
     </g>
     <g id="text_18">
      <!-- 0 -->
      <g transform="translate(55.074297 190.407635) scale(0.105 -0.105)">
       <use xlink:href="#DejaVuSans-Bold-30"/>
      </g>
     </g>
    </g>
    <g id="ytick_7">
     <g id="line2d_41">
      <g>
       <use xlink:href="#mb576a969ec" x="65.88" y="164.855961" style="stroke: #000000; stroke-width: 1.65"/>
      </g>
     </g>
     <g id="line2d_42">
      <g>
       <use xlink:href="#m8249adbe80" x="216.306" y="164.855961" style="stroke: #000000; stroke-width: 1.65"/>
      </g>
     </g>
     <g id="text_19">
      <!-- 2500 -->
      <g transform="translate(33.157187 168.845141) scale(0.105 -0.105)">
       <use xlink:href="#DejaVuSans-Bold-32"/>
       <use xlink:href="#DejaVuSans-Bold-35" transform="translate(69.580078 0)"/>
       <use xlink:href="#DejaVuSans-Bold-30" transform="translate(139.160156 0)"/>
       <use xlink:href="#DejaVuSans-Bold-30" transform="translate(208.740234 0)"/>
      </g>
     </g>
    </g>
    <g id="text_20">
     <!-- $\Delta E_1$ (meV) -->
     <g transform="translate(15.874531 219.718455) rotate(-90) scale(0.12 -0.12)">
      <defs>
       <path id="DejaVuSans-394" d="M 2188 4044 
L 906 525 
L 3472 525 
L 2188 4044 
z
M 50 0 
L 1831 4666 
L 2547 4666 
L 4325 0 
L 50 0 
z
" transform="scale(0.015625)"/>
       <path id="DejaVuSans-Bold-6d" d="M 3781 2919 
Q 3994 3244 4286 3414 
Q 4578 3584 4928 3584 
Q 5531 3584 5847 3212 
Q 6163 2841 6163 2131 
L 6163 0 
L 5038 0 
L 5038 1825 
Q 5041 1866 5042 1909 
Q 5044 1953 5044 2034 
Q 5044 2406 4934 2573 
Q 4825 2741 4581 2741 
Q 4263 2741 4089 2478 
Q 3916 2216 3909 1719 
L 3909 0 
L 2784 0 
L 2784 1825 
Q 2784 2406 2684 2573 
Q 2584 2741 2328 2741 
Q 2006 2741 1831 2477 
Q 1656 2213 1656 1722 
L 1656 0 
L 531 0 
L 531 3500 
L 1656 3500 
L 1656 2988 
Q 1863 3284 2130 3434 
Q 2397 3584 2719 3584 
Q 3081 3584 3359 3409 
Q 3638 3234 3781 2919 
z
" transform="scale(0.015625)"/>
       <path id="DejaVuSans-Bold-65" d="M 4031 1759 
L 4031 1441 
L 1416 1441 
Q 1456 1047 1700 850 
Q 1944 653 2381 653 
Q 2734 653 3104 758 
Q 3475 863 3866 1075 
L 3866 213 
Q 3469 63 3072 -14 
Q 2675 -91 2278 -91 
Q 1328 -91 801 392 
Q 275 875 275 1747 
Q 275 2603 792 3093 
Q 1309 3584 2216 3584 
Q 3041 3584 3536 3087 
Q 4031 2591 4031 1759 
z
M 2881 2131 
Q 2881 2450 2695 2645 
Q 2509 2841 2209 2841 
Q 1884 2841 1681 2658 
Q 1478 2475 1428 2131 
L 2881 2131 
z
" transform="scale(0.015625)"/>
       <path id="DejaVuSans-Bold-56" d="M 31 4666 
L 1241 4666 
L 2478 1222 
L 3713 4666 
L 4922 4666 
L 3194 0 
L 1759 0 
L 31 4666 
z
" transform="scale(0.015625)"/>
      </defs>
      <use xlink:href="#DejaVuSans-394" transform="translate(0 0.125)"/>
      <use xlink:href="#DejaVuSans-Oblique-45" transform="translate(68.408203 0.125)"/>
      <use xlink:href="#DejaVuSans-31" transform="translate(131.591797 -16.28125) scale(0.7)"/>
      <use xlink:href="#DejaVuSans-Bold-20" transform="translate(178.862305 0.125)"/>
      <use xlink:href="#DejaVuSans-Bold-28" transform="translate(213.676758 0.125)"/>
      <use xlink:href="#DejaVuSans-Bold-6d" transform="translate(259.379883 0.125)"/>
      <use xlink:href="#DejaVuSans-Bold-65" transform="translate(363.579102 0.125)"/>
      <use xlink:href="#DejaVuSans-Bold-56" transform="translate(431.401367 0.125)"/>
      <use xlink:href="#DejaVuSans-Bold-29" transform="translate(508.793945 0.125)"/>
     </g>
    </g>
   </g>
   <g id="line2d_43">
    <path d="M 65.88 186.418455 
L 216.306 186.418455 
" clip-path="url(#p7263346528)" style="fill: none; stroke: #404040; stroke-width: 1.15; stroke-linecap: square"/>
   </g>
   <g id="patch_9">
    <path d="M 65.88 215.982 
L 65.88 156.85491 
" style="fill: none; stroke: #000000; stroke-width: 1.65; stroke-linejoin: miter; stroke-linecap: square"/>
   </g>
   <g id="patch_10">
    <path d="M 216.306 215.982 
L 216.306 156.85491 
" style="fill: none; stroke: #000000; stroke-width: 1.65; stroke-linejoin: miter; stroke-linecap: square"/>
   </g>
   <g id="patch_11">
    <path d="M 65.88 215.982 
L 216.306 215.982 
" style="fill: none; stroke: #000000; stroke-width: 1.65; stroke-linejoin: miter; stroke-linecap: square"/>
   </g>
   <g id="patch_12">
    <path d="M 65.88 156.85491 
L 216.306 156.85491 
" style="fill: none; stroke: #000000; stroke-width: 1.65; stroke-linejoin: miter; stroke-linecap: square"/>
   </g>
   <g id="line2d_44">
    <path d="M 70.13734 186.27504 
L 74.311202 189.424308 
L 78.485064 188.291881 
L 82.658927 186.443909 
L 86.832789 184.979706 
L 91.006651 183.754095 
L 95.180514 182.459084 
L 99.354376 188.907195 
L 103.528239 189.499314 
L 107.702101 190.156742 
L 111.875963 190.800321 
L 116.049826 191.525754 
L 120.223688 192.007492 
L 124.39755 192.320725 
L 128.571413 192.620752 
L 132.745275 192.457724 
L 136.919138 192.081407 
L 141.093 191.506678 
L 145.266862 190.692003 
L 149.440725 189.650463 
L 153.614587 188.559399 
L 157.78845 187.185063 
L 161.962312 185.77875 
L 166.136174 180.578898 
L 170.310037 178.924997 
L 174.483899 178.518272 
L 178.657761 176.120417 
L 182.831624 173.833695 
L 187.005486 171.692874 
L 191.179349 169.647075 
L 195.353211 167.743196 
L 199.527073 165.979531 
L 203.700936 164.321197 
L 207.874798 162.785305 
L 212.04866 161.364603 
" clip-path="url(#p7263346528)" style="fill: none; stroke: #2b6cb0; stroke-width: 2.05; stroke-linecap: square"/>
   </g>
   <g id="PathCollection_3">
    <defs>
     <path id="m4304715efa" d="M -0 4.123106 
L 4.123106 0 
L 0 -4.123106 
L -4.123106 -0 
z
" style="stroke: #ffffff; stroke-width: 0.9"/>
    </defs>
    <g clip-path="url(#p7263346528)">
     <use xlink:href="#m4304715efa" x="70.13734" y="186.418455" style="fill: #b2182b; stroke: #ffffff; stroke-width: 0.9"/>
     <use xlink:href="#m4304715efa" x="89.488883" y="186.418455" style="fill: #b2182b; stroke: #ffffff; stroke-width: 0.9"/>
     <use xlink:href="#m4304715efa" x="121.741456" y="186.418455" style="fill: #b2182b; stroke: #ffffff; stroke-width: 0.9"/>
     <use xlink:href="#m4304715efa" x="147.543515" y="186.418455" style="fill: #b2182b; stroke: #ffffff; stroke-width: 0.9"/>
     <use xlink:href="#m4304715efa" x="160.444544" y="186.418455" style="fill: #b2182b; stroke: #ffffff; stroke-width: 0.9"/>
     <use xlink:href="#m4304715efa" x="179.796087" y="186.418455" style="fill: #b2182b; stroke: #ffffff; stroke-width: 0.9"/>
     <use xlink:href="#m4304715efa" x="212.04866" y="186.418455" style="fill: #b2182b; stroke: #ffffff; stroke-width: 0.9"/>
    </g>
   </g>
   <g id="text_21">
    <g id="patch_13">
     <path d="M 73.13943 169.332161 
L 184.67943 169.332161 
L 184.67943 158.568161 
L 73.13943 158.568161 
z
" style="fill: #ffffff; opacity: 0.72"/>
    </g>
    <!-- gray band: $\pm 1$ kcal mol$^{-1}$ -->
    <g style="fill: #595959" transform="translate(74.15343 166.602161) scale(0.078 -0.078)">
     <defs>
      <path id="DejaVuSans-Bold-67" d="M 2919 594 
Q 2688 288 2409 144 
Q 2131 0 1766 0 
Q 1125 0 706 504 
Q 288 1009 288 1791 
Q 288 2575 706 3076 
Q 1125 3578 1766 3578 
Q 2131 3578 2409 3434 
Q 2688 3291 2919 2981 
L 2919 3500 
L 4044 3500 
L 4044 353 
Q 4044 -491 3511 -936 
Q 2978 -1381 1966 -1381 
Q 1638 -1381 1331 -1331 
Q 1025 -1281 716 -1178 
L 716 -306 
Q 1009 -475 1290 -558 
Q 1572 -641 1856 -641 
Q 2406 -641 2662 -400 
Q 2919 -159 2919 353 
L 2919 594 
z
M 2181 2772 
Q 1834 2772 1640 2515 
Q 1447 2259 1447 1791 
Q 1447 1309 1634 1061 
Q 1822 813 2181 813 
Q 2531 813 2725 1069 
Q 2919 1325 2919 1791 
Q 2919 2259 2725 2515 
Q 2531 2772 2181 2772 
z
" transform="scale(0.015625)"/>
      <path id="DejaVuSans-Bold-72" d="M 3138 2547 
Q 2991 2616 2845 2648 
Q 2700 2681 2553 2681 
Q 2122 2681 1889 2404 
Q 1656 2128 1656 1613 
L 1656 0 
L 538 0 
L 538 3500 
L 1656 3500 
L 1656 2925 
Q 1872 3269 2151 3426 
Q 2431 3584 2822 3584 
Q 2878 3584 2943 3579 
Q 3009 3575 3134 3559 
L 3138 2547 
z
" transform="scale(0.015625)"/>
      <path id="DejaVuSans-Bold-79" d="M 78 3500 
L 1197 3500 
L 2138 1125 
L 2938 3500 
L 4056 3500 
L 2584 -331 
Q 2363 -916 2067 -1148 
Q 1772 -1381 1288 -1381 
L 641 -1381 
L 641 -647 
L 991 -647 
Q 1275 -647 1404 -556 
Q 1534 -466 1606 -231 
L 1638 -134 
L 78 3500 
z
" transform="scale(0.015625)"/>
      <path id="DejaVuSans-Bold-62" d="M 2400 722 
Q 2759 722 2948 984 
Q 3138 1247 3138 1747 
Q 3138 2247 2948 2509 
Q 2759 2772 2400 2772 
Q 2041 2772 1848 2508 
Q 1656 2244 1656 1747 
Q 1656 1250 1848 986 
Q 2041 722 2400 722 
z
M 1656 2988 
Q 1888 3294 2169 3439 
Q 2450 3584 2816 3584 
Q 3463 3584 3878 3070 
Q 4294 2556 4294 1747 
Q 4294 938 3878 423 
Q 3463 -91 2816 -91 
Q 2450 -91 2169 54 
Q 1888 200 1656 506 
L 1656 0 
L 538 0 
L 538 4863 
L 1656 4863 
L 1656 2988 
z
" transform="scale(0.015625)"/>
      <path id="DejaVuSans-Bold-6e" d="M 4056 2131 
L 4056 0 
L 2931 0 
L 2931 347 
L 2931 1631 
Q 2931 2084 2911 2256 
Q 2891 2428 2841 2509 
Q 2775 2619 2662 2680 
Q 2550 2741 2406 2741 
Q 2056 2741 1856 2470 
Q 1656 2200 1656 1722 
L 1656 0 
L 538 0 
L 538 3500 
L 1656 3500 
L 1656 2988 
Q 1909 3294 2193 3439 
Q 2478 3584 2822 3584 
Q 3428 3584 3742 3212 
Q 4056 2841 4056 2131 
z
" transform="scale(0.015625)"/>
      <path id="DejaVuSans-Bold-64" d="M 2919 2988 
L 2919 4863 
L 4044 4863 
L 4044 0 
L 2919 0 
L 2919 506 
Q 2688 197 2409 53 
Q 2131 -91 1766 -91 
Q 1119 -91 703 423 
Q 288 938 288 1747 
Q 288 2556 703 3070 
Q 1119 3584 1766 3584 
Q 2128 3584 2408 3439 
Q 2688 3294 2919 2988 
z
M 2181 722 
Q 2541 722 2730 984 
Q 2919 1247 2919 1747 
Q 2919 2247 2730 2509 
Q 2541 2772 2181 2772 
Q 1825 2772 1636 2509 
Q 1447 2247 1447 1747 
Q 1447 1247 1636 984 
Q 1825 722 2181 722 
z
" transform="scale(0.015625)"/>
      <path id="DejaVuSans-Bold-3a" d="M 716 3500 
L 1844 3500 
L 1844 2291 
L 716 2291 
L 716 3500 
z
M 716 1209 
L 1844 1209 
L 1844 0 
L 716 0 
L 716 1209 
z
" transform="scale(0.015625)"/>
      <path id="DejaVuSans-b1" d="M 2944 4013 
L 2944 2803 
L 4684 2803 
L 4684 2272 
L 2944 2272 
L 2944 1063 
L 2419 1063 
L 2419 2272 
L 678 2272 
L 678 2803 
L 2419 2803 
L 2419 4013 
L 2944 4013 
z
M 678 531 
L 4684 531 
L 4684 0 
L 678 0 
L 678 531 
z
" transform="scale(0.015625)"/>
      <path id="DejaVuSans-Bold-6b" d="M 538 4863 
L 1656 4863 
L 1656 2216 
L 2944 3500 
L 4244 3500 
L 2534 1894 
L 4378 0 
L 3022 0 
L 1656 1459 
L 1656 0 
L 538 0 
L 538 4863 
z
" transform="scale(0.015625)"/>
      <path id="DejaVuSans-Bold-63" d="M 3366 3391 
L 3366 2478 
Q 3138 2634 2908 2709 
Q 2678 2784 2431 2784 
Q 1963 2784 1702 2511 
Q 1441 2238 1441 1747 
Q 1441 1256 1702 982 
Q 1963 709 2431 709 
Q 2694 709 2930 787 
Q 3166 866 3366 1019 
L 3366 103 
Q 3103 6 2833 -42 
Q 2563 -91 2291 -91 
Q 1344 -91 809 395 
Q 275 881 275 1747 
Q 275 2613 809 3098 
Q 1344 3584 2291 3584 
Q 2566 3584 2833 3536 
Q 3100 3488 3366 3391 
z
" transform="scale(0.015625)"/>
      <path id="DejaVuSans-Bold-6c" d="M 538 4863 
L 1656 4863 
L 1656 0 
L 538 0 
L 538 4863 
z
" transform="scale(0.015625)"/>
      <path id="DejaVuSans-Bold-6f" d="M 2203 2784 
Q 1831 2784 1636 2517 
Q 1441 2250 1441 1747 
Q 1441 1244 1636 976 
Q 1831 709 2203 709 
Q 2569 709 2762 976 
Q 2956 1244 2956 1747 
Q 2956 2250 2762 2517 
Q 2569 2784 2203 2784 
z
M 2203 3584 
Q 3106 3584 3614 3096 
Q 4122 2609 4122 1747 
Q 4122 884 3614 396 
Q 3106 -91 2203 -91 
Q 1297 -91 786 396 
Q 275 884 275 1747 
Q 275 2609 786 3096 
Q 1297 3584 2203 3584 
z
" transform="scale(0.015625)"/>
      <path id="DejaVuSans-2212" d="M 678 2272 
L 4684 2272 
L 4684 1741 
L 678 1741 
L 678 2272 
z
" transform="scale(0.015625)"/>
     </defs>
     <use xlink:href="#DejaVuSans-Bold-67" transform="translate(0 0.684375)"/>
     <use xlink:href="#DejaVuSans-Bold-72" transform="translate(71.582031 0.684375)"/>
     <use xlink:href="#DejaVuSans-Bold-61" transform="translate(120.898438 0.684375)"/>
     <use xlink:href="#DejaVuSans-Bold-79" transform="translate(188.378906 0.684375)"/>
     <use xlink:href="#DejaVuSans-Bold-20" transform="translate(253.564453 0.684375)"/>
     <use xlink:href="#DejaVuSans-Bold-62" transform="translate(288.378906 0.684375)"/>
     <use xlink:href="#DejaVuSans-Bold-61" transform="translate(359.960938 0.684375)"/>
     <use xlink:href="#DejaVuSans-Bold-6e" transform="translate(427.441406 0.684375)"/>
     <use xlink:href="#DejaVuSans-Bold-64" transform="translate(498.632812 0.684375)"/>
     <use xlink:href="#DejaVuSans-Bold-3a" transform="translate(570.214844 0.684375)"/>
     <use xlink:href="#DejaVuSans-Bold-20" transform="translate(610.205078 0.684375)"/>
     <use xlink:href="#DejaVuSans-b1" transform="translate(645.019531 0.684375)"/>
     <use xlink:href="#DejaVuSans-31" transform="translate(728.808594 0.684375)"/>
     <use xlink:href="#DejaVuSans-Bold-20" transform="translate(792.431641 0.684375)"/>
     <use xlink:href="#DejaVuSans-Bold-6b" transform="translate(827.246094 0.684375)"/>
     <use xlink:href="#DejaVuSans-Bold-63" transform="translate(893.75 0.684375)"/>
     <use xlink:href="#DejaVuSans-Bold-61" transform="translate(953.027344 0.684375)"/>
     <use xlink:href="#DejaVuSans-Bold-6c" transform="translate(1020.507812 0.684375)"/>
     <use xlink:href="#DejaVuSans-Bold-20" transform="translate(1054.785156 0.684375)"/>
     <use xlink:href="#DejaVuSans-Bold-6d" transform="translate(1089.599609 0.684375)"/>
     <use xlink:href="#DejaVuSans-Bold-6f" transform="translate(1193.798828 0.684375)"/>
     <use xlink:href="#DejaVuSans-Bold-6c" transform="translate(1262.5 0.684375)"/>
     <use xlink:href="#DejaVuSans-2212" transform="translate(1297.734375 38.965625) scale(0.7)"/>
     <use xlink:href="#DejaVuSans-31" transform="translate(1356.386719 38.965625) scale(0.7)"/>
    </g>
   </g>
  </g>
 </g>
 <defs>
  <clipPath id="p00c50184ed">
   <rect x="65.88" y="3.834" width="150.426" height="144.861371"/>
  </clipPath>
  <clipPath id="p7263346528">
   <rect x="65.88" y="156.85491" width="150.426" height="59.12709"/>
  </clipPath>
 </defs>
</svg>
